SplineFontDB: 3.0
FontName: JosefinSans-Light
FullName: Josefin Sans Light
FamilyName: Josefin Sans
Weight: Light
Version: 1.0
ItalicAngle: 0
UnderlinePosition: -100
UnderlineWidth: 50
Ascent: 750
Descent: 250
InvalidEm: 0
sfntRevision: 0x00010000
LayerCount: 3
Layer: 0 1 "Back" 1
Layer: 1 1 "Fore" 0
Layer: 2 0 "Back 2" 1
XUID: [1021 720 -536341758 8072]
StyleMap: 0x0000
FSType: 0
OS2Version: 3
OS2_WeightWidthSlopeOnly: 0
OS2_UseTypoMetrics: 0
CreationTime: 1276136336
ModificationTime: 1445247460
PfmFamily: 81
TTFWeight: 300
TTFWidth: 5
LineGap: 0
VLineGap: 0
Panose: 0 0 0 0 0 0 0 0 0 0
OS2TypoAscent: 750
OS2TypoAOffset: 0
OS2TypoDescent: -250
OS2TypoDOffset: 0
OS2TypoLinegap: 0
OS2WinAscent: 943
OS2WinAOffset: 0
OS2WinDescent: 234
OS2WinDOffset: 0
HheadAscent: 750
HheadAOffset: 0
HheadDescent: -250
HheadDOffset: 0
OS2SubXSize: 700
OS2SubYSize: 650
OS2SubXOff: 0
OS2SubYOff: 140
OS2SupXSize: 700
OS2SupYSize: 650
OS2SupXOff: 0
OS2SupYOff: 477
OS2StrikeYSize: 50
OS2StrikeYPos: 250
OS2CapHeight: 700
OS2XHeight: 400
OS2Vendor: 'pyrs'
OS2CodePages: 20000193.45000000
OS2UnicodeRanges: a00000af.4000204a.00000000.00000000
Lookup: 258 0 0 "'kern' Horizontal Kerning in Latin lookup 0" { "'kern' Horizontal Kerning in Latin lookup 0 per glyph data 0"  "'kern' Horizontal Kerning in Latin lookup 0 kerning class 1"  } ['kern' ('latn' <'dflt' > ) ]
DEI: 91125
KernClass2: 74+ 62 "'kern' Horizontal Kerning in Latin lookup 0 kerning class 1"
 5 space
 40 comma period quotedblbase quotesinglbase
 27 guilsinglleft guillemotleft
 2 at
 15 colon semicolon
 24 quoteright quotedblright
 8 asterisk
 3 bar
 20 hyphen endash emdash
 5 slash
 9 backslash
 10 exclamdown
 12 questiondown
 20 quotedbl quotesingle
 22 quotedblleft quoteleft
 29 guilsinglright guillemotright
 9 ampersand
 3 two
 3 one
 5 three
 4 four
 4 five
 3 six
 5 seven
 5 eight
 9 parenleft
 4 nine
 9 braceleft
 4 zero
 11 bracketleft
 50 A Aring Aacute Adieresis Agrave Atilde Acircumflex
 1 B
 5 D Eth

StartChar: t
Encoding: 116 116 4
Width: 268
Flags: W
LayerCount: 3
Fore
SplineSet
100 557 m 1,0,-1
 135 557 l 1,1,-1
 135 381 l 1,2,-1
 257 381 l 1,3,-1
 257 350 l 1,4,-1
 135 350 l 1,5,-1
 135 0 l 1,6,-1
 100 0 l 1,7,-1
 100 350 l 1,8,-1
 15 350 l 1,9,-1
 15 381 l 1,10,-1
 100 381 l 1,11,-1
 100 557 l 1,0,-1
EndSplineSet
Validated: 1
EndChar

StartChar: b
Encoding: 98 98 5
Width: 516
Flags: W
LayerCount: 3
Fore
SplineSet
476 194 m 0,0,1
 476 152 476 152 460.5 115 c 128,-1,2
 445 78 445 78 418 51 c 128,-1,3
 391 24 391 24 354 8.5 c 128,-1,4
 317 -7 317 -7 274 -7 c 0,5,6
 215 -7 215 -7 169 23.5 c 128,-1,7
 123 54 123 54 104 99 c 1,8,9
 104 86 104 86 104.5 73.5 c 128,-1,10
 105 61 105 61 105 48 c 2,11,-1
 105 0 l 1,12,-1
 70 0 l 1,13,-1
 70 758 l 1,14,-1
 105 758 l 1,15,-1
 105 288 l 1,16,17
 115 310 115 310 131.5 330 c 128,-1,18
 148 350 148 350 170 364.5 c 128,-1,19
 192 379 192 379 219 387.5 c 128,-1,20
 246 396 246 396 276 396 c 0,21,22
 318 396 318 396 354.5 380.5 c 128,-1,23
 391 365 391 365 418 338 c 128,-1,24
 445 311 445 311 460.5 274 c 128,-1,25
 476 237 476 237 476 194 c 0,0,1
439 194 m 256,26,27
 439 229 439 229 426.5 260 c 128,-1,28
 414 291 414 291 391.5 313.5 c 128,-1,29
 369 336 369 336 339 349 c 128,-1,30
 309 362 309 362 273 362 c 0,31,32
 238 362 238 362 207 349 c 128,-1,33
 176 336 176 336 153.5 313.5 c 128,-1,34
 131 291 131 291 118 260 c 128,-1,35
 105 229 105 229 105 194 c 256,36,37
 105 159 105 159 118 128.5 c 128,-1,38
 131 98 131 98 153.5 75.5 c 128,-1,39
 176 53 176 53 207 40 c 128,-1,40
 238 27 238 27 273 27 c 0,41,42
 309 27 309 27 339 40 c 128,-1,43
 369 53 369 53 391.5 75.5 c 128,-1,44
 414 98 414 98 426.5 128.5 c 128,-1,45
 439 159 439 159 439 194 c 256,26,27
EndSplineSet
Validated: 1
EndChar

StartChar: l
Encoding: 108 108 6
Width: 183
Flags: W
LayerCount: 3
Fore
SplineSet
109 0 m 1,0,-1
 74 0 l 1,1,-1
 74 758 l 1,2,-1
 109 758 l 1,3,-1
 109 0 l 1,0,-1
EndSplineSet
Validated: 1
EndChar

StartChar: m
Encoding: 109 109 7
Width: 739
Flags: W
LayerCount: 3
Fore
SplineSet
70 387 m 1,0,-1
 98 387 l 1,1,2
 98 383 98 383 98.5 368 c 128,-1,3
 99 353 99 353 99.5 336 c 128,-1,4
 100 319 100 319 100.5 304.5 c 128,-1,5
 101 290 101 290 101 287 c 1,6,7
 122 335 122 335 164 365 c 128,-1,8
 206 395 206 395 265 395 c 0,9,10
 317 395 317 395 349.5 366.5 c 128,-1,11
 382 338 382 338 387 292 c 1,12,13
 410 338 410 338 451 366.5 c 128,-1,14
 492 395 492 395 549 395 c 256,15,16
 606 395 606 395 638.5 363 c 128,-1,17
 671 331 671 331 673 280 c 2,18,-1
 673 0 l 1,19,-1
 638 0 l 1,20,-1
 638 274 l 2,21,22
 636 309 636 309 613 334 c 128,-1,23
 590 359 590 359 546 361 c 0,24,25
 514 361 514 361 486 350.5 c 128,-1,26
 458 340 458 340 436.5 321.5 c 128,-1,27
 415 303 415 303 402 277.5 c 128,-1,28
 389 252 389 252 388 221 c 2,29,-1
 388 0 l 1,30,-1
 354 0 l 1,31,-1
 354 274 l 2,32,33
 352 309 352 309 328.5 334 c 128,-1,34
 305 359 305 359 262 361 c 0,35,36
 229 361 229 361 200.5 350 c 128,-1,37
 172 339 172 339 150.5 320 c 128,-1,38
 129 301 129 301 116.5 274 c 128,-1,39
 104 247 104 247 104 216 c 2,40,-1
 104 0 l 1,41,-1
 70 0 l 1,42,-1
 70 387 l 1,0,-1
EndSplineSet
Validated: 1
EndChar

StartChar: i
Encoding: 105 105 8
Width: 174
Flags: W
LayerCount: 3
Fore
SplineSet
58 522 m 256,0,1
 58 535 58 535 67 544 c 128,-1,2
 76 553 76 553 88 553 c 0,3,4
 99 553 99 553 108 544 c 128,-1,5
 117 535 117 535 117 522 c 256,6,7
 117 509 117 509 108 500.5 c 128,-1,8
 99 492 99 492 88 492 c 0,9,10
 76 492 76 492 67 500.5 c 128,-1,11
 58 509 58 509 58 522 c 256,0,1
104 0 m 1,12,-1
 70 0 l 1,13,-1
 70 387 l 1,14,-1
 104 387 l 1,15,-1
 104 0 l 1,12,-1
EndSplineSet
Validated: 1
EndChar

StartChar: h
Encoding: 104 104 9
Width: 457
Flags: W
LayerCount: 3
Fore
SplineSet
70 758 m 1,0,-1
 104 758 l 1,1,-1
 104 293 l 1,2,3
 124 338 124 338 166.5 366.5 c 128,-1,4
 209 395 209 395 267 395 c 0,5,6
 323 396 323 396 356 363.5 c 128,-1,7
 389 331 389 331 391 280 c 2,8,-1
 391 0 l 1,9,-1
 356 0 l 1,10,-1
 356 274 l 2,11,12
 354 309 354 309 331 334 c 128,-1,13
 308 359 308 359 264 361 c 0,14,15
 231 361 231 361 202 350 c 128,-1,16
 173 339 173 339 151.5 320 c 128,-1,17
 130 301 130 301 117 274 c 128,-1,18
 104 247 104 247 104 216 c 2,19,-1
 104 0 l 1,20,-1
 70 0 l 1,21,-1
 70 758 l 1,0,-1
EndSplineSet
Validated: 33
EndChar

StartChar: c
Encoding: 99 99 10
Width: 401
Flags: W
LayerCount: 3
Fore
SplineSet
346 63 m 1,0,1
 352 57 352 57 357.5 50.5 c 128,-1,2
 363 44 363 44 368 37 c 1,3,4
 342 17 342 17 310 5 c 128,-1,5
 278 -7 278 -7 241 -7 c 0,6,7
 199 -7 199 -7 162 9 c 128,-1,8
 125 25 125 25 97.5 52 c 128,-1,9
 70 79 70 79 54.5 115.5 c 128,-1,10
 39 152 39 152 39 194 c 256,11,12
 39 236 39 236 54.5 273 c 128,-1,13
 70 310 70 310 97.5 337 c 128,-1,14
 125 364 125 364 162 380 c 128,-1,15
 199 396 199 396 241 396 c 0,16,17
 278 396 278 396 310.5 384 c 128,-1,18
 343 372 343 372 369 352 c 1,19,20
 364 345 364 345 358 339 c 128,-1,21
 352 333 352 333 346 325 c 1,22,23
 325 342 325 342 298 352 c 128,-1,24
 271 362 271 362 241 362 c 0,25,26
 205 362 205 362 174.5 349 c 128,-1,27
 144 336 144 336 121.5 313.5 c 128,-1,28
 99 291 99 291 86 260 c 128,-1,29
 73 229 73 229 73 194 c 256,30,31
 73 159 73 159 86 128.5 c 128,-1,32
 99 98 99 98 121.5 75.5 c 128,-1,33
 144 53 144 53 174.5 40 c 128,-1,34
 205 27 205 27 241 27 c 0,35,36
 271 27 271 27 298 36.5 c 128,-1,37
 325 46 325 46 346 63 c 1,0,1
EndSplineSet
Validated: 1
EndChar

StartChar: q
Encoding: 113 113 11
Width: 516
Flags: W
LayerCount: 3
Fore
SplineSet
75 194 m 256,0,1
 75 159 75 159 88 128.5 c 128,-1,2
 101 98 101 98 123.5 75.5 c 128,-1,3
 146 53 146 53 177 40 c 128,-1,4
 208 27 208 27 243 27 c 256,5,6
 278 27 278 27 309 40 c 128,-1,7
 340 53 340 53 362.5 75.5 c 128,-1,8
 385 98 385 98 398 128.5 c 128,-1,9
 411 159 411 159 411 194 c 256,10,11
 411 229 411 229 398 260 c 128,-1,12
 385 291 385 291 362.5 313.5 c 128,-1,13
 340 336 340 336 309 349 c 128,-1,14
 278 362 278 362 243 362 c 256,15,16
 208 362 208 362 177 349 c 128,-1,17
 146 336 146 336 123.5 313.5 c 128,-1,18
 101 291 101 291 88 260 c 128,-1,19
 75 229 75 229 75 194 c 256,0,1
40 194 m 0,20,21
 40 237 40 237 55.5 274 c 128,-1,22
 71 311 71 311 98.5 338 c 128,-1,23
 126 365 126 365 162.5 380.5 c 128,-1,24
 199 396 199 396 241 396 c 0,25,26
 272 396 272 396 299 387.5 c 128,-1,27
 326 379 326 379 347.5 364 c 128,-1,28
 369 349 369 349 385.5 329.5 c 128,-1,29
 402 310 402 310 411 288 c 1,30,31
 411 300 411 300 411 316.5 c 128,-1,32
 411 333 411 333 411.5 348 c 128,-1,33
 412 363 412 363 412 374 c 128,-1,34
 412 385 412 385 412 387 c 2,35,-1
 446 387 l 1,36,-1
 446 -186 l 1,37,-1
 411 -186 l 1,38,-1
 411 47 l 2,39,40
 411 61 411 61 412 74 c 128,-1,41
 413 87 413 87 413 100 c 1,42,43
 392 55 392 55 347 24 c 128,-1,44
 302 -7 302 -7 240 -7 c 0,45,46
 197 -7 197 -7 160.5 9 c 128,-1,47
 124 25 124 25 97 52 c 128,-1,48
 70 79 70 79 55 115.5 c 128,-1,49
 40 152 40 152 40 194 c 0,20,21
EndSplineSet
Validated: 1
EndChar

StartChar: u
Encoding: 117 117 12
Width: 457
Flags: W
LayerCount: 3
Fore
SplineSet
387 -3 m 1,0,-1
 359 -3 l 1,1,-1
 356 101 l 1,2,3
 335 52 335 52 291 22 c 128,-1,4
 247 -8 247 -8 189 -8 c 0,5,6
 133 -8 133 -8 100.5 24.5 c 128,-1,7
 68 57 68 57 66 108 c 2,8,-1
 66 387 l 1,9,-1
 100 387 l 1,10,-1
 100 114 l 2,11,12
 102 79 102 79 125.5 54 c 128,-1,13
 149 29 149 29 193 26 c 0,14,15
 226 26 226 26 254.5 37 c 128,-1,16
 283 48 283 48 305 67 c 128,-1,17
 327 86 327 86 339.5 112.5 c 128,-1,18
 352 139 352 139 352 171 c 2,19,-1
 352 387 l 1,20,-1
 387 387 l 1,21,-1
 387 -3 l 1,0,-1
EndSplineSet
Validated: 1
EndChar

StartChar: r
Encoding: 114 114 13
Width: 271
Flags: W
LayerCount: 3
Fore
SplineSet
262 354 m 1,0,1
 231 353 231 353 202.5 343 c 128,-1,2
 174 333 174 333 152 314.5 c 128,-1,3
 130 296 130 296 117 270.5 c 128,-1,4
 104 245 104 245 104 214 c 2,5,-1
 104 0 l 1,6,-1
 70 0 l 1,7,-1
 70 387 l 1,8,-1
 99 387 l 1,9,10
 99 383 99 383 99.5 368 c 128,-1,11
 100 353 100 353 100 336 c 128,-1,12
 100 319 100 319 100.5 304.5 c 128,-1,13
 101 290 101 290 101 287 c 1,14,15
 124 337 124 337 170.5 365.5 c 128,-1,16
 217 394 217 394 268 395 c 1,17,-1
 262 354 l 1,0,1
EndSplineSet
Validated: 1
EndChar

StartChar: e
Encoding: 101 101 14
Width: 440
Flags: W
LayerCount: 3
Fore
SplineSet
382 47 m 1,0,1
 355 22 355 22 318.5 7.5 c 128,-1,2
 282 -7 282 -7 241 -7 c 0,3,4
 199 -7 199 -7 162 9 c 128,-1,5
 125 25 125 25 97.5 52 c 128,-1,6
 70 79 70 79 54.5 115.5 c 128,-1,7
 39 152 39 152 39 194 c 256,8,9
 39 236 39 236 55 273 c 128,-1,10
 71 310 71 310 98 337.5 c 128,-1,11
 125 365 125 365 161.5 381 c 128,-1,12
 198 397 198 397 240 397 c 0,13,14
 304 397 304 397 349.5 359.5 c 128,-1,15
 395 322 395 322 417 264 c 1,16,17
 381 250 381 250 339 233 c 128,-1,18
 297 216 297 216 253 198 c 128,-1,19
 209 180 209 180 166 162.5 c 128,-1,20
 123 145 123 145 85 130 c 1,21,22
 104 84 104 84 145.5 55.5 c 128,-1,23
 187 27 187 27 240 27 c 0,24,25
 274 27 274 27 304 39 c 128,-1,26
 334 51 334 51 356 72 c 1,27,-1
 382 47 l 1,0,1
373 274 m 1,28,29
 355 314 355 314 320.5 338 c 128,-1,30
 286 362 286 362 240 362 c 0,31,32
 205 362 205 362 174.5 348.5 c 128,-1,33
 144 335 144 335 121.5 312.5 c 128,-1,34
 99 290 99 290 86 259.5 c 128,-1,35
 73 229 73 229 73 195 c 0,36,37
 73 184 73 184 74.5 174 c 128,-1,38
 76 164 76 164 78 154 c 1,39,40
 112 168 112 168 150 183.5 c 128,-1,41
 188 199 188 199 226.5 214.5 c 128,-1,42
 265 230 265 230 302.5 245 c 128,-1,43
 340 260 340 260 373 274 c 1,28,29
EndSplineSet
Validated: 1
EndChar

StartChar: p
Encoding: 112 112 15
Width: 516
Flags: W
LayerCount: 3
Fore
SplineSet
439 194 m 256,0,1
 439 229 439 229 426.5 260 c 128,-1,2
 414 291 414 291 391.5 313.5 c 128,-1,3
 369 336 369 336 339 349 c 128,-1,4
 309 362 309 362 273 362 c 0,5,6
 238 362 238 362 207 349 c 128,-1,7
 176 336 176 336 153.5 313.5 c 128,-1,8
 131 291 131 291 118 260 c 128,-1,9
 105 229 105 229 105 194 c 256,10,11
 105 159 105 159 118 128.5 c 128,-1,12
 131 98 131 98 153.5 75.5 c 128,-1,13
 176 53 176 53 207 40 c 128,-1,14
 238 27 238 27 273 27 c 0,15,16
 309 27 309 27 339 40 c 128,-1,17
 369 53 369 53 391.5 75.5 c 128,-1,18
 414 98 414 98 426.5 128.5 c 128,-1,19
 439 159 439 159 439 194 c 256,0,1
476 194 m 0,20,21
 476 152 476 152 460.5 115 c 128,-1,22
 445 78 445 78 418 51 c 128,-1,23
 391 24 391 24 354 8.5 c 128,-1,24
 317 -7 317 -7 274 -7 c 0,25,26
 215 -7 215 -7 169 23.5 c 128,-1,27
 123 54 123 54 104 99 c 1,28,29
 104 86 104 86 104.5 73.5 c 128,-1,30
 105 61 105 61 105 48 c 2,31,-1
 105 -186 l 1,32,-1
 70 -186 l 1,33,-1
 70 387 l 1,34,-1
 104 387 l 2,35,36
 104 385 104 385 104 374 c 128,-1,37
 104 363 104 363 104.5 348 c 128,-1,38
 105 333 105 333 105 316.5 c 128,-1,39
 105 300 105 300 105 288 c 1,40,41
 115 310 115 310 131.5 330 c 128,-1,42
 148 350 148 350 170 364.5 c 128,-1,43
 192 379 192 379 219 387.5 c 128,-1,44
 246 396 246 396 276 396 c 0,45,46
 318 396 318 396 354.5 380.5 c 128,-1,47
 391 365 391 365 418 338 c 128,-1,48
 445 311 445 311 460.5 274 c 128,-1,49
 476 237 476 237 476 194 c 0,20,21
EndSplineSet
Validated: 1
EndChar

StartChar: aacute
Encoding: 225 225 16
Width: 514
Flags: W
LayerCount: 3
Fore
SplineSet
39 193 m 0,0,1
 39 235 39 235 55 272 c 128,-1,2
 71 309 71 309 98 336.5 c 128,-1,3
 125 364 125 364 161.5 380 c 128,-1,4
 198 396 198 396 240 396 c 0,5,6
 270 396 270 396 297 387.5 c 128,-1,7
 324 379 324 379 346 364 c 128,-1,8
 368 349 368 349 384.5 329.5 c 128,-1,9
 401 310 401 310 410 288 c 1,10,11
 410 313 410 313 411 338 c 128,-1,12
 412 363 412 363 414 387 c 1,13,-1
 444 387 l 1,14,-1
 444 0 l 1,15,-1
 410 0 l 1,16,-1
 410 99 l 1,17,18
 393 55 393 55 348 24 c 128,-1,19
 303 -7 303 -7 240 -7 c 0,20,21
 197 -7 197 -7 160.5 9 c 128,-1,22
 124 25 124 25 97 52 c 128,-1,23
 70 79 70 79 54.5 115.5 c 128,-1,24
 39 152 39 152 39 193 c 0,0,1
73 194 m 256,25,26
 73 159 73 159 86 128.5 c 128,-1,27
 99 98 99 98 121.5 75.5 c 128,-1,28
 144 53 144 53 175 40 c 128,-1,29
 206 27 206 27 241 27 c 256,30,31
 276 27 276 27 307 40 c 128,-1,32
 338 53 338 53 361 75.5 c 128,-1,33
 384 98 384 98 397 128.5 c 128,-1,34
 410 159 410 159 410 194 c 256,35,36
 410 229 410 229 397 260 c 128,-1,37
 384 291 384 291 361 313.5 c 128,-1,38
 338 336 338 336 307 349 c 128,-1,39
 276 362 276 362 241 362 c 256,40,41
 206 362 206 362 175 349 c 128,-1,42
 144 336 144 336 121.5 313.5 c 128,-1,43
 99 291 99 291 86 260 c 128,-1,44
 73 229 73 229 73 194 c 256,25,26
235 481 m 1,45,46
 258 514 258 514 280.5 547.5 c 128,-1,47
 303 581 303 581 326 614 c 1,48,-1
 364 614 l 1,49,-1
 265 481 l 1,50,-1
 235 481 l 1,45,46
EndSplineSet
Validated: 1
EndChar

StartChar: eacute
Encoding: 233 233 17
Width: 440
Flags: W
LayerCount: 3
Fore
SplineSet
382 47 m 1,0,1
 355 22 355 22 318.5 7.5 c 128,-1,2
 282 -7 282 -7 241 -7 c 0,3,4
 199 -7 199 -7 162 9 c 128,-1,5
 125 25 125 25 97.5 52 c 128,-1,6
 70 79 70 79 54.5 115.5 c 128,-1,7
 39 152 39 152 39 194 c 256,8,9
 39 236 39 236 55 273 c 128,-1,10
 71 310 71 310 98 337.5 c 128,-1,11
 125 365 125 365 161.5 381 c 128,-1,12
 198 397 198 397 240 397 c 0,13,14
 304 397 304 397 349.5 359.5 c 128,-1,15
 395 322 395 322 417 264 c 1,16,17
 381 250 381 250 339 233 c 128,-1,18
 297 216 297 216 253 198 c 128,-1,19
 209 180 209 180 166 162.5 c 128,-1,20
 123 145 123 145 85 130 c 1,21,22
 104 84 104 84 145.5 55.5 c 128,-1,23
 187 27 187 27 240 27 c 0,24,25
 274 27 274 27 304 39 c 128,-1,26
 334 51 334 51 356 72 c 1,27,-1
 382 47 l 1,0,1
373 274 m 1,28,29
 355 314 355 314 320.5 338 c 128,-1,30
 286 362 286 362 240 362 c 0,31,32
 205 362 205 362 174.5 348.5 c 128,-1,33
 144 335 144 335 121.5 312.5 c 128,-1,34
 99 290 99 290 86 259.5 c 128,-1,35
 73 229 73 229 73 195 c 0,36,37
 73 184 73 184 74.5 174 c 128,-1,38
 76 164 76 164 78 154 c 1,39,40
 112 168 112 168 150 183.5 c 128,-1,41
 188 199 188 199 226.5 214.5 c 128,-1,42
 265 230 265 230 302.5 245 c 128,-1,43
 340 260 340 260 373 274 c 1,28,29
224 481 m 1,44,45
 247 514 247 514 269.5 547.5 c 128,-1,46
 292 581 292 581 315 614 c 1,47,-1
 353 614 l 1,48,-1
 254 481 l 1,49,-1
 224 481 l 1,44,45
EndSplineSet
Validated: 1
EndChar

StartChar: iacute
Encoding: 237 237 18
Width: 174
Flags: W
LayerCount: 3
Fore
SplineSet
104 0 m 1,0,-1
 70 0 l 1,1,-1
 70 387 l 1,2,-1
 104 387 l 1,3,-1
 104 0 l 1,0,-1
70 481 m 1,4,5
 93 514 93 514 115.5 547.5 c 128,-1,6
 138 581 138 581 161 614 c 1,7,-1
 199 614 l 1,8,-1
 100 481 l 1,9,-1
 70 481 l 1,4,5
EndSplineSet
Validated: 1
EndChar

StartChar: oacute
Encoding: 243 243 19
Width: 485
Flags: W
LayerCount: 3
Fore
SplineSet
40 194 m 0,0,1
 40 236 40 236 56 273 c 128,-1,2
 72 310 72 310 99.5 337.5 c 128,-1,3
 127 365 127 365 164 381 c 128,-1,4
 201 397 201 397 243 397 c 256,5,6
 285 397 285 397 322 381 c 128,-1,7
 359 365 359 365 386.5 337.5 c 128,-1,8
 414 310 414 310 430 273 c 128,-1,9
 446 236 446 236 446 194 c 256,10,11
 446 152 446 152 430 115.5 c 128,-1,12
 414 79 414 79 386.5 52 c 128,-1,13
 359 25 359 25 322 9 c 128,-1,14
 285 -7 285 -7 242 -7 c 0,15,16
 200 -7 200 -7 163 8.5 c 128,-1,17
 126 24 126 24 99 51 c 128,-1,18
 72 78 72 78 56 114.5 c 128,-1,19
 40 151 40 151 40 194 c 0,0,1
75 194 m 256,20,21
 75 159 75 159 88 128.5 c 128,-1,22
 101 98 101 98 123.5 75.5 c 128,-1,23
 146 53 146 53 176.5 40 c 128,-1,24
 207 27 207 27 242 27 c 256,25,26
 277 27 277 27 307.5 40 c 128,-1,27
 338 53 338 53 361 75.5 c 128,-1,28
 384 98 384 98 397 128.5 c 128,-1,29
 410 159 410 159 410 194 c 256,30,31
 410 229 410 229 397 259.5 c 128,-1,32
 384 290 384 290 361 313 c 128,-1,33
 338 336 338 336 307.5 349 c 128,-1,34
 277 362 277 362 242 362 c 256,35,36
 207 362 207 362 176.5 349 c 128,-1,37
 146 336 146 336 123.5 313 c 128,-1,38
 101 290 101 290 88 259.5 c 128,-1,39
 75 229 75 229 75 194 c 256,20,21
242 481 m 1,40,41
 265 514 265 514 287.5 547.5 c 128,-1,42
 310 581 310 581 333 614 c 1,43,-1
 371 614 l 1,44,-1
 272 481 l 1,45,-1
 242 481 l 1,40,41
EndSplineSet
Validated: 1
EndChar

StartChar: uacute
Encoding: 250 250 20
Width: 457
Flags: W
LayerCount: 3
Fore
SplineSet
387 -3 m 1,0,-1
 359 -3 l 1,1,-1
 356 101 l 1,2,3
 335 52 335 52 291 22 c 128,-1,4
 247 -8 247 -8 189 -8 c 0,5,6
 133 -8 133 -8 100.5 24.5 c 128,-1,7
 68 57 68 57 66 108 c 2,8,-1
 66 387 l 1,9,-1
 100 387 l 1,10,-1
 100 114 l 2,11,12
 102 79 102 79 125.5 54 c 128,-1,13
 149 29 149 29 193 26 c 0,14,15
 226 26 226 26 254.5 37 c 128,-1,16
 283 48 283 48 305 67 c 128,-1,17
 327 86 327 86 339.5 112.5 c 128,-1,18
 352 139 352 139 352 171 c 2,19,-1
 352 387 l 1,20,-1
 387 387 l 1,21,-1
 387 -3 l 1,0,-1
229 481 m 1,22,23
 252 514 252 514 274.5 547.5 c 128,-1,24
 297 581 297 581 320 614 c 1,25,-1
 358 614 l 1,26,-1
 259 481 l 1,27,-1
 229 481 l 1,22,23
EndSplineSet
Validated: 1
EndChar

StartChar: adieresis
Encoding: 228 228 21
Width: 514
Flags: W
LayerCount: 3
Fore
SplineSet
39 193 m 0,0,1
 39 235 39 235 55 272 c 128,-1,2
 71 309 71 309 98 336.5 c 128,-1,3
 125 364 125 364 161.5 380 c 128,-1,4
 198 396 198 396 240 396 c 0,5,6
 270 396 270 396 297 387.5 c 128,-1,7
 324 379 324 379 346 364 c 128,-1,8
 368 349 368 349 384.5 329.5 c 128,-1,9
 401 310 401 310 410 288 c 1,10,11
 410 313 410 313 411 338 c 128,-1,12
 412 363 412 363 414 387 c 1,13,-1
 444 387 l 1,14,-1
 444 0 l 1,15,-1
 410 0 l 1,16,-1
 410 99 l 1,17,18
 393 55 393 55 348 24 c 128,-1,19
 303 -7 303 -7 240 -7 c 0,20,21
 197 -7 197 -7 160.5 9 c 128,-1,22
 124 25 124 25 97 52 c 128,-1,23
 70 79 70 79 54.5 115.5 c 128,-1,24
 39 152 39 152 39 193 c 0,0,1
73 194 m 256,25,26
 73 159 73 159 86 128.5 c 128,-1,27
 99 98 99 98 121.5 75.5 c 128,-1,28
 144 53 144 53 175 40 c 128,-1,29
 206 27 206 27 241 27 c 256,30,31
 276 27 276 27 307 40 c 128,-1,32
 338 53 338 53 361 75.5 c 128,-1,33
 384 98 384 98 397 128.5 c 128,-1,34
 410 159 410 159 410 194 c 256,35,36
 410 229 410 229 397 260 c 128,-1,37
 384 291 384 291 361 313.5 c 128,-1,38
 338 336 338 336 307 349 c 128,-1,39
 276 362 276 362 241 362 c 256,40,41
 206 362 206 362 175 349 c 128,-1,42
 144 336 144 336 121.5 313.5 c 128,-1,43
 99 291 99 291 86 260 c 128,-1,44
 73 229 73 229 73 194 c 256,25,26
326 508 m 0,45,46
 326 522 326 522 335 530.5 c 128,-1,47
 344 539 344 539 356 539 c 256,48,49
 368 539 368 539 377 530.5 c 128,-1,50
 386 522 386 522 386 508 c 0,51,52
 386 495 386 495 377 486.5 c 128,-1,53
 368 478 368 478 356 478 c 256,54,55
 344 478 344 478 335 486.5 c 128,-1,56
 326 495 326 495 326 508 c 0,45,46
154 508 m 0,57,58
 154 522 154 522 163 530.5 c 128,-1,59
 172 539 172 539 184 539 c 256,60,61
 196 539 196 539 205 530.5 c 128,-1,62
 214 522 214 522 214 508 c 0,63,64
 214 495 214 495 205 486.5 c 128,-1,65
 196 478 196 478 184 478 c 256,66,67
 172 478 172 478 163 486.5 c 128,-1,68
 154 495 154 495 154 508 c 0,57,58
EndSplineSet
Validated: 1
EndChar

StartChar: edieresis
Encoding: 235 235 22
Width: 440
Flags: W
LayerCount: 3
Fore
SplineSet
382 47 m 1,0,1
 355 22 355 22 318.5 7.5 c 128,-1,2
 282 -7 282 -7 241 -7 c 0,3,4
 199 -7 199 -7 162 9 c 128,-1,5
 125 25 125 25 97.5 52 c 128,-1,6
 70 79 70 79 54.5 115.5 c 128,-1,7
 39 152 39 152 39 194 c 256,8,9
 39 236 39 236 55 273 c 128,-1,10
 71 310 71 310 98 337.5 c 128,-1,11
 125 365 125 365 161.5 381 c 128,-1,12
 198 397 198 397 240 397 c 0,13,14
 304 397 304 397 349.5 359.5 c 128,-1,15
 395 322 395 322 417 264 c 1,16,17
 381 250 381 250 339 233 c 128,-1,18
 297 216 297 216 253 198 c 128,-1,19
 209 180 209 180 166 162.5 c 128,-1,20
 123 145 123 145 85 130 c 1,21,22
 104 84 104 84 145.5 55.5 c 128,-1,23
 187 27 187 27 240 27 c 0,24,25
 274 27 274 27 304 39 c 128,-1,26
 334 51 334 51 356 72 c 1,27,-1
 382 47 l 1,0,1
373 274 m 1,28,29
 355 314 355 314 320.5 338 c 128,-1,30
 286 362 286 362 240 362 c 0,31,32
 205 362 205 362 174.5 348.5 c 128,-1,33
 144 335 144 335 121.5 312.5 c 128,-1,34
 99 290 99 290 86 259.5 c 128,-1,35
 73 229 73 229 73 195 c 0,36,37
 73 184 73 184 74.5 174 c 128,-1,38
 76 164 76 164 78 154 c 1,39,40
 112 168 112 168 150 183.5 c 128,-1,41
 188 199 188 199 226.5 214.5 c 128,-1,42
 265 230 265 230 302.5 245 c 128,-1,43
 340 260 340 260 373 274 c 1,28,29
290 508 m 0,44,45
 290 522 290 522 299 530.5 c 128,-1,46
 308 539 308 539 320 539 c 256,47,48
 332 539 332 539 341 530.5 c 128,-1,49
 350 522 350 522 350 508 c 0,50,51
 350 495 350 495 341 486.5 c 128,-1,52
 332 478 332 478 320 478 c 256,53,54
 308 478 308 478 299 486.5 c 128,-1,55
 290 495 290 495 290 508 c 0,44,45
118 508 m 0,56,57
 118 522 118 522 127 530.5 c 128,-1,58
 136 539 136 539 148 539 c 256,59,60
 160 539 160 539 169 530.5 c 128,-1,61
 178 522 178 522 178 508 c 0,62,63
 178 495 178 495 169 486.5 c 128,-1,64
 160 478 160 478 148 478 c 256,65,66
 136 478 136 478 127 486.5 c 128,-1,67
 118 495 118 495 118 508 c 0,56,57
EndSplineSet
Validated: 1
EndChar

StartChar: odieresis
Encoding: 246 246 23
Width: 485
Flags: W
LayerCount: 3
Fore
SplineSet
40 194 m 0,0,1
 40 236 40 236 56 273 c 128,-1,2
 72 310 72 310 99.5 337.5 c 128,-1,3
 127 365 127 365 164 381 c 128,-1,4
 201 397 201 397 243 397 c 256,5,6
 285 397 285 397 322 381 c 128,-1,7
 359 365 359 365 386.5 337.5 c 128,-1,8
 414 310 414 310 430 273 c 128,-1,9
 446 236 446 236 446 194 c 256,10,11
 446 152 446 152 430 115.5 c 128,-1,12
 414 79 414 79 386.5 52 c 128,-1,13
 359 25 359 25 322 9 c 128,-1,14
 285 -7 285 -7 242 -7 c 0,15,16
 200 -7 200 -7 163 8.5 c 128,-1,17
 126 24 126 24 99 51 c 128,-1,18
 72 78 72 78 56 114.5 c 128,-1,19
 40 151 40 151 40 194 c 0,0,1
75 194 m 256,20,21
 75 159 75 159 88 128.5 c 128,-1,22
 101 98 101 98 123.5 75.5 c 128,-1,23
 146 53 146 53 176.5 40 c 128,-1,24
 207 27 207 27 242 27 c 256,25,26
 277 27 277 27 307.5 40 c 128,-1,27
 338 53 338 53 361 75.5 c 128,-1,28
 384 98 384 98 397 128.5 c 128,-1,29
 410 159 410 159 410 194 c 256,30,31
 410 229 410 229 397 259.5 c 128,-1,32
 384 290 384 290 361 313 c 128,-1,33
 338 336 338 336 307.5 349 c 128,-1,34
 277 362 277 362 242 362 c 256,35,36
 207 362 207 362 176.5 349 c 128,-1,37
 146 336 146 336 123.5 313 c 128,-1,38
 101 290 101 290 88 259.5 c 128,-1,39
 75 229 75 229 75 194 c 256,20,21
305 508 m 0,40,41
 305 522 305 522 314 530.5 c 128,-1,42
 323 539 323 539 335 539 c 256,43,44
 347 539 347 539 356 530.5 c 128,-1,45
 365 522 365 522 365 508 c 0,46,47
 365 495 365 495 356 486.5 c 128,-1,48
 347 478 347 478 335 478 c 256,49,50
 323 478 323 478 314 486.5 c 128,-1,51
 305 495 305 495 305 508 c 0,40,41
133 508 m 0,52,53
 133 522 133 522 142 530.5 c 128,-1,54
 151 539 151 539 163 539 c 256,55,56
 175 539 175 539 184 530.5 c 128,-1,57
 193 522 193 522 193 508 c 0,58,59
 193 495 193 495 184 486.5 c 128,-1,60
 175 478 175 478 163 478 c 256,61,62
 151 478 151 478 142 486.5 c 128,-1,63
 133 495 133 495 133 508 c 0,52,53
EndSplineSet
Validated: 1
EndChar

StartChar: udieresis
Encoding: 252 252 24
Width: 457
Flags: W
LayerCount: 3
Fore
SplineSet
387 -3 m 1,0,-1
 359 -3 l 1,1,-1
 356 101 l 1,2,3
 335 52 335 52 291 22 c 128,-1,4
 247 -8 247 -8 189 -8 c 0,5,6
 133 -8 133 -8 100.5 24.5 c 128,-1,7
 68 57 68 57 66 108 c 2,8,-1
 66 387 l 1,9,-1
 100 387 l 1,10,-1
 100 114 l 2,11,12
 102 79 102 79 125.5 54 c 128,-1,13
 149 29 149 29 193 26 c 0,14,15
 226 26 226 26 254.5 37 c 128,-1,16
 283 48 283 48 305 67 c 128,-1,17
 327 86 327 86 339.5 112.5 c 128,-1,18
 352 139 352 139 352 171 c 2,19,-1
 352 387 l 1,20,-1
 387 387 l 1,21,-1
 387 -3 l 1,0,-1
317 508 m 0,22,23
 317 522 317 522 326 530.5 c 128,-1,24
 335 539 335 539 347 539 c 256,25,26
 359 539 359 539 368 530.5 c 128,-1,27
 377 522 377 522 377 508 c 0,28,29
 377 495 377 495 368 486.5 c 128,-1,30
 359 478 359 478 347 478 c 256,31,32
 335 478 335 478 326 486.5 c 128,-1,33
 317 495 317 495 317 508 c 0,22,23
145 508 m 0,34,35
 145 522 145 522 154 530.5 c 128,-1,36
 163 539 163 539 175 539 c 256,37,38
 187 539 187 539 196 530.5 c 128,-1,39
 205 522 205 522 205 508 c 0,40,41
 205 495 205 495 196 486.5 c 128,-1,42
 187 478 187 478 175 478 c 256,43,44
 163 478 163 478 154 486.5 c 128,-1,45
 145 495 145 495 145 508 c 0,34,35
EndSplineSet
Validated: 1
EndChar

StartChar: agrave
Encoding: 224 224 25
Width: 514
Flags: W
LayerCount: 3
Fore
SplineSet
39 193 m 0,0,1
 39 235 39 235 55 272 c 128,-1,2
 71 309 71 309 98 336.5 c 128,-1,3
 125 364 125 364 161.5 380 c 128,-1,4
 198 396 198 396 240 396 c 0,5,6
 270 396 270 396 297 387.5 c 128,-1,7
 324 379 324 379 346 364 c 128,-1,8
 368 349 368 349 384.5 329.5 c 128,-1,9
 401 310 401 310 410 288 c 1,10,11
 410 313 410 313 411 338 c 128,-1,12
 412 363 412 363 414 387 c 1,13,-1
 444 387 l 1,14,-1
 444 0 l 1,15,-1
 410 0 l 1,16,-1
 410 99 l 1,17,18
 393 55 393 55 348 24 c 128,-1,19
 303 -7 303 -7 240 -7 c 0,20,21
 197 -7 197 -7 160.5 9 c 128,-1,22
 124 25 124 25 97 52 c 128,-1,23
 70 79 70 79 54.5 115.5 c 128,-1,24
 39 152 39 152 39 193 c 0,0,1
73 194 m 256,25,26
 73 159 73 159 86 128.5 c 128,-1,27
 99 98 99 98 121.5 75.5 c 128,-1,28
 144 53 144 53 175 40 c 128,-1,29
 206 27 206 27 241 27 c 256,30,31
 276 27 276 27 307 40 c 128,-1,32
 338 53 338 53 361 75.5 c 128,-1,33
 384 98 384 98 397 128.5 c 128,-1,34
 410 159 410 159 410 194 c 256,35,36
 410 229 410 229 397 260 c 128,-1,37
 384 291 384 291 361 313.5 c 128,-1,38
 338 336 338 336 307 349 c 128,-1,39
 276 362 276 362 241 362 c 256,40,41
 206 362 206 362 175 349 c 128,-1,42
 144 336 144 336 121.5 313.5 c 128,-1,43
 99 291 99 291 86 260 c 128,-1,44
 73 229 73 229 73 194 c 256,25,26
183 614 m 1,45,-1
 273 481 l 1,46,-1
 244 481 l 1,47,-1
 145 614 l 1,48,-1
 183 614 l 1,45,-1
EndSplineSet
Validated: 1
EndChar

StartChar: egrave
Encoding: 232 232 26
Width: 440
Flags: W
LayerCount: 3
Fore
SplineSet
382 47 m 1,0,1
 355 22 355 22 318.5 7.5 c 128,-1,2
 282 -7 282 -7 241 -7 c 0,3,4
 199 -7 199 -7 162 9 c 128,-1,5
 125 25 125 25 97.5 52 c 128,-1,6
 70 79 70 79 54.5 115.5 c 128,-1,7
 39 152 39 152 39 194 c 256,8,9
 39 236 39 236 55 273 c 128,-1,10
 71 310 71 310 98 337.5 c 128,-1,11
 125 365 125 365 161.5 381 c 128,-1,12
 198 397 198 397 240 397 c 0,13,14
 304 397 304 397 349.5 359.5 c 128,-1,15
 395 322 395 322 417 264 c 1,16,17
 381 250 381 250 339 233 c 128,-1,18
 297 216 297 216 253 198 c 128,-1,19
 209 180 209 180 166 162.5 c 128,-1,20
 123 145 123 145 85 130 c 1,21,22
 104 84 104 84 145.5 55.5 c 128,-1,23
 187 27 187 27 240 27 c 0,24,25
 274 27 274 27 304 39 c 128,-1,26
 334 51 334 51 356 72 c 1,27,-1
 382 47 l 1,0,1
373 274 m 1,28,29
 355 314 355 314 320.5 338 c 128,-1,30
 286 362 286 362 240 362 c 0,31,32
 205 362 205 362 174.5 348.5 c 128,-1,33
 144 335 144 335 121.5 312.5 c 128,-1,34
 99 290 99 290 86 259.5 c 128,-1,35
 73 229 73 229 73 195 c 0,36,37
 73 184 73 184 74.5 174 c 128,-1,38
 76 164 76 164 78 154 c 1,39,40
 112 168 112 168 150 183.5 c 128,-1,41
 188 199 188 199 226.5 214.5 c 128,-1,42
 265 230 265 230 302.5 245 c 128,-1,43
 340 260 340 260 373 274 c 1,28,29
153 614 m 1,44,-1
 243 481 l 1,45,-1
 214 481 l 1,46,-1
 115 614 l 1,47,-1
 153 614 l 1,44,-1
EndSplineSet
Validated: 1
EndChar

StartChar: igrave
Encoding: 236 236 27
Width: 174
Flags: W
LayerCount: 3
Fore
SplineSet
104 0 m 1,0,-1
 70 0 l 1,1,-1
 70 387 l 1,2,-1
 104 387 l 1,3,-1
 104 0 l 1,0,-1
22 614 m 1,4,-1
 112 481 l 1,5,-1
 83 481 l 1,6,-1
 -16 614 l 1,7,-1
 22 614 l 1,4,-1
EndSplineSet
Validated: 1
EndChar

StartChar: ograve
Encoding: 242 242 28
Width: 485
Flags: W
LayerCount: 3
Fore
SplineSet
40 194 m 0,0,1
 40 236 40 236 56 273 c 128,-1,2
 72 310 72 310 99.5 337.5 c 128,-1,3
 127 365 127 365 164 381 c 128,-1,4
 201 397 201 397 243 397 c 256,5,6
 285 397 285 397 322 381 c 128,-1,7
 359 365 359 365 386.5 337.5 c 128,-1,8
 414 310 414 310 430 273 c 128,-1,9
 446 236 446 236 446 194 c 256,10,11
 446 152 446 152 430 115.5 c 128,-1,12
 414 79 414 79 386.5 52 c 128,-1,13
 359 25 359 25 322 9 c 128,-1,14
 285 -7 285 -7 242 -7 c 0,15,16
 200 -7 200 -7 163 8.5 c 128,-1,17
 126 24 126 24 99 51 c 128,-1,18
 72 78 72 78 56 114.5 c 128,-1,19
 40 151 40 151 40 194 c 0,0,1
75 194 m 256,20,21
 75 159 75 159 88 128.5 c 128,-1,22
 101 98 101 98 123.5 75.5 c 128,-1,23
 146 53 146 53 176.5 40 c 128,-1,24
 207 27 207 27 242 27 c 256,25,26
 277 27 277 27 307.5 40 c 128,-1,27
 338 53 338 53 361 75.5 c 128,-1,28
 384 98 384 98 397 128.5 c 128,-1,29
 410 159 410 159 410 194 c 256,30,31
 410 229 410 229 397 259.5 c 128,-1,32
 384 290 384 290 361 313 c 128,-1,33
 338 336 338 336 307.5 349 c 128,-1,34
 277 362 277 362 242 362 c 256,35,36
 207 362 207 362 176.5 349 c 128,-1,37
 146 336 146 336 123.5 313 c 128,-1,38
 101 290 101 290 88 259.5 c 128,-1,39
 75 229 75 229 75 194 c 256,20,21
157 614 m 1,40,-1
 247 481 l 1,41,-1
 218 481 l 1,42,-1
 119 614 l 1,43,-1
 157 614 l 1,40,-1
EndSplineSet
Validated: 1
EndChar

StartChar: ugrave
Encoding: 249 249 29
Width: 457
Flags: W
LayerCount: 3
Fore
SplineSet
387 -3 m 1,0,-1
 359 -3 l 1,1,-1
 356 101 l 1,2,3
 335 52 335 52 291 22 c 128,-1,4
 247 -8 247 -8 189 -8 c 0,5,6
 133 -8 133 -8 100.5 24.5 c 128,-1,7
 68 57 68 57 66 108 c 2,8,-1
 66 387 l 1,9,-1
 100 387 l 1,10,-1
 100 114 l 2,11,12
 102 79 102 79 125.5 54 c 128,-1,13
 149 29 149 29 193 26 c 0,14,15
 226 26 226 26 254.5 37 c 128,-1,16
 283 48 283 48 305 67 c 128,-1,17
 327 86 327 86 339.5 112.5 c 128,-1,18
 352 139 352 139 352 171 c 2,19,-1
 352 387 l 1,20,-1
 387 387 l 1,21,-1
 387 -3 l 1,0,-1
200 614 m 1,22,-1
 290 481 l 1,23,-1
 261 481 l 1,24,-1
 162 614 l 1,25,-1
 200 614 l 1,22,-1
EndSplineSet
Validated: 1
EndChar

StartChar: comma
Encoding: 44 44 30
Width: 225
Flags: W
LayerCount: 3
Fore
SplineSet
147 86 m 1,0,-1
 61 -120 l 1,1,-1
 27 -120 l 1,2,3
 47 -68 47 -68 66 -17 c 128,-1,4
 85 34 85 34 105 86 c 1,5,-1
 147 86 l 1,0,-1
EndSplineSet
Validated: 1
EndChar

StartChar: period
Encoding: 46 46 31
Width: 192
Flags: W
LayerCount: 3
Fore
SplineSet
66 30 m 256,0,1
 66 43 66 43 75 52 c 128,-1,2
 84 61 84 61 96 61 c 256,3,4
 108 61 108 61 117 52 c 128,-1,5
 126 43 126 43 126 30 c 256,6,7
 126 17 126 17 117 8.5 c 128,-1,8
 108 0 108 0 96 0 c 256,9,10
 84 0 84 0 75 8.5 c 128,-1,11
 66 17 66 17 66 30 c 256,0,1
EndSplineSet
Validated: 1
EndChar

StartChar: f
Encoding: 102 102 32
Width: 264
Flags: W
LayerCount: 3
Fore
SplineSet
26 351 m 1,0,-1
 26 385 l 1,1,-1
 92 385 l 1,2,-1
 92 517 l 2,3,4
 92 575 92 575 107 619.5 c 128,-1,5
 122 664 122 664 149 694.5 c 128,-1,6
 176 725 176 725 212.5 740.5 c 128,-1,7
 249 756 249 756 292 758 c 1,8,-1
 292 724 l 1,9,10
 256 724 256 724 226 709.5 c 128,-1,11
 196 695 196 695 174 668.5 c 128,-1,12
 152 642 152 642 139.5 604.5 c 128,-1,13
 127 567 127 567 127 520 c 2,14,-1
 127 385 l 1,15,-1
 257 385 l 1,16,-1
 257 351 l 1,17,-1
 127 351 l 1,18,-1
 127 0 l 1,19,-1
 92 0 l 1,20,-1
 92 351 l 1,21,-1
 26 351 l 1,0,-1
EndSplineSet
Validated: 1
EndChar

StartChar: aring
Encoding: 229 229 33
Width: 514
Flags: W
LayerCount: 3
Fore
SplineSet
39 193 m 0,0,1
 39 235 39 235 55 272 c 128,-1,2
 71 309 71 309 98 336.5 c 128,-1,3
 125 364 125 364 161.5 380 c 128,-1,4
 198 396 198 396 240 396 c 0,5,6
 270 396 270 396 297 387.5 c 128,-1,7
 324 379 324 379 346 364 c 128,-1,8
 368 349 368 349 384.5 329.5 c 128,-1,9
 401 310 401 310 410 288 c 1,10,11
 410 313 410 313 411 338 c 128,-1,12
 412 363 412 363 414 387 c 1,13,-1
 444 387 l 1,14,-1
 444 0 l 1,15,-1
 410 0 l 1,16,-1
 410 99 l 1,17,18
 393 55 393 55 348 24 c 128,-1,19
 303 -7 303 -7 240 -7 c 0,20,21
 197 -7 197 -7 160.5 9 c 128,-1,22
 124 25 124 25 97 52 c 128,-1,23
 70 79 70 79 54.5 115.5 c 128,-1,24
 39 152 39 152 39 193 c 0,0,1
73 194 m 256,25,26
 73 159 73 159 86 128.5 c 128,-1,27
 99 98 99 98 121.5 75.5 c 128,-1,28
 144 53 144 53 175 40 c 128,-1,29
 206 27 206 27 241 27 c 256,30,31
 276 27 276 27 307 40 c 128,-1,32
 338 53 338 53 361 75.5 c 128,-1,33
 384 98 384 98 397 128.5 c 128,-1,34
 410 159 410 159 410 194 c 256,35,36
 410 229 410 229 397 260 c 128,-1,37
 384 291 384 291 361 313.5 c 128,-1,38
 338 336 338 336 307 349 c 128,-1,39
 276 362 276 362 241 362 c 256,40,41
 206 362 206 362 175 349 c 128,-1,42
 144 336 144 336 121.5 313.5 c 128,-1,43
 99 291 99 291 86 260 c 128,-1,44
 73 229 73 229 73 194 c 256,25,26
178 490 m 256,45,46
 178 519 178 519 198.5 539.5 c 128,-1,47
 219 560 219 560 248 560 c 256,48,49
 277 560 277 560 297 539.5 c 128,-1,50
 317 519 317 519 317 490 c 256,51,52
 317 461 317 461 297 441 c 128,-1,53
 277 421 277 421 248 421 c 256,54,55
 219 421 219 421 198.5 441 c 128,-1,56
 178 461 178 461 178 490 c 256,45,46
203 490 m 256,57,58
 203 472 203 472 216 458.5 c 128,-1,59
 229 445 229 445 248 445 c 0,60,61
 266 445 266 445 279.5 458.5 c 128,-1,62
 293 472 293 472 293 490 c 256,63,64
 293 508 293 508 279.5 521.5 c 128,-1,65
 266 535 266 535 248 535 c 0,66,67
 229 535 229 535 216 521.5 c 128,-1,68
 203 508 203 508 203 490 c 256,57,58
EndSplineSet
Validated: 1
EndChar

StartChar: v
Encoding: 118 118 34
Width: 408
Flags: W
LayerCount: 3
Fore
SplineSet
204 -24 m 1,0,1
 178 28 178 28 154.5 79.5 c 128,-1,2
 131 131 131 131 108.5 182 c 128,-1,3
 86 233 86 233 63 284.5 c 128,-1,4
 40 336 40 336 14 387 c 1,5,-1
 51 387 l 1,6,7
 78 334 78 334 98 288.5 c 128,-1,8
 118 243 118 243 135.5 202 c 128,-1,9
 153 161 153 161 169.5 122 c 128,-1,10
 186 83 186 83 204 44 c 1,11,12
 222 83 222 83 238 121.5 c 128,-1,13
 254 160 254 160 271.5 201.5 c 128,-1,14
 289 243 289 243 309 288.5 c 128,-1,15
 329 334 329 334 356 387 c 1,16,-1
 394 387 l 1,17,18
 342 284 342 284 299 182 c 128,-1,19
 256 80 256 80 204 -24 c 1,0,1
EndSplineSet
Validated: 1
EndChar

StartChar: j
Encoding: 106 106 35
Width: 174
Flags: W
LayerCount: 3
Fore
SplineSet
39 -186 m 1,0,-1
 13 -162 l 1,1,2
 39 -135 39 -135 54.5 -96.5 c 128,-1,3
 70 -58 70 -58 70 -7 c 2,4,-1
 70 387 l 1,5,-1
 104 387 l 1,6,-1
 104 -5 l 2,7,8
 104 -65 104 -65 86.5 -110.5 c 128,-1,9
 69 -156 69 -156 39 -186 c 1,0,-1
58 522 m 256,10,11
 58 535 58 535 67 544 c 128,-1,12
 76 553 76 553 88 553 c 256,13,14
 100 553 100 553 109 544 c 128,-1,15
 118 535 118 535 118 522 c 256,16,17
 118 509 118 509 109 500.5 c 128,-1,18
 100 492 100 492 88 492 c 256,19,20
 76 492 76 492 67 500.5 c 128,-1,21
 58 509 58 509 58 522 c 256,10,11
EndSplineSet
Validated: 1
EndChar

StartChar: s
Encoding: 115 115 36
Width: 318
Flags: W
LayerCount: 3
Fore
SplineSet
265 349 m 1,0,-1
 245 325 l 1,1,2
 233 340 233 340 208 349.5 c 128,-1,3
 183 359 183 359 161 359 c 0,4,5
 149 359 149 359 135.5 355.5 c 128,-1,6
 122 352 122 352 111 344 c 128,-1,7
 100 336 100 336 92.5 323.5 c 128,-1,8
 85 311 85 311 85 293 c 0,9,10
 85 268 85 268 99.5 253 c 128,-1,11
 114 238 114 238 135.5 227.5 c 128,-1,12
 157 217 157 217 182.5 208.5 c 128,-1,13
 208 200 208 200 229.5 188 c 128,-1,14
 251 176 251 176 265.5 156.5 c 128,-1,15
 280 137 280 137 280 106 c 0,16,17
 280 83 280 83 272 62.5 c 128,-1,18
 264 42 264 42 248 26 c 128,-1,19
 232 10 232 10 209.5 1 c 128,-1,20
 187 -8 187 -8 157 -8 c 0,21,22
 126 -8 126 -8 92 3 c 128,-1,23
 58 14 58 14 36 40 c 1,24,25
 42 46 42 46 49.5 54.5 c 128,-1,26
 57 63 57 63 59 65 c 1,27,28
 64 58 64 58 75 51 c 128,-1,29
 86 44 86 44 100.5 38.5 c 128,-1,30
 115 33 115 33 130 29.5 c 128,-1,31
 145 26 145 26 158 26 c 0,32,33
 170 26 170 26 185 30 c 128,-1,34
 200 34 200 34 213.5 43 c 128,-1,35
 227 52 227 52 236.5 67 c 128,-1,36
 246 82 246 82 246 103 c 0,37,38
 246 129 246 129 231.5 144.5 c 128,-1,39
 217 160 217 160 195 170 c 128,-1,40
 173 180 173 180 148 188 c 128,-1,41
 123 196 123 196 101 208.5 c 128,-1,42
 79 221 79 221 64.5 240.5 c 128,-1,43
 50 260 50 260 50 292 c 0,44,45
 50 318 50 318 60 337 c 128,-1,46
 70 356 70 356 85.5 368.5 c 128,-1,47
 101 381 101 381 120.5 387 c 128,-1,48
 140 393 140 393 160 393 c 0,49,50
 184 393 184 393 213.5 383 c 128,-1,51
 243 373 243 373 265 349 c 1,0,-1
EndSplineSet
Validated: 1
EndChar

StartChar: k
Encoding: 107 107 37
Width: 384
Flags: W
LayerCount: 3
Fore
SplineSet
324 397 m 1,0,-1
 345 375 l 1,1,-1
 199 237 l 1,2,3
 243 177 243 177 286 118.5 c 128,-1,4
 329 60 329 60 372 0 c 1,5,-1
 331 0 l 1,6,7
 292 54 292 54 252.5 107 c 128,-1,8
 213 160 213 160 174 214 c 1,9,-1
 104 148 l 1,10,-1
 104 0 l 1,11,-1
 70 0 l 1,12,-1
 70 758 l 1,13,-1
 104 758 l 1,14,-1
 104 192 l 1,15,16
 161 245 161 245 214 294.5 c 128,-1,17
 267 344 267 344 324 397 c 1,0,-1
EndSplineSet
Validated: 1
EndChar

StartChar: y
Encoding: 121 121 38
Width: 419
Flags: W
LayerCount: 3
Fore
SplineSet
145 -186 m 1,0,-1
 107 -186 l 1,1,2
 119 -161 119 -161 128 -139.5 c 128,-1,3
 137 -118 137 -118 145.5 -96 c 128,-1,4
 154 -74 154 -74 164 -49.5 c 128,-1,5
 174 -25 174 -25 188 8 c 1,6,7
 142 101 142 101 102 197 c 128,-1,8
 62 293 62 293 15 387 c 1,9,-1
 52 387 l 1,10,11
 79 334 79 334 100 287.5 c 128,-1,12
 121 241 121 241 139 198 c 128,-1,13
 157 155 157 155 174 115 c 128,-1,14
 191 75 191 75 209 36 c 1,15,16
 227 75 227 75 244 115 c 128,-1,17
 261 155 261 155 279 197.5 c 128,-1,18
 297 240 297 240 317.5 287 c 128,-1,19
 338 334 338 334 365 387 c 1,20,-1
 403 387 l 1,21,-1
 145 -186 l 1,0,-1
EndSplineSet
Validated: 1
EndChar

StartChar: oslash
Encoding: 248 248 39
Width: 484
Flags: W
LayerCount: 3
Fore
SplineSet
37 194 m 256,0,1
 37 236 37 236 53 273 c 128,-1,2
 69 310 69 310 96.5 337.5 c 128,-1,3
 124 365 124 365 161 381 c 128,-1,4
 198 397 198 397 240 397 c 0,5,6
 305 397 305 397 355 361 c 1,7,-1
 384 395 l 1,8,-1
 403 378 l 1,9,-1
 375 345 l 1,10,11
 407 317 407 317 425 278 c 128,-1,12
 443 239 443 239 443 194 c 0,13,14
 443 152 443 152 427 115.5 c 128,-1,15
 411 79 411 79 383.5 52 c 128,-1,16
 356 25 356 25 319 9 c 128,-1,17
 282 -7 282 -7 239 -7 c 0,18,19
 203 -7 203 -7 170.5 4.5 c 128,-1,20
 138 16 138 16 112 36 c 1,21,-1
 75 -7 l 1,22,-1
 58 11 l 1,23,-1
 94 53 l 1,24,25
 67 80 67 80 52 116 c 128,-1,26
 37 152 37 152 37 194 c 256,0,1
135 63 m 1,27,28
 179 27 179 27 239 27 c 0,29,30
 274 27 274 27 304.5 40 c 128,-1,31
 335 53 335 53 358 75.5 c 128,-1,32
 381 98 381 98 394 128.5 c 128,-1,33
 407 159 407 159 407 194 c 0,34,35
 407 231 407 231 392.5 263 c 128,-1,36
 378 295 378 295 352 318 c 1,37,38
 329 290 329 290 301 257.5 c 128,-1,39
 273 225 273 225 244.5 191 c 128,-1,40
 216 157 216 157 187.5 124 c 128,-1,41
 159 91 159 91 135 63 c 1,27,28
72 194 m 0,42,43
 72 161 72 161 83.5 131.5 c 128,-1,44
 95 102 95 102 116 80 c 1,45,46
 140 108 140 108 168 141 c 128,-1,47
 196 174 196 174 224.5 207.5 c 128,-1,48
 253 241 253 241 281 273.5 c 128,-1,49
 309 306 309 306 332 334 c 1,50,51
 292 362 292 362 239 362 c 0,52,53
 204 362 204 362 173.5 349 c 128,-1,54
 143 336 143 336 120.5 313 c 128,-1,55
 98 290 98 290 85 259.5 c 128,-1,56
 72 229 72 229 72 194 c 0,42,43
EndSplineSet
Validated: 1
EndChar

StartChar: w
Encoding: 119 119 40
Width: 633
Flags: W
LayerCount: 3
Fore
SplineSet
296 290 m 1,0,-1
 253 387 l 1,1,-1
 284 387 l 1,2,3
 330 285 330 285 366.5 202 c 128,-1,4
 403 119 403 119 435 44 c 1,5,6
 451 85 451 85 468.5 125 c 128,-1,7
 486 165 486 165 504 206.5 c 128,-1,8
 522 248 522 248 542 292.5 c 128,-1,9
 562 337 562 337 584 387 c 1,10,-1
 619 387 l 1,11,12
 572 284 572 284 526 180.5 c 128,-1,13
 480 77 480 77 435 -24 c 1,14,15
 403 47 403 47 374 116 c 128,-1,16
 345 185 345 185 313 256 c 1,17,-1
 197 -24 l 1,18,-1
 16 387 l 1,19,-1
 51 387 l 1,20,21
 73 337 73 337 92.5 292.5 c 128,-1,22
 112 248 112 248 129.5 206.5 c 128,-1,23
 147 165 147 165 163.5 125 c 128,-1,24
 180 85 180 85 197 44 c 1,25,26
 218 97 218 97 241 155 c 128,-1,27
 264 213 264 213 296 290 c 1,0,-1
EndSplineSet
Validated: 1
EndChar

StartChar: x
Encoding: 120 120 41
Width: 370
Flags: W
LayerCount: 3
Fore
SplineSet
163 197 m 1,0,1
 128 245 128 245 93 292 c 128,-1,2
 58 339 58 339 24 387 c 1,3,-1
 66 387 l 1,4,5
 97 344 97 344 126 305 c 128,-1,6
 155 266 155 266 185 223 c 1,7,8
 215 266 215 266 244 305 c 128,-1,9
 273 344 273 344 303 387 c 1,10,-1
 342 387 l 1,11,12
 307 336 307 336 273.5 291 c 128,-1,13
 240 246 240 246 205 195 c 1,14,15
 240 147 240 147 277 97.5 c 128,-1,16
 314 48 314 48 348 0 c 1,17,-1
 306 0 l 1,18,19
 275 42 275 42 244.5 83 c 128,-1,20
 214 124 214 124 182 166 c 1,21,22
 153 124 153 124 123.5 83 c 128,-1,23
 94 42 94 42 64 0 c 1,24,-1
 24 0 l 1,25,-1
 163 197 l 1,0,1
EndSplineSet
Validated: 1
EndChar

StartChar: z
Encoding: 122 122 42
Width: 372
Flags: W
LayerCount: 3
Fore
SplineSet
340 0 m 1,0,-1
 28 0 l 1,1,-1
 282 356 l 1,2,-1
 28 356 l 1,3,-1
 28 387 l 1,4,-1
 344 387 l 5,5,-1
 92 34 l 1,6,-1
 340 34 l 1,7,-1
 340 0 l 1,0,-1
EndSplineSet
EndChar

StartChar: o
Encoding: 111 111 43
Width: 485
Flags: W
LayerCount: 3
Fore
SplineSet
40 194 m 0,0,1
 40 236 40 236 56 273 c 128,-1,2
 72 310 72 310 99.5 337.5 c 128,-1,3
 127 365 127 365 164 381 c 128,-1,4
 201 397 201 397 243 397 c 256,5,6
 285 397 285 397 322 381 c 128,-1,7
 359 365 359 365 386.5 337.5 c 128,-1,8
 414 310 414 310 430 273 c 128,-1,9
 446 236 446 236 446 194 c 256,10,11
 446 152 446 152 430 115.5 c 128,-1,12
 414 79 414 79 386.5 52 c 128,-1,13
 359 25 359 25 322 9 c 128,-1,14
 285 -7 285 -7 242 -7 c 0,15,16
 200 -7 200 -7 163 8.5 c 128,-1,17
 126 24 126 24 99 51 c 128,-1,18
 72 78 72 78 56 114.5 c 128,-1,19
 40 151 40 151 40 194 c 0,0,1
75 194 m 256,20,21
 75 159 75 159 88 128.5 c 128,-1,22
 101 98 101 98 123.5 75.5 c 128,-1,23
 146 53 146 53 176.5 40 c 128,-1,24
 207 27 207 27 242 27 c 256,25,26
 277 27 277 27 307.5 40 c 128,-1,27
 338 53 338 53 361 75.5 c 128,-1,28
 384 98 384 98 397 128.5 c 128,-1,29
 410 159 410 159 410 194 c 256,30,31
 410 229 410 229 397 259.5 c 128,-1,32
 384 290 384 290 361 313 c 128,-1,33
 338 336 338 336 307.5 349 c 128,-1,34
 277 362 277 362 242 362 c 256,35,36
 207 362 207 362 176.5 349 c 128,-1,37
 146 336 146 336 123.5 313 c 128,-1,38
 101 290 101 290 88 259.5 c 128,-1,39
 75 229 75 229 75 194 c 256,20,21
EndSplineSet
Validated: 1
EndChar

StartChar: ae
Encoding: 230 230 44
Width: 640
Flags: W
LayerCount: 3
Fore
SplineSet
341 86 m 1,0,1
 339 80 339 80 337 74.5 c 128,-1,2
 335 69 335 69 333 64 c 1,3,4
 355 47 355 47 382 37 c 128,-1,5
 409 27 409 27 439 27 c 0,6,7
 473 27 473 27 503 39 c 128,-1,8
 533 51 533 51 555 72 c 1,9,-1
 581 47 l 1,10,11
 554 22 554 22 517.5 7.5 c 128,-1,12
 481 -7 481 -7 440 -7 c 0,13,14
 403 -7 403 -7 371 4.5 c 128,-1,15
 339 16 339 16 313 37 c 1,16,17
 290 14 290 14 255.5 3 c 128,-1,18
 221 -8 221 -8 180 -8 c 0,19,20
 145 -8 145 -8 118.5 1.5 c 128,-1,21
 92 11 92 11 74 27 c 128,-1,22
 56 43 56 43 46.5 63.5 c 128,-1,23
 37 84 37 84 37 107 c 0,24,25
 37 132 37 132 48.5 150.5 c 128,-1,26
 60 169 60 169 78 181.5 c 128,-1,27
 96 194 96 194 118 200 c 128,-1,28
 140 206 140 206 161 206 c 2,29,-1
 238 206 l 1,30,31
 240 241 240 241 253.5 273 c 128,-1,32
 267 305 267 305 290 330 c 1,33,34
 276 345 276 345 251.5 353 c 128,-1,35
 227 361 227 361 189 361 c 0,36,37
 143 361 143 361 115.5 351 c 128,-1,38
 88 341 88 341 67 327 c 1,39,-1
 51 356 l 1,40,41
 75 373 75 373 111.5 384.5 c 128,-1,42
 148 396 148 396 196 396 c 0,43,44
 240 396 240 396 269.5 385 c 128,-1,45
 299 374 299 374 316 354 c 1,46,47
 342 374 342 374 373 385.5 c 128,-1,48
 404 397 404 397 439 397 c 0,49,50
 503 397 503 397 548.5 359.5 c 128,-1,51
 594 322 594 322 616 264 c 1,52,53
 580 250 580 250 538 233 c 128,-1,54
 496 216 496 216 452 198 c 128,-1,55
 408 180 408 180 365 162.5 c 128,-1,56
 322 145 322 145 284 130 c 1,57,58
 293 107 293 107 308 89 c 1,59,60
 310 94 310 94 312 104 c 1,61,-1
 341 86 l 1,0,1
572 274 m 1,62,63
 554 314 554 314 519.5 338 c 128,-1,64
 485 362 485 362 439 362 c 0,65,66
 404 362 404 362 373.5 348.5 c 128,-1,67
 343 335 343 335 320.5 312.5 c 128,-1,68
 298 290 298 290 285 259.5 c 128,-1,69
 272 229 272 229 272 195 c 0,70,71
 272 184 272 184 273.5 174 c 128,-1,72
 275 164 275 164 277 154 c 1,73,74
 311 168 311 168 349 183.5 c 128,-1,75
 387 199 387 199 425.5 214.5 c 128,-1,76
 464 230 464 230 501.5 245 c 128,-1,77
 539 260 539 260 572 274 c 1,62,63
72 110 m 0,78,79
 72 86 72 86 82 70.5 c 128,-1,80
 92 55 92 55 108.5 45 c 128,-1,81
 125 35 125 35 145.5 31 c 128,-1,82
 166 27 166 27 187 27 c 0,83,84
 221 27 221 27 246.5 36 c 128,-1,85
 272 45 272 45 288 60 c 1,86,87
 267 83 267 83 254 112.5 c 128,-1,88
 241 142 241 142 238 176 c 1,89,-1
 187 176 l 2,90,91
 153 176 153 176 130.5 170 c 128,-1,92
 108 164 108 164 95 154.5 c 128,-1,93
 82 145 82 145 77 133.5 c 128,-1,94
 72 122 72 122 72 110 c 0,78,79
EndSplineSet
Validated: 1
EndChar

StartChar: A
Encoding: 65 65 45
Width: 640
Flags: W
LayerCount: 3
Fore
SplineSet
253 480.5 m 0,0,1
 283 557 283 557 311 623 c 0,2,3
 313 628 313 628 316 636 c 128,-1,4
 319 644 319 644 321 652 c 1,5,-1
 330 623 l 1,6,7
 357 557 357 557 387.5 480.5 c 2,8,-1
 522.5 136 l 2,9,10
 552 63 552 63 578 0 c 1,11,-1
 620 0 l 1,12,13
 599 49 599 49 574.5 109 c 128,-1,14
 550 169 550 169 523.5 235 c 128,-1,15
 497 301 497 301 470 369.5 c 128,-1,16
 443 438 443 438 416.5 504 c 128,-1,17
 390 570 390 570 365.5 630.5 c 128,-1,18
 341 691 341 691 321 740 c 1,19,20
 300 691 300 691 275.5 630.5 c 128,-1,21
 251 570 251 570 224.5 504 c 128,-1,22
 198 438 198 438 171 369.5 c 128,-1,23
 144 301 144 301 117.5 235 c 128,-1,24
 91 169 91 169 66.5 109 c 128,-1,25
 42 49 42 49 21 0 c 1,26,-1
 63 0 l 1,27,28
 89 63 89 63 118 136 c 0,29,-1
 253 480.5 l 0,0,1
EndSplineSet
EndChar

StartChar: idieresis
Encoding: 239 239 46
Width: 174
Flags: W
LayerCount: 3
Fore
SplineSet
104 0 m 1,0,-1
 70 0 l 1,1,-1
 70 387 l 1,2,-1
 104 387 l 1,3,-1
 104 0 l 1,0,-1
145 508 m 0,4,5
 145 522 145 522 154 530.5 c 128,-1,6
 163 539 163 539 175 539 c 256,7,8
 187 539 187 539 196 530.5 c 128,-1,9
 205 522 205 522 205 508 c 0,10,11
 205 495 205 495 196 486.5 c 128,-1,12
 187 478 187 478 175 478 c 256,13,14
 163 478 163 478 154 486.5 c 128,-1,15
 145 495 145 495 145 508 c 0,4,5
-27 508 m 0,16,17
 -27 522 -27 522 -18 530.5 c 128,-1,18
 -9 539 -9 539 3 539 c 256,19,20
 15 539 15 539 24 530.5 c 128,-1,21
 33 522 33 522 33 508 c 0,22,23
 33 495 33 495 24 486.5 c 128,-1,24
 15 478 15 478 3 478 c 256,25,26
 -9 478 -9 478 -18 486.5 c 128,-1,27
 -27 495 -27 495 -27 508 c 0,16,17
EndSplineSet
Validated: 1
EndChar

StartChar: yacute
Encoding: 253 253 47
Width: 419
Flags: W
LayerCount: 3
Fore
SplineSet
145 -186 m 1,0,-1
 107 -186 l 1,1,2
 119 -161 119 -161 128 -139.5 c 128,-1,3
 137 -118 137 -118 145.5 -96 c 128,-1,4
 154 -74 154 -74 164 -49.5 c 128,-1,5
 174 -25 174 -25 188 8 c 1,6,7
 142 101 142 101 102 197 c 128,-1,8
 62 293 62 293 15 387 c 1,9,-1
 52 387 l 1,10,11
 79 334 79 334 100 287.5 c 128,-1,12
 121 241 121 241 139 198 c 128,-1,13
 157 155 157 155 174 115 c 128,-1,14
 191 75 191 75 209 36 c 1,15,16
 227 75 227 75 244 115 c 128,-1,17
 261 155 261 155 279 197.5 c 128,-1,18
 297 240 297 240 317.5 287 c 128,-1,19
 338 334 338 334 365 387 c 1,20,-1
 403 387 l 1,21,-1
 145 -186 l 1,0,-1
208 481 m 1,22,23
 231 514 231 514 253.5 547.5 c 128,-1,24
 276 581 276 581 299 614 c 1,25,-1
 337 614 l 1,26,-1
 238 481 l 1,27,-1
 208 481 l 1,22,23
EndSplineSet
Validated: 1
EndChar

StartChar: ydieresis
Encoding: 255 255 48
Width: 420
Flags: W
LayerCount: 3
Fore
SplineSet
145 -186 m 1,0,-1
 107 -186 l 1,1,2
 119 -161 119 -161 128 -139.5 c 128,-1,3
 137 -118 137 -118 145.5 -96 c 128,-1,4
 154 -74 154 -74 164 -49.5 c 128,-1,5
 174 -25 174 -25 188 8 c 1,6,7
 142 101 142 101 102 197 c 128,-1,8
 62 293 62 293 15 387 c 1,9,-1
 52 387 l 1,10,11
 79 334 79 334 100 287.5 c 128,-1,12
 121 241 121 241 139 198 c 128,-1,13
 157 155 157 155 174 115 c 128,-1,14
 191 75 191 75 209 36 c 1,15,16
 227 75 227 75 244 115 c 128,-1,17
 261 155 261 155 279 197.5 c 128,-1,18
 297 240 297 240 317.5 287 c 128,-1,19
 338 334 338 334 365 387 c 1,20,-1
 403 387 l 1,21,-1
 145 -186 l 1,0,-1
282 508 m 0,22,23
 282 522 282 522 291 530.5 c 128,-1,24
 300 539 300 539 312 539 c 256,25,26
 324 539 324 539 333 530.5 c 128,-1,27
 342 522 342 522 342 508 c 0,28,29
 342 495 342 495 333 486.5 c 128,-1,30
 324 478 324 478 312 478 c 256,31,32
 300 478 300 478 291 486.5 c 128,-1,33
 282 495 282 495 282 508 c 0,22,23
110 508 m 0,34,35
 110 522 110 522 119 530.5 c 128,-1,36
 128 539 128 539 140 539 c 256,37,38
 152 539 152 539 161 530.5 c 128,-1,39
 170 522 170 522 170 508 c 0,40,41
 170 495 170 495 161 486.5 c 128,-1,42
 152 478 152 478 140 478 c 256,43,44
 128 478 128 478 119 486.5 c 128,-1,45
 110 495 110 495 110 508 c 0,34,35
EndSplineSet
Validated: 1
EndChar

StartChar: B
Encoding: 66 66 49
Width: 573
Flags: W
LayerCount: 3
Fore
SplineSet
153 669 m 1,0,-1
 153 373 l 1,1,-1
 286 373 l 2,2,3
 358 373 358 373 395.5 416 c 128,-1,4
 433 459 433 459 433 526 c 0,5,6
 433 564 433 564 421 591 c 128,-1,7
 409 618 409 618 388 635.5 c 128,-1,8
 367 653 367 653 337.5 661 c 128,-1,9
 308 669 308 669 273 669 c 2,10,-1
 153 669 l 1,0,-1
153 337 m 1,11,-1
 153 38 l 1,12,-1
 288 38 l 2,13,14
 325 38 325 38 358 47 c 128,-1,15
 391 56 391 56 416 74.5 c 128,-1,16
 441 93 441 93 455.5 121 c 128,-1,17
 470 149 470 149 470 186 c 0,18,19
 470 226 470 226 453 254.5 c 128,-1,20
 436 283 436 283 408 301.5 c 128,-1,21
 380 320 380 320 344 328.5 c 128,-1,22
 308 337 308 337 270 337 c 2,23,-1
 153 337 l 1,11,-1
111 0 m 1,24,-1
 111 707 l 1,25,-1
 263 707 l 2,26,27
 310 707 310 707 349 697 c 128,-1,28
 388 687 388 687 415.5 665.5 c 128,-1,29
 443 644 443 644 458.5 609.5 c 128,-1,30
 474 575 474 575 474 526 c 0,31,32
 474 497 474 497 468 470.5 c 128,-1,33
 462 444 462 444 448.5 421.5 c 128,-1,34
 435 399 435 399 413 382 c 128,-1,35
 391 365 391 365 360 356 c 1,36,37
 389 350 389 350 416 336.5 c 128,-1,38
 443 323 443 323 464 302 c 128,-1,39
 485 281 485 281 497.5 251.5 c 128,-1,40
 510 222 510 222 510 184 c 0,41,42
 510 138 510 138 491.5 103.5 c 128,-1,43
 473 69 473 69 442.5 46 c 128,-1,44
 412 23 412 23 372.5 11.5 c 128,-1,45
 333 0 333 0 291 0 c 2,46,-1
 111 0 l 1,24,-1
EndSplineSet
Validated: 1
EndChar

StartChar: D
Encoding: 68 68 50
Width: 711
Flags: W
LayerCount: 3
Fore
SplineSet
111 707 m 1,0,-1
 265 707 l 2,1,2
 372 707 372 707 446 674.5 c 128,-1,3
 520 642 520 642 566.5 590.5 c 128,-1,4
 613 539 613 539 634 475.5 c 128,-1,5
 655 412 655 412 655 351 c 0,6,7
 655 270 655 270 626.5 205.5 c 128,-1,8
 598 141 598 141 549.5 95 c 128,-1,9
 501 49 501 49 436 24.5 c 128,-1,10
 371 0 371 0 299 0 c 2,11,-1
 111 0 l 1,12,-1
 111 707 l 1,0,-1
299 40 m 2,13,14
 364 40 364 40 421.5 61.5 c 128,-1,15
 479 83 479 83 521.5 123.5 c 128,-1,16
 564 164 564 164 589 222 c 128,-1,17
 614 280 614 280 614 353 c 0,18,19
 614 412 614 412 593.5 468.5 c 128,-1,20
 573 525 573 525 531.5 569 c 128,-1,21
 490 613 490 613 427 639.5 c 128,-1,22
 364 666 364 666 280 666 c 2,23,-1
 152 666 l 1,24,-1
 152 40 l 1,25,-1
 299 40 l 2,13,14
EndSplineSet
Validated: 1
EndChar

StartChar: E
Encoding: 69 69 51
Width: 611
Flags: W
LayerCount: 3
Fore
SplineSet
111 0 m 1,0,-1
 111 707 l 1,1,-1
 544 707 l 1,2,-1
 544 669 l 1,3,-1
 153 669 l 1,4,-1
 153 375 l 1,5,-1
 504 375 l 1,6,-1
 504 337 l 1,7,-1
 153 337 l 1,8,-1
 153 39 l 1,9,-1
 558 39 l 1,10,-1
 558 0 l 1,11,-1
 111 0 l 1,0,-1
EndSplineSet
Validated: 1
EndChar

StartChar: H
Encoding: 72 72 52
Width: 740
Flags: W
LayerCount: 3
Fore
SplineSet
111 0 m 1,0,-1
 111 707 l 1,1,-1
 152 707 l 1,2,-1
 152 376 l 1,3,-1
 587 376 l 1,4,-1
 587 707 l 1,5,-1
 631 707 l 1,6,-1
 628 0 l 1,7,-1
 587 0 l 1,8,-1
 587 337 l 1,9,-1
 152 337 l 1,10,-1
 152 0 l 1,11,-1
 111 0 l 1,0,-1
EndSplineSet
Validated: 1
EndChar

StartChar: I
Encoding: 73 73 53
Width: 263
Flags: W
LayerCount: 3
Fore
SplineSet
111 707 m 1,0,-1
 152 707 l 1,1,-1
 152 0 l 1,2,-1
 111 0 l 1,3,-1
 111 707 l 1,0,-1
EndSplineSet
Validated: 1
EndChar

StartChar: J
Encoding: 74 74 54
Width: 269
Flags: W
LayerCount: 3
Fore
SplineSet
-49 -144 m 1,0,-1
 -49 -105 l 1,1,2
 -13 -103 -13 -103 18 -88.5 c 128,-1,3
 49 -74 49 -74 71.5 -47 c 128,-1,4
 94 -20 94 -20 106.5 18 c 128,-1,5
 119 56 119 56 119 106 c 2,6,-1
 119 707 l 1,7,-1
 160 707 l 1,8,-1
 160 103 l 2,9,10
 160 44 160 44 144 -1.5 c 128,-1,11
 128 -47 128 -47 99.5 -78 c 128,-1,12
 71 -109 71 -109 33 -126 c 128,-1,13
 -5 -143 -5 -143 -49 -144 c 1,0,-1
EndSplineSet
Validated: 1
EndChar

StartChar: K
Encoding: 75 75 55
Width: 605
Flags: W
LayerCount: 3
Fore
SplineSet
551 0 m 1,0,1
 472 100 472 100 397 196 c 128,-1,2
 322 292 322 292 244 392 c 1,3,-1
 155 308 l 1,4,5
 155 230 155 230 155.5 154 c 128,-1,6
 156 78 156 78 156 0 c 1,7,-1
 111 0 l 1,8,-1
 111 707 l 1,9,-1
 156 707 l 1,10,-1
 156 387 l 2,11,12
 156 379 156 379 155 371.5 c 128,-1,13
 154 364 154 364 154 356 c 1,14,-1
 172 378 l 1,15,16
 258 459 258 459 342 542.5 c 128,-1,17
 426 626 426 626 512 707 c 1,18,-1
 567 707 l 1,19,-1
 275 420 l 1,20,21
 360 314 360 314 439.5 210.5 c 128,-1,22
 519 107 519 107 603 0 c 1,23,-1
 551 0 l 1,0,1
EndSplineSet
Validated: 1
EndChar

StartChar: M
Encoding: 77 77 56
Width: 895
Flags: W
LayerCount: 3
Fore
SplineSet
111 739 m 1,0,1
 148 683 148 683 193 618.5 c 128,-1,2
 238 554 238 554 283 489.5 c 128,-1,3
 328 425 328 425 370.5 364.5 c 128,-1,4
 413 304 413 304 447 256 c 1,5,6
 459 273 459 273 481 305 c 128,-1,7
 503 337 503 337 531.5 378.5 c 128,-1,8
 560 420 560 420 593 467.5 c 128,-1,9
 626 515 626 515 659.5 563 c 128,-1,10
 693 611 693 611 725 656.5 c 128,-1,11
 757 702 757 702 784 739 c 1,12,-1
 784 0 l 1,13,-1
 741 0 l 1,14,-1
 741 577 l 2,15,16
 741 587 741 587 741.5 597.5 c 128,-1,17
 742 608 742 608 742 617 c 1,18,19
 707 569 707 569 667.5 511.5 c 128,-1,20
 628 454 628 454 588.5 395.5 c 128,-1,21
 549 337 549 337 512.5 282 c 128,-1,22
 476 227 476 227 447 184 c 1,23,24
 429 208 429 208 402.5 245 c 128,-1,25
 376 282 376 282 346.5 325 c 128,-1,26
 317 368 317 368 286 413.5 c 128,-1,27
 255 459 255 459 228 499 c 128,-1,28
 201 539 201 539 180.5 570.5 c 128,-1,29
 160 602 160 602 150 617 c 1,30,31
 150 608 150 608 151 597.5 c 128,-1,32
 152 587 152 587 152 577 c 2,33,-1
 152 0 l 1,34,-1
 111 0 l 1,35,-1
 111 739 l 1,0,1
EndSplineSet
Validated: 1
EndChar

StartChar: N
Encoding: 78 78 57
Width: 812
Flags: W
LayerCount: 3
Fore
SplineSet
701 707 m 1,0,-1
 701 -32 l 1,1,2
 644 39 644 39 573 123 c 128,-1,3
 502 207 502 207 429.5 294 c 128,-1,4
 357 381 357 381 289 464.5 c 128,-1,5
 221 548 221 548 169 617 c 2,6,-1
 150 643 l 1,7,-1
 153 611 l 1,8,-1
 153 0 l 1,9,-1
 111 0 l 1,10,-1
 111 740 l 1,11,12
 169 667 169 667 238.5 583 c 128,-1,13
 308 499 308 499 380 413 c 128,-1,14
 452 327 452 327 520.5 244 c 128,-1,15
 589 161 589 161 644 91 c 2,16,-1
 663 65 l 1,17,-1
 660 97 l 1,18,-1
 660 707 l 1,19,-1
 701 707 l 1,0,-1
EndSplineSet
Validated: 1
EndChar

StartChar: P
Encoding: 80 80 58
Width: 532
Flags: W
LayerCount: 3
Fore
SplineSet
153 343 m 1,0,-1
 263 343 l 2,1,2
 316 343 316 343 351 360 c 128,-1,3
 386 377 386 377 406.5 402.5 c 128,-1,4
 427 428 427 428 435 457.5 c 128,-1,5
 443 487 443 487 443 511 c 0,6,7
 443 544 443 544 430.5 572.5 c 128,-1,8
 418 601 418 601 394.5 622.5 c 128,-1,9
 371 644 371 644 338 656 c 128,-1,10
 305 668 305 668 264 668 c 2,11,-1
 153 668 l 1,12,-1
 153 343 l 1,0,-1
111 0 m 1,13,-1
 111 707 l 1,14,-1
 268 707 l 2,15,16
 305 707 305 707 343.5 696 c 128,-1,17
 382 685 382 685 413.5 661.5 c 128,-1,18
 445 638 445 638 465 600.5 c 128,-1,19
 485 563 485 563 485 510 c 0,20,21
 485 471 485 471 472.5 434 c 128,-1,22
 460 397 460 397 433 367.5 c 128,-1,23
 406 338 406 338 363.5 320.5 c 128,-1,24
 321 303 321 303 262 303 c 2,25,-1
 153 303 l 1,26,-1
 153 0 l 1,27,-1
 111 0 l 1,13,-1
EndSplineSet
Validated: 1
EndChar

StartChar: R
Encoding: 82 82 59
Width: 585
Flags: W
LayerCount: 3
Fore
SplineSet
111 0 m 1,0,-1
 111 707 l 1,1,-1
 268 707 l 2,2,3
 305 707 305 707 343.5 696 c 128,-1,4
 382 685 382 685 413.5 661.5 c 128,-1,5
 445 638 445 638 465 600.5 c 128,-1,6
 485 563 485 563 485 510 c 0,7,8
 485 451 485 451 456 398.5 c 128,-1,9
 427 346 427 346 363 320 c 1,10,11
 370 309 370 309 386 282.5 c 128,-1,12
 402 256 402 256 422 223 c 128,-1,13
 442 190 442 190 464 153.5 c 128,-1,14
 486 117 486 117 505.5 85 c 128,-1,15
 525 53 525 53 539 30 c 128,-1,16
 553 7 553 7 558 0 c 1,17,-1
 508 0 l 1,18,19
 504 6 504 6 491.5 27 c 128,-1,20
 479 48 479 48 461.5 77 c 128,-1,21
 444 106 444 106 423.5 139.5 c 128,-1,22
 403 173 403 173 383.5 205 c 128,-1,23
 364 237 364 237 347.5 264.5 c 128,-1,24
 331 292 331 292 321 308 c 1,25,26
 307 306 307 306 292.5 304.5 c 128,-1,27
 278 303 278 303 262 303 c 2,28,-1
 153 303 l 1,29,-1
 153 0 l 1,30,-1
 111 0 l 1,0,-1
153 343 m 1,31,-1
 263 343 l 2,32,33
 316 343 316 343 351 360.5 c 128,-1,34
 386 378 386 378 406.5 404 c 128,-1,35
 427 430 427 430 435 459.5 c 128,-1,36
 443 489 443 489 443 513 c 0,37,38
 443 545 443 545 430.5 573 c 128,-1,39
 418 601 418 601 394.5 622 c 128,-1,40
 371 643 371 643 338 655.5 c 128,-1,41
 305 668 305 668 264 668 c 2,42,-1
 153 668 l 1,43,-1
 153 343 l 1,31,-1
EndSplineSet
Validated: 1
EndChar

StartChar: U
Encoding: 85 85 60
Width: 682
Flags: W
LayerCount: 3
Fore
SplineSet
341 -8 m 256,0,1
 290 -8 290 -8 246 8 c 128,-1,2
 202 24 202 24 170 55 c 128,-1,3
 138 86 138 86 119.5 131.5 c 128,-1,4
 101 177 101 177 101 235 c 2,5,-1
 101 707 l 1,6,-1
 143 707 l 1,7,-1
 143 238 l 2,8,9
 143 190 143 190 158 151.5 c 128,-1,10
 173 113 173 113 199 86 c 128,-1,11
 225 59 225 59 261.5 45 c 128,-1,12
 298 31 298 31 341 31 c 0,13,14
 383 31 383 31 419.5 45 c 128,-1,15
 456 59 456 59 482.5 86 c 128,-1,16
 509 113 509 113 524 151.5 c 128,-1,17
 539 190 539 190 539 238 c 2,18,-1
 539 707 l 1,19,-1
 581 707 l 1,20,-1
 581 235 l 2,21,22
 581 177 581 177 562.5 131.5 c 128,-1,23
 544 86 544 86 511.5 55 c 128,-1,24
 479 24 479 24 435.5 8 c 128,-1,25
 392 -8 392 -8 341 -8 c 256,0,1
EndSplineSet
Validated: 1
EndChar

StartChar: Y
Encoding: 89 89 61
Width: 612
Flags: W
LayerCount: 3
Fore
SplineSet
327 255 m 1,0,-1
 327 0 l 1,1,-1
 285 0 l 1,2,-1
 285 255 l 1,3,4
 259 299 259 299 224 358.5 c 128,-1,5
 189 418 189 418 153 481 c 128,-1,6
 117 544 117 544 82 603.5 c 128,-1,7
 47 663 47 663 21 707 c 1,8,-1
 68 707 l 5,9,10
 92 667 92 667 120.5 619 c 128,-1,11
 149 571 149 571 178.5 520 c 128,-1,12
 208 469 208 469 237.5 417.5 c 128,-1,13
 267 366 267 366 294 319 c 1,14,-1
 307 291 l 1,15,-1
 318 319 l 1,16,17
 345 366 345 366 375 417.5 c 128,-1,18
 405 469 405 469 434 520 c 128,-1,19
 463 571 463 571 491 619 c 128,-1,20
 519 667 519 667 543 707 c 1,21,-1
 590 707 l 1,22,-1
 327 255 l 1,0,-1
EndSplineSet
Validated: 1
EndChar

StartChar: asciitilde
Encoding: 126 126 62
Width: 468
Flags: W
LayerCount: 3
Fore
SplineSet
226 494 m 256,0,1
 210 511 210 511 198 517 c 128,-1,2
 186 523 186 523 172 523 c 0,3,4
 164 523 164 523 154.5 521 c 128,-1,5
 145 519 145 519 135.5 513 c 128,-1,6
 126 507 126 507 119 496.5 c 128,-1,7
 112 486 112 486 110 470 c 1,8,-1
 87 473 l 1,9,10
 88 492 88 492 96 506 c 128,-1,11
 104 520 104 520 116 529 c 128,-1,12
 128 538 128 538 143 542.5 c 128,-1,13
 158 547 158 547 172 547 c 0,14,15
 193 547 193 547 210.5 537 c 128,-1,16
 228 527 228 527 244 510 c 256,17,18
 260 493 260 493 272 487 c 128,-1,19
 284 481 284 481 298 481 c 0,20,21
 305 481 305 481 315 483 c 128,-1,22
 325 485 325 485 334.5 491 c 128,-1,23
 344 497 344 497 351 507.5 c 128,-1,24
 358 518 358 518 360 534 c 1,25,-1
 383 531 l 1,26,27
 382 512 382 512 374 498.5 c 128,-1,28
 366 485 366 485 354 476 c 128,-1,29
 342 467 342 467 327 462.5 c 128,-1,30
 312 458 312 458 298 458 c 0,31,32
 277 458 277 458 259.5 467.5 c 128,-1,33
 242 477 242 477 226 494 c 256,0,1
EndSplineSet
Validated: 1
EndChar

StartChar: ntilde
Encoding: 241 241 63
Width: 457
Flags: W
LayerCount: 3
Fore
SplineSet
70 387 m 1,0,-1
 99 387 l 1,1,2
 99 383 99 383 99.5 368 c 128,-1,3
 100 353 100 353 100 336 c 128,-1,4
 100 319 100 319 100.5 304.5 c 128,-1,5
 101 290 101 290 101 287 c 1,6,7
 122 335 122 335 166 365 c 128,-1,8
 210 395 210 395 268 395 c 0,9,10
 324 395 324 395 356.5 363 c 128,-1,11
 389 331 389 331 391 280 c 2,12,-1
 391 0 l 1,13,-1
 356 0 l 1,14,-1
 356 274 l 2,15,16
 354 309 354 309 331 334 c 128,-1,17
 308 359 308 359 264 361 c 0,18,19
 231 361 231 361 202 350 c 128,-1,20
 173 339 173 339 151.5 320 c 128,-1,21
 130 301 130 301 117 274 c 128,-1,22
 104 247 104 247 104 216 c 2,23,-1
 104 0 l 1,24,-1
 70 0 l 1,25,-1
 70 387 l 1,0,-1
231 492 m 256,26,27
 215 509 215 509 203 515 c 128,-1,28
 191 521 191 521 177 521 c 0,29,30
 169 521 169 521 159.5 519 c 128,-1,31
 150 517 150 517 140.5 511 c 128,-1,32
 131 505 131 505 124 494.5 c 128,-1,33
 117 484 117 484 115 468 c 1,34,-1
 92 471 l 1,35,36
 93 490 93 490 101 504 c 128,-1,37
 109 518 109 518 121 527 c 128,-1,38
 133 536 133 536 148 540.5 c 128,-1,39
 163 545 163 545 177 545 c 0,40,41
 198 545 198 545 215.5 535 c 128,-1,42
 233 525 233 525 249 508 c 256,43,44
 265 491 265 491 277 485 c 128,-1,45
 289 479 289 479 303 479 c 0,46,47
 310 479 310 479 320 481 c 128,-1,48
 330 483 330 483 339.5 489 c 128,-1,49
 349 495 349 495 356 505.5 c 128,-1,50
 363 516 363 516 365 532 c 1,51,-1
 388 529 l 1,52,53
 387 510 387 510 379 496.5 c 128,-1,54
 371 483 371 483 359 474 c 128,-1,55
 347 465 347 465 332 460.5 c 128,-1,56
 317 456 317 456 303 456 c 0,57,58
 282 456 282 456 264.5 465.5 c 128,-1,59
 247 475 247 475 231 492 c 256,26,27
EndSplineSet
Validated: 1
EndChar

StartChar: F
Encoding: 70 70 64
Width: 546
Flags: W
LayerCount: 3
Fore
SplineSet
111 0 m 1,0,-1
 111 707 l 1,1,-1
 503 707 l 1,2,-1
 503 668 l 1,3,-1
 153 668 l 1,4,-1
 153 366 l 1,5,-1
 464 366 l 1,6,-1
 464 327 l 1,7,-1
 153 327 l 1,8,-1
 153 0 l 1,9,-1
 111 0 l 1,0,-1
EndSplineSet
Validated: 1
EndChar

StartChar: L
Encoding: 76 76 65
Width: 556
Flags: W
LayerCount: 3
Fore
SplineSet
111 0 m 1,0,-1
 111 707 l 1,1,-1
 153 707 l 1,2,-1
 153 40 l 1,3,-1
 545 40 l 1,4,-1
 545 0 l 1,5,-1
 111 0 l 1,0,-1
EndSplineSet
Validated: 1
EndChar

StartChar: C
Encoding: 67 67 66
Width: 644
Flags: W
LayerCount: 3
Fore
SplineSet
608 45 m 1,0,1
 573 23 573 23 523.5 7.5 c 128,-1,2
 474 -8 474 -8 412 -8 c 0,3,4
 331 -8 331 -8 265 20.5 c 128,-1,5
 199 49 199 49 152.5 98 c 128,-1,6
 106 147 106 147 80.5 212 c 128,-1,7
 55 277 55 277 55 349 c 0,8,9
 55 427 55 427 83.5 493.5 c 128,-1,10
 112 560 112 560 161.5 609.5 c 128,-1,11
 211 659 211 659 276.5 687 c 128,-1,12
 342 715 342 715 417 715 c 0,13,14
 471 715 471 715 520 701.5 c 128,-1,15
 569 688 569 688 604 665 c 1,16,17
 598 656 598 656 595 650.5 c 128,-1,18
 592 645 592 645 584 632 c 1,19,20
 549 654 549 654 505.5 665 c 128,-1,21
 462 676 462 676 419 676 c 0,22,23
 352 676 352 676 293 650.5 c 128,-1,24
 234 625 234 625 190.5 580.5 c 128,-1,25
 147 536 147 536 121.5 477 c 128,-1,26
 96 418 96 418 96 351 c 0,27,28
 96 288 96 288 118.5 230.5 c 128,-1,29
 141 173 141 173 182.5 129.5 c 128,-1,30
 224 86 224 86 282.5 60 c 128,-1,31
 341 34 341 34 412 34 c 0,32,33
 467 34 467 34 513 48.5 c 128,-1,34
 559 63 559 63 589 82 c 1,35,-1
 608 45 l 1,0,1
EndSplineSet
Validated: 1
EndChar

StartChar: Q
Encoding: 81 81 67
Width: 836
Flags: W
LayerCount: 3
Fore
SplineSet
54 353 m 256,0,1
 54 428 54 428 82.5 493.5 c 128,-1,2
 111 559 111 559 160 608.5 c 128,-1,3
 209 658 209 658 274.5 686.5 c 128,-1,4
 340 715 340 715 415 715 c 256,5,6
 490 715 490 715 556 686.5 c 128,-1,7
 622 658 622 658 671.5 608.5 c 128,-1,8
 721 559 721 559 749.5 493.5 c 128,-1,9
 778 428 778 428 778 353 c 0,10,11
 778 301 778 301 763.5 253 c 128,-1,12
 749 205 749 205 723 164 c 128,-1,13
 697 123 697 123 660.5 90.5 c 128,-1,14
 624 58 624 58 581 37 c 1,15,-1
 800 40 l 1,16,-1
 800 0 l 1,17,-1
 490 0 l 1,18,19
 450 -8 450 -8 415 -8 c 0,20,21
 340 -8 340 -8 274.5 20.5 c 128,-1,22
 209 49 209 49 160 98 c 128,-1,23
 111 147 111 147 82.5 212.5 c 128,-1,24
 54 278 54 278 54 353 c 256,0,1
96 352 m 0,25,26
 96 286 96 286 121 227.5 c 128,-1,27
 146 169 146 169 189 125.5 c 128,-1,28
 232 82 232 82 290 56.5 c 128,-1,29
 348 31 348 31 414 31 c 256,30,31
 480 31 480 31 538.5 56.5 c 128,-1,32
 597 82 597 82 641.5 125.5 c 128,-1,33
 686 169 686 169 711.5 227.5 c 128,-1,34
 737 286 737 286 737 353 c 0,35,36
 737 419 737 419 711.5 478 c 128,-1,37
 686 537 686 537 642 580.5 c 128,-1,38
 598 624 598 624 539.5 649.5 c 128,-1,39
 481 675 481 675 415 675 c 256,40,41
 349 675 349 675 291 649.5 c 128,-1,42
 233 624 233 624 189.5 580 c 128,-1,43
 146 536 146 536 121 477.5 c 128,-1,44
 96 419 96 419 96 352 c 0,25,26
EndSplineSet
Validated: 1
EndChar

StartChar: T
Encoding: 84 84 68
Width: 513
Flags: W
LayerCount: 3
Fore
SplineSet
472 707 m 1,0,-1
 472 667 l 1,1,-1
 276 667 l 1,2,-1
 276 0 l 1,3,-1
 235 0 l 1,4,-1
 235 667 l 1,5,-1
 41 667 l 1,6,-1
 41 707 l 1,7,-1
 472 707 l 1,0,-1
EndSplineSet
Validated: 1
EndChar

StartChar: guilsinglleft
Encoding: 8249 8249 69
Width: 284
Flags: W
LayerCount: 3
Fore
SplineSet
220 69 m 1,0,-1
 48 240 l 1,1,2
 65 256 65 256 87.5 278.5 c 128,-1,3
 110 301 110 301 134 324.5 c 128,-1,4
 158 348 158 348 180.5 370.5 c 128,-1,5
 203 393 203 393 220 410 c 1,6,-1
 220 368 l 1,7,8
 191 339 191 339 159 304 c 128,-1,9
 127 269 127 269 98 240 c 1,10,11
 127 211 127 211 159 175.5 c 128,-1,12
 191 140 191 140 220 111 c 1,13,-1
 220 69 l 1,0,-1
EndSplineSet
Validated: 1
EndChar

StartChar: greater
Encoding: 62 62 70
Width: 558
Flags: W
LayerCount: 3
Fore
SplineSet
83 -15 m 1,0,-1
 83 32 l 1,1,-1
 442 239 l 1,2,-1
 83 446 l 1,3,-1
 83 493 l 1,4,-1
 522 239 l 1,5,-1
 83 -15 l 1,0,-1
EndSplineSet
Validated: 1
EndChar

StartChar: less
Encoding: 60 60 71
Width: 558
Flags: W
LayerCount: 3
Fore
SplineSet
475 32 m 1,0,-1
 475 -15 l 1,1,-1
 36 239 l 1,2,-1
 475 493 l 1,3,-1
 475 446 l 1,4,-1
 116 239 l 1,5,-1
 475 32 l 1,0,-1
EndSplineSet
Validated: 1
EndChar

StartChar: equal
Encoding: 61 61 72
Width: 658
Flags: W
LayerCount: 3
Fore
SplineSet
583 174 m 1,0,-1
 583 138 l 1,1,-1
 75 138 l 1,2,-1
 75 174 l 1,3,-1
 583 174 l 1,0,-1
583 369 m 1,4,-1
 583 333 l 1,5,-1
 75 333 l 1,6,-1
 75 369 l 1,7,-1
 583 369 l 1,4,-1
EndSplineSet
Validated: 1
EndChar

StartChar: at
Encoding: 64 64 73
Width: 926
Flags: W
LayerCount: 3
Fore
SplineSet
240 193 m 0,0,1
 240 235 240 235 256 272 c 128,-1,2
 272 309 272 309 299 336.5 c 128,-1,3
 326 364 326 364 362.5 380 c 128,-1,4
 399 396 399 396 441 396 c 0,5,6
 471 396 471 396 498 387.5 c 128,-1,7
 525 379 525 379 547 364 c 128,-1,8
 569 349 569 349 585.5 329.5 c 128,-1,9
 602 310 602 310 611 288 c 1,10,11
 611 313 611 313 612 338 c 128,-1,12
 613 363 613 363 615 387 c 1,13,-1
 645 387 l 1,14,-1
 645 32 l 1,15,-1
 716 32 l 2,16,17
 739 32 739 32 759 42 c 128,-1,18
 779 52 779 52 794 73 c 128,-1,19
 809 94 809 94 818 126.5 c 128,-1,20
 827 159 827 159 827 204 c 0,21,22
 827 277 827 277 799.5 343 c 128,-1,23
 772 409 772 409 723.5 458 c 128,-1,24
 675 507 675 507 607.5 536 c 128,-1,25
 540 565 540 565 460 565 c 0,26,27
 377 565 377 565 308 534.5 c 128,-1,28
 239 504 239 504 189.5 452 c 128,-1,29
 140 400 140 400 112.5 332.5 c 128,-1,30
 85 265 85 265 85 192 c 0,31,32
 85 115 85 115 114 48 c 128,-1,33
 143 -19 143 -19 193.5 -69.5 c 128,-1,34
 244 -120 244 -120 311.5 -149 c 128,-1,35
 379 -178 379 -178 456 -178 c 0,36,37
 517 -178 517 -178 572 -159.5 c 128,-1,38
 627 -141 627 -141 673 -109 c 1,39,-1
 694 -133 l 1,40,41
 643 -171 643 -171 582 -191 c 128,-1,42
 521 -211 521 -211 455 -211 c 0,43,44
 372 -211 372 -211 298.5 -179 c 128,-1,45
 225 -147 225 -147 170 -92.5 c 128,-1,46
 115 -38 115 -38 83 36 c 128,-1,47
 51 110 51 110 51 194 c 0,48,49
 51 275 51 275 81.5 348 c 128,-1,50
 112 421 112 421 166.5 476.5 c 128,-1,51
 221 532 221 532 296.5 565 c 128,-1,52
 372 598 372 598 461 598 c 0,53,54
 548 598 548 598 621.5 566.5 c 128,-1,55
 695 535 695 535 748.5 481 c 128,-1,56
 802 427 802 427 831.5 355.5 c 128,-1,57
 861 284 861 284 861 205 c 0,58,59
 861 146 861 146 848.5 106.5 c 128,-1,60
 836 67 836 67 815 43.5 c 128,-1,61
 794 20 794 20 767 10 c 128,-1,62
 740 0 740 0 711 0 c 2,63,-1
 611 0 l 1,64,-1
 611 99 l 1,65,66
 594 55 594 55 549 24 c 128,-1,67
 504 -7 504 -7 441 -7 c 0,68,69
 398 -7 398 -7 361.5 9 c 128,-1,70
 325 25 325 25 298 52 c 128,-1,71
 271 79 271 79 255.5 115.5 c 128,-1,72
 240 152 240 152 240 193 c 0,0,1
274 194 m 256,73,74
 274 159 274 159 287 128.5 c 128,-1,75
 300 98 300 98 322.5 75.5 c 128,-1,76
 345 53 345 53 376 40 c 128,-1,77
 407 27 407 27 442 27 c 256,78,79
 477 27 477 27 508 40 c 128,-1,80
 539 53 539 53 562 75.5 c 128,-1,81
 585 98 585 98 598 128.5 c 128,-1,82
 611 159 611 159 611 194 c 256,83,84
 611 229 611 229 598 260 c 128,-1,85
 585 291 585 291 562 313.5 c 128,-1,86
 539 336 539 336 508 349 c 128,-1,87
 477 362 477 362 442 362 c 256,88,89
 407 362 407 362 376 349 c 128,-1,90
 345 336 345 336 322.5 313.5 c 128,-1,91
 300 291 300 291 287 260 c 128,-1,92
 274 229 274 229 274 194 c 256,73,74
EndSplineSet
Validated: 1
EndChar

StartChar: question
Encoding: 63 63 74
Width: 478
Flags: W
LayerCount: 3
Fore
SplineSet
70 584 m 1,0,-1
 37 595 l 1,1,2
 46 622 46 622 62.5 647 c 128,-1,3
 79 672 79 672 103 691.5 c 128,-1,4
 127 711 127 711 158.5 723 c 128,-1,5
 190 735 190 735 228 735 c 0,6,7
 269 735 269 735 305 719.5 c 128,-1,8
 341 704 341 704 367.5 677.5 c 128,-1,9
 394 651 394 651 409.5 615 c 128,-1,10
 425 579 425 579 425 539 c 0,11,12
 425 485 425 485 398.5 443.5 c 128,-1,13
 372 402 372 402 326 370 c 0,14,15
 308 357 308 357 291.5 347 c 128,-1,16
 275 337 275 337 262.5 324.5 c 128,-1,17
 250 312 250 312 242 293 c 128,-1,18
 234 274 234 274 234 243 c 2,19,-1
 234 165 l 1,20,-1
 198 165 l 1,21,-1
 198 262 l 2,22,23
 198 293 198 293 209 312.5 c 128,-1,24
 220 332 220 332 237.5 346.5 c 128,-1,25
 255 361 255 361 278 375 c 128,-1,26
 301 389 301 389 325 410 c 0,27,28
 388 463 388 463 388 539 c 0,29,30
 388 573 388 573 376 602.5 c 128,-1,31
 364 632 364 632 342.5 653.5 c 128,-1,32
 321 675 321 675 291.5 687 c 128,-1,33
 262 699 262 699 228 699 c 0,34,35
 169 699 169 699 128 668.5 c 128,-1,36
 87 638 87 638 70 584 c 1,0,-1
215 17 m 256,37,38
 204 17 204 17 195 25.5 c 128,-1,39
 186 34 186 34 186 47 c 0,40,41
 186 61 186 61 195 69.5 c 128,-1,42
 204 78 204 78 215 78 c 256,43,44
 226 78 226 78 235.5 69.5 c 128,-1,45
 245 61 245 61 245 47 c 0,46,47
 245 34 245 34 235.5 25.5 c 128,-1,48
 226 17 226 17 215 17 c 256,37,38
EndSplineSet
Validated: 1
EndChar

StartChar: exclam
Encoding: 33 33 75
Width: 236
Flags: W
LayerCount: 3
Fore
SplineSet
100 753 m 1,0,-1
 136 753 l 1,1,-1
 136 167 l 1,2,-1
 100 167 l 1,3,-1
 100 753 l 1,0,-1
118 25 m 0,4,5
 107 25 107 25 98 33.5 c 128,-1,6
 89 42 89 42 89 55 c 0,7,8
 89 69 89 69 98 77.5 c 128,-1,9
 107 86 107 86 118 86 c 0,10,11
 130 86 130 86 139 77.5 c 128,-1,12
 148 69 148 69 148 55 c 0,13,14
 148 42 148 42 139 33.5 c 128,-1,15
 130 25 130 25 118 25 c 0,4,5
EndSplineSet
Validated: 1
EndChar

StartChar: two
Encoding: 50 50 76
Width: 516
Flags: W
LayerCount: 3
Fore
SplineSet
152 35 m 1,0,-1
 476 35 l 1,1,-1
 476 0 l 1,2,-1
 63 0 l 1,3,4
 127 62 127 62 187 122.5 c 128,-1,5
 247 183 247 183 293.5 239.5 c 128,-1,6
 340 296 340 296 368 349 c 128,-1,7
 396 402 396 402 396 449 c 0,8,9
 396 499 396 499 381.5 533 c 128,-1,10
 367 567 367 567 344.5 587.5 c 128,-1,11
 322 608 322 608 296 616.5 c 128,-1,12
 270 625 270 625 247 625 c 0,13,14
 201 625 201 625 171.5 608.5 c 128,-1,15
 142 592 142 592 125 568 c 128,-1,16
 108 544 108 544 101.5 516.5 c 128,-1,17
 95 489 95 489 95 466 c 0,18,19
 95 466 l 1,20,-1
 58 466 l 1,21,-1
 58 466 l 256,22,23
 58 506 58 506 70.5 542 c 128,-1,24
 83 578 83 578 107 604 c 128,-1,25
 131 630 131 630 166 645.5 c 128,-1,26
 201 661 201 661 247 661 c 0,27,28
 288 661 288 661 322 645.5 c 128,-1,29
 356 630 356 630 380.5 603 c 128,-1,30
 405 576 405 576 418.5 539.5 c 128,-1,31
 432 503 432 503 432 461 c 0,32,33
 432 405 432 405 406.5 351 c 128,-1,34
 381 297 381 297 340.5 244 c 128,-1,35
 300 191 300 191 250 138.5 c 128,-1,36
 200 86 200 86 152 35 c 1,0,-1
EndSplineSet
EndChar

StartChar: one
Encoding: 49 49 77
Width: 289
Flags: W
LayerCount: 3
Fore
SplineSet
37 617 m 1,0,-1
 37 653 l 1,1,-1
 173 653 l 1,2,-1
 173 0 l 1,3,-1
 136 0 l 1,4,-1
 136 617 l 1,5,-1
 37 617 l 1,0,-1
EndSplineSet
Validated: 1
EndChar

StartChar: three
Encoding: 51 51 78
Width: 477
Flags: W
LayerCount: 3
Fore
SplineSet
142 351 m 1,0,1
 190 418 190 418 238.5 484 c 128,-1,2
 287 550 287 550 335 617 c 1,3,-1
 72 617 l 1,4,-1
 72 653 l 1,5,-1
 400 653 l 1,6,7
 354 590 354 590 307.5 528.5 c 128,-1,8
 261 467 261 467 216 404 c 1,9,10
 258 402 258 402 294.5 385.5 c 128,-1,11
 331 369 331 369 358 342 c 128,-1,12
 385 315 385 315 400.5 279 c 128,-1,13
 416 243 416 243 416 200 c 256,14,15
 416 157 416 157 399.5 119.5 c 128,-1,16
 383 82 383 82 354.5 53.5 c 128,-1,17
 326 25 326 25 288 8.5 c 128,-1,18
 250 -8 250 -8 207 -8 c 0,19,20
 160 -8 160 -8 121 10.5 c 128,-1,21
 82 29 82 29 53 60 c 1,22,-1
 80 87 l 1,23,24
 102 61 102 61 134 44 c 128,-1,25
 166 27 166 27 204 27 c 0,26,27
 240 27 240 27 272 41 c 128,-1,28
 304 55 304 55 328 78.5 c 128,-1,29
 352 102 352 102 366 133.5 c 128,-1,30
 380 165 380 165 380 200 c 0,31,32
 380 236 380 236 366 267.5 c 128,-1,33
 352 299 352 299 328 322 c 128,-1,34
 304 345 304 345 272 358.5 c 128,-1,35
 240 372 240 372 204 372 c 0,36,37
 171 372 171 372 142 351 c 1,0,1
EndSplineSet
Validated: 1
EndChar

StartChar: four
Encoding: 52 52 79
Width: 526
Flags: W
LayerCount: 3
Fore
SplineSet
351 560 m 1,0,1
 287 475 287 475 219 387 c 128,-1,2
 151 299 151 299 86 215 c 1,3,-1
 351 215 l 1,4,-1
 351 560 l 1,0,1
14 179 m 1,5,6
 106 299 106 299 200.5 420 c 128,-1,7
 295 541 295 541 388 661 c 1,8,-1
 388 215 l 1,9,-1
 485 215 l 1,10,-1
 485 179 l 1,11,-1
 388 179 l 1,12,-1
 388 0 l 1,13,-1
 351 0 l 1,14,-1
 351 179 l 1,15,-1
 14 179 l 1,5,6
EndSplineSet
Validated: 1
EndChar

StartChar: five
Encoding: 53 53 80
Width: 467
Flags: W
LayerCount: 3
Fore
SplineSet
89 331 m 1,0,-1
 89 653 l 1,1,-1
 377 653 l 1,2,-1
 377 617 l 1,3,-1
 121 617 l 1,4,-1
 121 387 l 1,5,6
 140 396 140 396 159 401 c 128,-1,7
 178 406 178 406 200 406 c 0,8,9
 245 406 245 406 283.5 390 c 128,-1,10
 322 374 322 374 350.5 346 c 128,-1,11
 379 318 379 318 395 281 c 128,-1,12
 411 244 411 244 411 201 c 0,13,14
 411 157 411 157 394 119 c 128,-1,15
 377 81 377 81 348.5 53 c 128,-1,16
 320 25 320 25 281.5 8.5 c 128,-1,17
 243 -8 243 -8 200 -8 c 0,18,19
 158 -8 158 -8 121.5 7.5 c 128,-1,20
 85 23 85 23 57 50 c 1,21,-1
 84 75 l 1,22,23
 106 52 106 52 135.5 39.5 c 128,-1,24
 165 27 165 27 199 27 c 0,25,26
 235 27 235 27 267 41 c 128,-1,27
 299 55 299 55 323 78.5 c 128,-1,28
 347 102 347 102 361 133.5 c 128,-1,29
 375 165 375 165 375 200 c 256,30,31
 375 235 375 235 361 266 c 128,-1,32
 347 297 347 297 323 320 c 128,-1,33
 299 343 299 343 267 356.5 c 128,-1,34
 235 370 235 370 199 370 c 0,35,36
 167 370 167 370 137.5 360 c 128,-1,37
 108 350 108 350 89 331 c 1,0,-1
EndSplineSet
Validated: 1
EndChar

StartChar: six
Encoding: 54 54 81
Width: 530
Flags: W
LayerCount: 3
Fore
SplineSet
93 199 m 256,0,1
 93 163 93 163 106.5 132 c 128,-1,2
 120 101 120 101 143.5 77.5 c 128,-1,3
 167 54 167 54 198 40.5 c 128,-1,4
 229 27 229 27 265 27 c 256,5,6
 301 27 301 27 332.5 40.5 c 128,-1,7
 364 54 364 54 387.5 77.5 c 128,-1,8
 411 101 411 101 425 132 c 128,-1,9
 439 163 439 163 439 199 c 256,10,11
 439 235 439 235 425 266 c 128,-1,12
 411 297 411 297 387.5 320 c 128,-1,13
 364 343 364 343 332.5 356.5 c 128,-1,14
 301 370 301 370 265 370 c 256,15,16
 229 370 229 370 198 356.5 c 128,-1,17
 167 343 167 343 143.5 320 c 128,-1,18
 120 297 120 297 106.5 266 c 128,-1,19
 93 235 93 235 93 199 c 256,0,1
57 199 m 0,20,21
 57 274 57 274 89 337.5 c 128,-1,22
 121 401 121 401 170 455 c 128,-1,23
 219 509 219 509 277.5 554 c 128,-1,24
 336 599 336 599 388 637 c 1,25,26
 393 629 393 629 399.5 622 c 128,-1,27
 406 615 406 615 411 607 c 1,28,29
 355 570 355 570 309 532.5 c 128,-1,30
 263 495 263 495 228 460.5 c 128,-1,31
 193 426 193 426 169.5 395.5 c 128,-1,32
 146 365 146 365 134 341 c 1,33,34
 157 370 157 370 191 388 c 128,-1,35
 225 406 225 406 266 406 c 0,36,37
 309 406 309 406 347 389.5 c 128,-1,38
 385 373 385 373 413.5 345 c 128,-1,39
 442 317 442 317 458.5 279.5 c 128,-1,40
 475 242 475 242 475 199 c 256,41,42
 475 156 475 156 458.5 118.5 c 128,-1,43
 442 81 442 81 413.5 53 c 128,-1,44
 385 25 385 25 347 8.5 c 128,-1,45
 309 -8 309 -8 266 -8 c 0,46,47
 225 -8 225 -8 187.5 7 c 128,-1,48
 150 22 150 22 121 49.5 c 128,-1,49
 92 77 92 77 74.5 115 c 128,-1,50
 57 153 57 153 57 199 c 0,20,21
EndSplineSet
Validated: 1
EndChar

StartChar: seven
Encoding: 55 55 82
Width: 458
Flags: W
LayerCount: 3
Fore
SplineSet
36 617 m 1,0,-1
 36 653 l 1,1,-1
 442 653 l 1,2,3
 370 486 370 486 300 325.5 c 128,-1,4
 230 165 230 165 159 0 c 1,5,-1
 117 0 l 1,6,7
 183 152 183 152 250 307 c 128,-1,8
 317 462 317 462 385 617 c 1,9,-1
 36 617 l 1,0,-1
EndSplineSet
Validated: 1
EndChar

StartChar: eight
Encoding: 56 56 83
Width: 531
Flags: W
LayerCount: 3
Fore
SplineSet
149 509 m 0,0,1
 149 487 149 487 158 468 c 128,-1,2
 167 449 167 449 183 435.5 c 128,-1,3
 199 422 199 422 220 414.5 c 128,-1,4
 241 407 241 407 265 407 c 0,5,6
 313 407 313 407 345 435.5 c 128,-1,7
 377 464 377 464 377 509 c 0,8,9
 377 532 377 532 368.5 553 c 128,-1,10
 360 574 360 574 345 590 c 128,-1,11
 330 606 330 606 309.5 615.5 c 128,-1,12
 289 625 289 625 265 625 c 256,13,14
 241 625 241 625 219.5 615.5 c 128,-1,15
 198 606 198 606 182.5 590 c 128,-1,16
 167 574 167 574 158 553 c 128,-1,17
 149 532 149 532 149 509 c 0,0,1
94 200 m 0,18,19
 94 165 94 165 107 133.5 c 128,-1,20
 120 102 120 102 143 78.5 c 128,-1,21
 166 55 166 55 197 41 c 128,-1,22
 228 27 228 27 263 27 c 0,23,24
 299 27 299 27 331 41 c 128,-1,25
 363 55 363 55 387 78.5 c 128,-1,26
 411 102 411 102 425 133.5 c 128,-1,27
 439 165 439 165 439 200 c 256,28,29
 439 235 439 235 425 266 c 128,-1,30
 411 297 411 297 387.5 320 c 128,-1,31
 364 343 364 343 332 356.5 c 128,-1,32
 300 370 300 370 264 370 c 0,33,34
 229 370 229 370 198 357 c 128,-1,35
 167 344 167 344 144 321 c 128,-1,36
 121 298 121 298 107.5 267 c 128,-1,37
 94 236 94 236 94 200 c 0,18,19
57 199 m 0,38,39
 57 235 57 235 68 266 c 128,-1,40
 79 297 79 297 97.5 322 c 128,-1,41
 116 347 116 347 141.5 364.5 c 128,-1,42
 167 382 167 382 197 391 c 1,43,44
 159 407 159 407 136 439.5 c 128,-1,45
 113 472 113 472 113 512 c 0,46,47
 113 543 113 543 124.5 570 c 128,-1,48
 136 597 136 597 156.5 617.5 c 128,-1,49
 177 638 177 638 204 649.5 c 128,-1,50
 231 661 231 661 262 661 c 256,51,52
 293 661 293 661 320.5 649 c 128,-1,53
 348 637 348 637 368 617 c 128,-1,54
 388 597 388 597 400 569 c 128,-1,55
 412 541 412 541 412 510 c 0,56,57
 412 471 412 471 390.5 439.5 c 128,-1,58
 369 408 369 408 331 391 c 1,59,60
 361 382 361 382 387.5 364.5 c 128,-1,61
 414 347 414 347 433.5 322.5 c 128,-1,62
 453 298 453 298 464 266.5 c 128,-1,63
 475 235 475 235 475 199 c 0,64,65
 475 157 475 157 459 119 c 128,-1,66
 443 81 443 81 414.5 53 c 128,-1,67
 386 25 386 25 347.5 8.5 c 128,-1,68
 309 -8 309 -8 264 -8 c 0,69,70
 220 -8 220 -8 182 8.5 c 128,-1,71
 144 25 144 25 116 53 c 128,-1,72
 88 81 88 81 72.5 119 c 128,-1,73
 57 157 57 157 57 199 c 0,38,39
EndSplineSet
Validated: 1
EndChar

StartChar: colon
Encoding: 58 58 84
Width: 193
Flags: W
LayerCount: 3
Fore
SplineSet
66 287 m 256,0,1
 66 300 66 300 75 309 c 128,-1,2
 84 318 84 318 96 318 c 256,3,4
 108 318 108 318 117 309 c 128,-1,5
 126 300 126 300 126 287 c 256,6,7
 126 274 126 274 117 265.5 c 128,-1,8
 108 257 108 257 96 257 c 256,9,10
 84 257 84 257 75 265.5 c 128,-1,11
 66 274 66 274 66 287 c 256,0,1
66 30 m 256,12,13
 66 43 66 43 75 52 c 128,-1,14
 84 61 84 61 96 61 c 256,15,16
 108 61 108 61 117 52 c 128,-1,17
 126 43 126 43 126 30 c 256,18,19
 126 17 126 17 117 8.5 c 128,-1,20
 108 0 108 0 96 0 c 256,21,22
 84 0 84 0 75 8.5 c 128,-1,23
 66 17 66 17 66 30 c 256,12,13
EndSplineSet
Validated: 1
EndChar

StartChar: semicolon
Encoding: 59 59 85
Width: 244
Flags: W
LayerCount: 3
Fore
SplineSet
146 86 m 1,0,-1
 60 -120 l 1,1,-1
 26 -120 l 1,2,3
 46 -68 46 -68 65 -17 c 128,-1,4
 84 34 84 34 104 86 c 1,5,-1
 146 86 l 1,0,-1
103 281 m 256,6,7
 103 294 103 294 112 303 c 128,-1,8
 121 312 121 312 133 312 c 256,9,10
 145 312 145 312 154 303 c 128,-1,11
 163 294 163 294 163 281 c 256,12,13
 163 268 163 268 154 259.5 c 128,-1,14
 145 251 145 251 133 251 c 256,15,16
 121 251 121 251 112 259.5 c 128,-1,17
 103 268 103 268 103 281 c 256,6,7
EndSplineSet
Validated: 1
EndChar

StartChar: quotedbl
Encoding: 34 34 86
Width: 322
Flags: W
LayerCount: 3
Fore
SplineSet
210 474 m 1,0,-1
 210 723 l 1,1,-1
 249 723 l 1,2,-1
 245 474 l 1,3,-1
 210 474 l 1,0,-1
76 474 m 1,4,-1
 76 723 l 1,5,-1
 115 723 l 1,6,-1
 111 474 l 1,7,-1
 76 474 l 1,4,-1
EndSplineSet
Validated: 1
EndChar

StartChar: numbersign
Encoding: 35 35 87
Width: 569
Flags: W
LayerCount: 3
Fore
SplineSet
312 0 m 1,0,1
 319 54 319 54 325 107 c 128,-1,2
 331 160 331 160 337 214 c 1,3,-1
 189 214 l 1,4,5
 182 160 182 160 176 107 c 128,-1,6
 170 54 170 54 164 0 c 1,7,-1
 127 0 l 1,8,9
 134 54 134 54 140 107 c 128,-1,10
 146 160 146 160 152 214 c 1,11,-1
 43 214 l 1,12,-1
 47 250 l 1,13,-1
 157 250 l 1,14,-1
 174 397 l 1,15,-1
 66 397 l 1,16,-1
 69 433 l 1,17,-1
 179 433 l 1,18,19
 185 487 185 487 191.5 539.5 c 128,-1,20
 198 592 198 592 205 646 c 1,21,-1
 241 646 l 1,22,-1
 215 433 l 1,23,-1
 363 433 l 1,24,25
 370 487 370 487 376.5 539.5 c 128,-1,26
 383 592 383 592 389 646 c 1,27,-1
 426 646 l 1,28,-1
 400 433 l 1,29,-1
 525 433 l 1,30,31
 525 424 525 424 524 415 c 128,-1,32
 523 406 523 406 522 397 c 1,33,-1
 396 397 l 1,34,35
 391 360 391 360 387 323.5 c 128,-1,36
 383 287 383 287 378 250 c 1,37,-1
 503 250 l 1,38,-1
 499 214 l 1,39,-1
 373 214 l 1,40,-1
 349 0 l 1,41,-1
 312 0 l 1,0,1
211 397 m 1,42,-1
 193 250 l 1,43,-1
 342 250 l 1,44,-1
 359 397 l 1,45,-1
 211 397 l 1,42,-1
EndSplineSet
Validated: 1
EndChar

StartChar: percent
Encoding: 37 37 88
Width: 646
Flags: W
LayerCount: 3
Fore
SplineSet
408 112 m 256,0,1
 408 79 408 79 431 56 c 128,-1,2
 454 33 454 33 488 33 c 256,3,4
 522 33 522 33 545 56 c 128,-1,5
 568 79 568 79 568 112 c 256,6,7
 568 145 568 145 545 168.5 c 128,-1,8
 522 192 522 192 488 192 c 256,9,10
 454 192 454 192 431 168.5 c 128,-1,11
 408 145 408 145 408 112 c 256,0,1
488 -2 m 0,12,13
 464 -2 464 -2 443 7 c 128,-1,14
 422 16 422 16 406.5 31.5 c 128,-1,15
 391 47 391 47 381.5 68 c 128,-1,16
 372 89 372 89 372 113 c 256,17,18
 372 137 372 137 381.5 157.5 c 128,-1,19
 391 178 391 178 406.5 193.5 c 128,-1,20
 422 209 422 209 443 218 c 128,-1,21
 464 227 464 227 488 227 c 0,22,23
 511 227 511 227 532 218 c 128,-1,24
 553 209 553 209 569 193.5 c 128,-1,25
 585 178 585 178 594.5 157.5 c 128,-1,26
 604 137 604 137 604 113 c 256,27,28
 604 89 604 89 594.5 68 c 128,-1,29
 585 47 585 47 569 31.5 c 128,-1,30
 553 16 553 16 532 7 c 128,-1,31
 511 -2 511 -2 488 -2 c 0,12,13
83 390 m 256,32,33
 83 357 83 357 106 334 c 128,-1,34
 129 311 129 311 163 311 c 256,35,36
 197 311 197 311 220 334 c 128,-1,37
 243 357 243 357 243 390 c 256,38,39
 243 423 243 423 220 446 c 128,-1,40
 197 469 197 469 163 469 c 256,41,42
 129 469 129 469 106 446 c 128,-1,43
 83 423 83 423 83 390 c 256,32,33
163 275 m 0,44,45
 139 275 139 275 118 284 c 128,-1,46
 97 293 97 293 81 308.5 c 128,-1,47
 65 324 65 324 56 345.5 c 128,-1,48
 47 367 47 367 47 391 c 256,49,50
 47 415 47 415 56 435.5 c 128,-1,51
 65 456 65 456 81 471.5 c 128,-1,52
 97 487 97 487 118 496 c 128,-1,53
 139 505 139 505 163 505 c 0,54,55
 186 505 186 505 207 496 c 128,-1,56
 228 487 228 487 244 471.5 c 128,-1,57
 260 456 260 456 269.5 435.5 c 128,-1,58
 279 415 279 415 279 391 c 256,59,60
 279 367 279 367 269.5 345.5 c 128,-1,61
 260 324 260 324 244 308.5 c 128,-1,62
 228 293 228 293 207 284 c 128,-1,63
 186 275 186 275 163 275 c 0,44,45
152 0 m 1,64,65
 227 127 227 127 301.5 251 c 128,-1,66
 376 375 376 375 451 502 c 1,67,-1
 491 502 l 1,68,69
 416 375 416 375 341.5 251 c 128,-1,70
 267 127 267 127 192 0 c 1,71,-1
 152 0 l 1,64,65
EndSplineSet
Validated: 1
EndChar

StartChar: quoteright
Encoding: 8217 8217 89
Width: 182
Flags: W
LayerCount: 3
Fore
SplineSet
75 572 m 1,0,-1
 58 592 l 1,1,2
 79 612 79 612 88.5 642 c 128,-1,3
 98 672 98 672 91 707 c 1,4,-1
 120 714 l 1,5,6
 128 673 128 673 116 636 c 128,-1,7
 104 599 104 599 75 572 c 1,0,-1
EndSplineSet
Validated: 33
EndChar

StartChar: parenleft
Encoding: 40 40 90
Width: 262
Flags: W
LayerCount: 3
Fore
SplineSet
47 293 m 256,0,1
 47 368 47 368 61 436.5 c 128,-1,2
 75 505 75 505 98.5 563.5 c 128,-1,3
 122 622 122 622 151.5 669 c 128,-1,4
 181 716 181 716 213 750 c 1,5,-1
 238 727 l 1,6,7
 209 694 209 694 181.5 648.5 c 128,-1,8
 154 603 154 603 132 548 c 128,-1,9
 110 493 110 493 97 429 c 128,-1,10
 84 365 84 365 84 293 c 256,11,12
 84 221 84 221 97 157 c 128,-1,13
 110 93 110 93 132 37.5 c 128,-1,14
 154 -18 154 -18 181.5 -63 c 128,-1,15
 209 -108 209 -108 238 -141 c 1,16,-1
 213 -164 l 1,17,18
 181 -131 181 -131 151.5 -83.5 c 128,-1,19
 122 -36 122 -36 98.5 22.5 c 128,-1,20
 75 81 75 81 61 149.5 c 128,-1,21
 47 218 47 218 47 293 c 256,0,1
EndSplineSet
Validated: 1
EndChar

StartChar: parenright
Encoding: 41 41 91
Width: 262
Flags: W
LayerCount: 3
Fore
SplineSet
215 292 m 256,0,1
 215 217 215 217 201 148.5 c 128,-1,2
 187 80 187 80 163.5 21.5 c 128,-1,3
 140 -37 140 -37 110 -84.5 c 128,-1,4
 80 -132 80 -132 49 -165 c 1,5,-1
 24 -142 l 1,6,7
 53 -109 53 -109 80.5 -64 c 128,-1,8
 108 -19 108 -19 130 36 c 128,-1,9
 152 91 152 91 165 155 c 128,-1,10
 178 219 178 219 178 291 c 256,11,12
 178 363 178 363 165 427 c 128,-1,13
 152 491 152 491 130 546.5 c 128,-1,14
 108 602 108 602 80.5 647 c 128,-1,15
 53 692 53 692 24 725 c 1,16,-1
 49 749 l 1,17,18
 80 715 80 715 110 668 c 128,-1,19
 140 621 140 621 163.5 562.5 c 128,-1,20
 187 504 187 504 201 435.5 c 128,-1,21
 215 367 215 367 215 292 c 256,0,1
EndSplineSet
Validated: 1
EndChar

StartChar: asterisk
Encoding: 42 42 92
Width: 397
Flags: W
LayerCount: 3
Fore
SplineSet
227 575 m 1,0,-1
 329 517 l 1,1,-1
 313 490 l 1,2,-1
 212 550 l 1,3,-1
 210 434 l 1,4,-1
 183 434 l 1,5,-1
 183 550 l 1,6,-1
 83 492 l 1,7,-1
 67 519 l 1,8,-1
 168 576 l 1,9,-1
 67 636 l 1,10,11
 71 642 71 642 74.5 648 c 128,-1,12
 78 654 78 654 81 660 c 1,13,-1
 183 600 l 1,14,-1
 183 720 l 1,15,-1
 214 720 l 1,16,-1
 212 600 l 1,17,18
 238 614 238 614 264 629 c 128,-1,19
 290 644 290 644 316 659 c 1,20,21
 320 653 320 653 323.5 647 c 128,-1,22
 327 641 327 641 330 635 c 1,23,-1
 227 575 l 1,0,-1
EndSplineSet
Validated: 1
EndChar

StartChar: plus
Encoding: 43 43 93
Width: 466
Flags: W
LayerCount: 3
Fore
SplineSet
215 51 m 1,0,-1
 215 215 l 1,1,-1
 52 215 l 1,2,-1
 52 250 l 1,3,-1
 215 250 l 1,4,-1
 215 413 l 1,5,-1
 251 413 l 1,6,-1
 251 250 l 1,7,-1
 414 250 l 1,8,-1
 414 215 l 1,9,-1
 251 215 l 1,10,-1
 251 51 l 1,11,-1
 215 51 l 1,0,-1
EndSplineSet
Validated: 1
EndChar

StartChar: nine
Encoding: 57 57 94
Width: 530
Flags: W
LayerCount: 3
Fore
SplineSet
473 430 m 0,0,1
 473 355 473 355 440.5 291.5 c 128,-1,2
 408 228 408 228 359 174 c 128,-1,3
 310 120 310 120 252 75 c 128,-1,4
 194 30 194 30 142 -8 c 1,5,-1
 119 21 l 1,6,7
 175 58 175 58 221 95.5 c 128,-1,8
 267 133 267 133 302 167.5 c 128,-1,9
 337 202 337 202 360.5 233 c 128,-1,10
 384 264 384 264 395 288 c 1,11,12
 372 259 372 259 338.5 241 c 128,-1,13
 305 223 305 223 264 223 c 0,14,15
 221 223 221 223 183 239.5 c 128,-1,16
 145 256 145 256 116.5 284 c 128,-1,17
 88 312 88 312 71.5 349.5 c 128,-1,18
 55 387 55 387 55 430 c 256,19,20
 55 473 55 473 71.5 510.5 c 128,-1,21
 88 548 88 548 116.5 576 c 128,-1,22
 145 604 145 604 183 620.5 c 128,-1,23
 221 637 221 637 264 637 c 0,24,25
 305 637 305 637 342.5 622 c 128,-1,26
 380 607 380 607 409 579.5 c 128,-1,27
 438 552 438 552 455.5 514 c 128,-1,28
 473 476 473 476 473 430 c 0,0,1
437 430 m 256,29,30
 437 466 437 466 423.5 497 c 128,-1,31
 410 528 410 528 386.5 551 c 128,-1,32
 363 574 363 574 332 587.5 c 128,-1,33
 301 601 301 601 265 601 c 256,34,35
 229 601 229 601 197.5 587.5 c 128,-1,36
 166 574 166 574 142 551 c 128,-1,37
 118 528 118 528 104.5 497 c 128,-1,38
 91 466 91 466 91 430 c 256,39,40
 91 394 91 394 105 363 c 128,-1,41
 119 332 119 332 142.5 308.5 c 128,-1,42
 166 285 166 285 197.5 271.5 c 128,-1,43
 229 258 229 258 265 258 c 256,44,45
 301 258 301 258 332 271.5 c 128,-1,46
 363 285 363 285 386.5 308.5 c 128,-1,47
 410 332 410 332 423.5 363 c 128,-1,48
 437 394 437 394 437 430 c 256,29,30
EndSplineSet
Validated: 1
EndChar

StartChar: bar
Encoding: 124 124 95
Width: 230
Flags: W
LayerCount: 3
Fore
SplineSet
97 -233 m 1,0,-1
 97 703 l 1,1,-1
 133 703 l 1,2,-1
 133 -233 l 1,3,-1
 97 -233 l 1,0,-1
EndSplineSet
Validated: 1
EndChar

StartChar: braceleft
Encoding: 123 123 96
Width: 286
Flags: W
LayerCount: 3
Fore
SplineSet
33 278 m 1,0,-1
 33 321 l 1,1,2
 57 322 57 322 72.5 335.5 c 128,-1,3
 88 349 88 349 97 369 c 128,-1,4
 106 389 106 389 109.5 412.5 c 128,-1,5
 113 436 113 436 113 456 c 2,6,-1
 113 631 l 2,7,8
 113 677 113 677 121 701 c 128,-1,9
 129 725 129 725 142.5 735.5 c 128,-1,10
 156 746 156 746 173 747.5 c 128,-1,11
 190 749 190 749 209 749 c 2,12,-1
 255 749 l 1,13,-1
 255 713 l 1,14,-1
 202 713 l 2,15,16
 170 713 170 713 159.5 689.5 c 128,-1,17
 149 666 149 666 149 604 c 2,18,-1
 149 460 l 2,19,20
 149 418 149 418 143.5 390.5 c 128,-1,21
 138 363 138 363 128.5 345 c 128,-1,22
 119 327 119 327 107 317 c 128,-1,23
 95 307 95 307 83 300 c 1,24,25
 95 293 95 293 107 282.5 c 128,-1,26
 119 272 119 272 128.5 254 c 128,-1,27
 138 236 138 236 143.5 208.5 c 128,-1,28
 149 181 149 181 149 140 c 2,29,-1
 149 -4 l 2,30,31
 149 -66 149 -66 159.5 -89.5 c 128,-1,32
 170 -113 170 -113 202 -113 c 2,33,-1
 255 -113 l 1,34,-1
 255 -149 l 1,35,-1
 209 -149 l 2,36,37
 188 -149 188 -149 170.5 -147.5 c 128,-1,38
 153 -146 153 -146 140 -133 c 128,-1,39
 127 -120 127 -120 120 -91 c 128,-1,40
 113 -62 113 -62 113 -6 c 2,41,-1
 113 143 l 2,42,43
 113 163 113 163 109.5 186.5 c 128,-1,44
 106 210 106 210 97 230 c 128,-1,45
 88 250 88 250 72.5 263.5 c 128,-1,46
 57 277 57 277 33 278 c 1,0,-1
EndSplineSet
Validated: 1
EndChar

StartChar: braceright
Encoding: 125 125 97
Width: 286
Flags: W
LayerCount: 3
Fore
SplineSet
252 321 m 1,0,-1
 252 278 l 1,1,2
 223 277 223 277 207 258.5 c 128,-1,3
 191 240 191 240 183.5 215 c 128,-1,4
 176 190 176 190 174.5 163 c 128,-1,5
 173 136 173 136 173 118 c 2,6,-1
 173 -30 l 2,7,8
 173 -77 173 -77 165 -101 c 128,-1,9
 157 -125 157 -125 143.5 -136 c 128,-1,10
 130 -147 130 -147 112.5 -148 c 128,-1,11
 95 -149 95 -149 76 -149 c 2,12,-1
 31 -149 l 1,13,-1
 31 -113 l 1,14,-1
 84 -113 l 2,15,16
 115 -113 115 -113 125.5 -89.5 c 128,-1,17
 136 -66 136 -66 136 -4 c 2,18,-1
 136 165 l 2,19,20
 136 198 136 198 143 221 c 128,-1,21
 150 244 150 244 160 260 c 128,-1,22
 170 276 170 276 181.5 285 c 128,-1,23
 193 294 193 294 202 300 c 1,24,25
 190 307 190 307 178 317 c 128,-1,26
 166 327 166 327 157 345 c 128,-1,27
 148 363 148 363 142 390.5 c 128,-1,28
 136 418 136 418 136 460 c 2,29,-1
 136 604 l 2,30,31
 136 666 136 666 125.5 689.5 c 128,-1,32
 115 713 115 713 84 713 c 2,33,-1
 31 713 l 1,34,-1
 31 749 l 1,35,-1
 76 749 l 2,36,37
 95 749 95 749 112.5 748 c 128,-1,38
 130 747 130 747 143.5 736.5 c 128,-1,39
 157 726 157 726 165 701.5 c 128,-1,40
 173 677 173 677 173 631 c 2,41,-1
 173 481 l 2,42,43
 173 463 173 463 174.5 436 c 128,-1,44
 176 409 176 409 183.5 384 c 128,-1,45
 191 359 191 359 207 340.5 c 128,-1,46
 223 322 223 322 252 321 c 1,0,-1
EndSplineSet
Validated: 1
EndChar

StartChar: zero
Encoding: 48 48 98
Width: 662
Flags: W
LayerCount: 3
Fore
SplineSet
61 329 m 0,0,1
 61 386 61 386 77.5 445 c 128,-1,2
 94 504 94 504 127.5 552 c 128,-1,3
 161 600 161 600 212 630.5 c 128,-1,4
 263 661 263 661 334 661 c 0,5,6
 404 661 404 661 455 629 c 128,-1,7
 506 597 506 597 538.5 548.5 c 128,-1,8
 571 500 571 500 586 440.5 c 128,-1,9
 601 381 601 381 600 325 c 0,10,11
 600 253 600 253 578 192 c 128,-1,12
 556 131 556 131 519.5 86.5 c 128,-1,13
 483 42 483 42 433.5 17.5 c 128,-1,14
 384 -7 384 -7 328 -7 c 0,15,16
 273 -7 273 -7 224.5 18.5 c 128,-1,17
 176 44 176 44 139.5 88.5 c 128,-1,18
 103 133 103 133 82 194.5 c 128,-1,19
 61 256 61 256 61 329 c 0,0,1
99 329 m 0,20,21
 98 262 98 262 117 207 c 128,-1,22
 136 152 136 152 168 112 c 128,-1,23
 200 72 200 72 242 50 c 128,-1,24
 284 28 284 28 329 28 c 256,25,26
 374 28 374 28 416 49.5 c 128,-1,27
 458 71 458 71 491 110 c 128,-1,28
 524 149 524 149 544 204 c 128,-1,29
 564 259 564 259 564 325 c 0,30,31
 564 388 564 388 548 442.5 c 128,-1,32
 532 497 532 497 501.5 537.5 c 128,-1,33
 471 578 471 578 428 601.5 c 128,-1,34
 385 625 385 625 333 625 c 0,35,36
 280 625 280 625 237 602 c 128,-1,37
 194 579 194 579 163.5 539 c 128,-1,38
 133 499 133 499 116 444.5 c 128,-1,39
 99 390 99 390 99 329 c 0,20,21
EndSplineSet
Validated: 33
EndChar

StartChar: hyphen
Encoding: 45 45 99
Width: 319
Flags: W
LayerCount: 3
Fore
SplineSet
67 181 m 1,0,-1
 67 216 l 1,1,-1
 252 216 l 1,2,-1
 252 181 l 1,3,-1
 67 181 l 1,0,-1
EndSplineSet
Validated: 1
EndChar

StartChar: slash
Encoding: 47 47 100
Width: 400
Flags: W
LayerCount: 3
Fore
SplineSet
42 -19 m 1,0,-1
 321 739 l 1,1,-1
 358 739 l 1,2,3
 287 548 287 548 218 360 c 128,-1,4
 149 172 149 172 78 -19 c 1,5,-1
 42 -19 l 1,0,-1
EndSplineSet
Validated: 1
EndChar

StartChar: backslash
Encoding: 92 92 101
Width: 402
Flags: W
LayerCount: 3
Fore
SplineSet
81 739 m 1,0,1
 152 548 152 548 221 360 c 128,-1,2
 290 172 290 172 360 -19 c 1,3,-1
 321 -19 l 1,4,5
 250 172 250 172 181 360 c 128,-1,6
 112 548 112 548 42 739 c 1,7,-1
 81 739 l 1,0,1
EndSplineSet
Validated: 1
EndChar

StartChar: G
Encoding: 71 71 102
Width: 680
Flags: W
LayerCount: 3
Fore
SplineSet
609 313 m 1,0,-1
 609 42 l 1,1,2
 569 19 569 19 520 5.5 c 128,-1,3
 471 -8 471 -8 417 -8 c 0,4,5
 334 -8 334 -8 267.5 20 c 128,-1,6
 201 48 201 48 153.5 96 c 128,-1,7
 106 144 106 144 80.5 209 c 128,-1,8
 55 274 55 274 55 349 c 0,9,10
 55 426 55 426 84 493 c 128,-1,11
 113 560 113 560 162.5 609.5 c 128,-1,12
 212 659 212 659 278 687 c 128,-1,13
 344 715 344 715 419 715 c 0,14,15
 470 715 470 715 519 702 c 128,-1,16
 568 689 568 689 609 665 c 1,17,-1
 588 631 l 1,18,19
 552 652 552 652 507.5 664 c 128,-1,20
 463 676 463 676 418 676 c 0,21,22
 352 676 352 676 294 650.5 c 128,-1,23
 236 625 236 625 192 580.5 c 128,-1,24
 148 536 148 536 122.5 476.5 c 128,-1,25
 97 417 97 417 97 350 c 0,26,27
 97 284 97 284 119.5 226 c 128,-1,28
 142 168 142 168 184 124.5 c 128,-1,29
 226 81 226 81 284.5 56 c 128,-1,30
 343 31 343 31 415 31 c 0,31,32
 455 31 455 31 495 40.5 c 128,-1,33
 535 50 535 50 570 69 c 1,34,-1
 570 277 l 1,35,-1
 407 277 l 1,36,-1
 407 313 l 1,37,-1
 609 313 l 1,0,-1
EndSplineSet
Validated: 1
EndChar

StartChar: V
Encoding: 86 86 103
Width: 641
Flags: W
LayerCount: 3
Fore
SplineSet
63 707 m 1,0,1
 91 639 91 639 123 559 c 128,-1,2
 155 479 155 479 187 395.5 c 128,-1,3
 219 312 219 312 250.5 231.5 c 128,-1,4
 282 151 282 151 311 84 c 1,5,-1
 321 56 l 1,6,-1
 330 84 l 1,7,8
 358 151 358 151 390 231.5 c 128,-1,9
 422 312 422 312 454 395.5 c 128,-1,10
 486 479 486 479 517.5 559 c 128,-1,11
 549 639 549 639 578 707 c 1,12,-1
 620 707 l 1,13,14
 599 658 599 658 574.5 598 c 128,-1,15
 550 538 550 538 523.5 472 c 128,-1,16
 497 406 497 406 470 337.5 c 128,-1,17
 443 269 443 269 416.5 203 c 128,-1,18
 390 137 390 137 365.5 77 c 128,-1,19
 341 17 341 17 321 -32 c 1,20,21
 300 17 300 17 275.5 77 c 128,-1,22
 251 137 251 137 224.5 203 c 128,-1,23
 198 269 198 269 171 337.5 c 128,-1,24
 144 406 144 406 117.5 472 c 128,-1,25
 91 538 91 538 66.5 598 c 128,-1,26
 42 658 42 658 21 707 c 1,27,-1
 63 707 l 1,0,1
EndSplineSet
Validated: 1
EndChar

StartChar: S
Encoding: 83 83 104
Width: 541
Flags: W
LayerCount: 3
Fore
SplineSet
457 672 m 1,0,-1
 442 639 l 1,1,2
 411 652 411 652 367.5 662.5 c 128,-1,3
 324 673 324 673 282 673 c 0,4,5
 244 673 244 673 213 662.5 c 128,-1,6
 182 652 182 652 160.5 634.5 c 128,-1,7
 139 617 139 617 127.5 593.5 c 128,-1,8
 116 570 116 570 116 543 c 0,9,10
 116 511 116 511 132 489 c 128,-1,11
 148 467 148 467 174.5 451 c 128,-1,12
 201 435 201 435 234.5 422.5 c 128,-1,13
 268 410 268 410 303.5 397 c 128,-1,14
 339 384 339 384 372.5 367.5 c 128,-1,15
 406 351 406 351 432.5 327.5 c 128,-1,16
 459 304 459 304 475 271.5 c 128,-1,17
 491 239 491 239 491 192 c 0,18,19
 491 146 491 146 474.5 109 c 128,-1,20
 458 72 458 72 427 46 c 128,-1,21
 396 20 396 20 353 6 c 128,-1,22
 310 -8 310 -8 257 -8 c 0,23,24
 215 -8 215 -8 180.5 0 c 128,-1,25
 146 8 146 8 119 19.5 c 128,-1,26
 92 31 92 31 72.5 42.5 c 128,-1,27
 53 54 53 54 42 60 c 1,28,-1
 62 97 l 1,29,30
 78 86 78 86 100.5 74.5 c 128,-1,31
 123 63 123 63 148.5 53.5 c 128,-1,32
 174 44 174 44 202 38 c 128,-1,33
 230 32 230 32 258 32 c 0,34,35
 290 32 290 32 324 41.5 c 128,-1,36
 358 51 358 51 386 70.5 c 128,-1,37
 414 90 414 90 432 120.5 c 128,-1,38
 450 151 450 151 450 193 c 0,39,40
 450 233 450 233 434 261 c 128,-1,41
 418 289 418 289 391.5 308.5 c 128,-1,42
 365 328 365 328 331.5 342.5 c 128,-1,43
 298 357 298 357 262.5 370 c 128,-1,44
 227 383 227 383 193.5 397 c 128,-1,45
 160 411 160 411 133.5 430 c 128,-1,46
 107 449 107 449 91 475 c 128,-1,47
 75 501 75 501 75 539 c 0,48,49
 75 574 75 574 89.5 605.5 c 128,-1,50
 104 637 104 637 130.5 660.5 c 128,-1,51
 157 684 157 684 194 697.5 c 128,-1,52
 231 711 231 711 276 711 c 0,53,54
 299 711 299 711 324.5 707.5 c 128,-1,55
 350 704 350 704 375 698.5 c 128,-1,56
 400 693 400 693 421.5 686 c 128,-1,57
 443 679 443 679 457 672 c 1,0,-1
EndSplineSet
Validated: 1
EndChar

StartChar: Z
Encoding: 90 90 105
Width: 628
Flags: WO
LayerCount: 3
Fore
SplineSet
577 710 m 1,0,-1
 89 40 l 1,1,-1
 603 40 l 1,2,-1
 603 0 l 1,3,-1
 17 0 l 1,4,5
 68 71 68 71 131.5 160 c 128,-1,6
 195 249 195 249 261 340.5 c 128,-1,7
 327 432 327 432 390.5 520.5 c 128,-1,8
 454 609 454 609 505 676 c 1,9,-1
 26 676 l 1,10,-1
 26 710 l 1,11,-1
 577 710 l 1,0,-1
EndSplineSet
EndChar

StartChar: W
Encoding: 87 87 106
Width: 936
Flags: W
LayerCount: 3
Fore
SplineSet
914 706 m 5,0,1
 889 644 889 644 859 569 c 128,-1,2
 829 494 829 494 798 416.5 c 128,-1,3
 767 339 767 339 738 264 c 128,-1,4
 709 189 709 189 685 127.5 c 128,-1,5
 661 66 661 66 644.5 23.5 c 128,-1,6
 628 -19 628 -19 624 -32 c 1,7,-1
 472 369 l 1,8,-1
 464 390 l 2,9,10
 463 388 463 388 461 378 c 0,11,12
 460 374 460 374 458 369 c 0,13,14
 430 292 430 292 404 218 c 0,15,16
 393 186 393 186 381 152.5 c 128,-1,17
 369 119 369 119 357 86 c 128,-1,18
 345 53 345 53 334 23 c 128,-1,19
 323 -7 323 -7 314 -32 c 1,20,21
 238 154 238 154 169 337 c 128,-1,22
 100 520 100 520 24 706 c 1,23,-1
 70 706 l 1,24,25
 91 653 91 653 116.5 589 c 128,-1,26
 142 525 142 525 168 459 c 128,-1,27
 194 393 194 393 218.5 330 c 128,-1,28
 243 267 243 267 262 216 c 128,-1,29
 281 165 281 165 293.5 131.5 c 128,-1,30
 306 98 306 98 308 91 c 0,31,32
 308 90 308 90 309 85.5 c 128,-1,33
 310 81 310 81 311.5 76.5 c 128,-1,34
 313 72 313 72 314.5 68 c 128,-1,35
 316 64 316 64 316 63 c 2,36,-1
 325 90 l 2,37,38
 325 91 325 91 330.5 107 c 128,-1,39
 336 123 336 123 344.5 147.5 c 128,-1,40
 353 172 353 172 364 203.5 c 128,-1,41
 375 235 375 235 386 267 c 0,42,43
 412 343 412 343 445 439 c 1,44,45
 419 511 419 511 398 568 c 0,46,47
 389 592 389 592 380 616 c 128,-1,48
 371 640 371 640 364 659 c 128,-1,49
 357 678 357 678 352.5 691 c 128,-1,50
 348 704 348 704 348 706 c 2,51,-1
 389 706 l 1,52,53
 437 580 437 580 480 464 c 0,54,55
 498 414 498 414 517.5 362 c 128,-1,56
 537 310 537 310 555 260.5 c 128,-1,57
 573 211 573 211 588.5 167.5 c 128,-1,58
 604 124 604 124 615 91 c 2,59,-1
 624 63 l 1,60,-1
 632 91 l 2,61,62
 634 98 634 98 646.5 132 c 128,-1,63
 659 166 659 166 678 217 c 128,-1,64
 697 268 697 268 721.5 331.5 c 128,-1,65
 746 395 746 395 772 460.5 c 128,-1,66
 798 526 798 526 823.5 590 c 128,-1,67
 849 654 849 654 871 706 c 1,68,-1
 914 706 l 5,0,1
EndSplineSet
Validated: 1
EndChar

StartChar: X
Encoding: 88 88 107
Width: 566
Flags: W
LayerCount: 3
Fore
SplineSet
255 363 m 1,0,1
 233 397 233 397 204 442.5 c 128,-1,2
 175 488 175 488 144.5 535.5 c 128,-1,3
 114 583 114 583 84.5 628 c 128,-1,4
 55 673 55 673 33 707 c 1,5,-1
 83 707 l 5,6,-1
 275 409 l 2,7,8
 277 407 277 407 280 401 c 128,-1,9
 283 395 283 395 285 390 c 1,10,11
 287 395 287 395 290 401 c 128,-1,12
 293 407 293 407 295 409 c 0,13,14
 316 441 316 441 340 479.5 c 128,-1,15
 364 518 364 518 389 558 c 128,-1,16
 414 598 414 598 438 636.5 c 128,-1,17
 462 675 462 675 483 707 c 1,18,-1
 530 707 l 1,19,-1
 309 361 l 1,20,-1
 544 0 l 1,21,-1
 493 0 l 1,22,-1
 320 267 l 2,23,24
 311 281 311 281 300 300 c 128,-1,25
 289 319 289 319 279 332 c 1,26,27
 277 327 277 327 274 322 c 128,-1,28
 271 317 271 317 269 315 c 2,29,-1
 71 0 l 1,30,-1
 23 0 l 1,31,32
 46 36 46 36 76.5 83.5 c 128,-1,33
 107 131 107 131 139 181.5 c 128,-1,34
 171 232 171 232 201.5 279.5 c 128,-1,35
 232 327 232 327 255 363 c 1,0,1
EndSplineSet
Validated: 1
EndChar

StartChar: AE
Encoding: 198 198 108
Width: 654
Flags: W
LayerCount: 3
Fore
SplineSet
308 0 m 1,0,-1
 308 287 l 1,1,-1
 178 287 l 1,2,3
 148 209 148 209 119 136 c 128,-1,4
 90 63 90 63 64 0 c 1,5,-1
 22 0 l 1,6,7
 53 73 53 73 90 165 c 128,-1,8
 127 257 127 257 165.5 353 c 128,-1,9
 204 449 204 449 240.5 541.5 c 128,-1,10
 277 634 277 634 308 707 c 1,11,-1
 595 707 l 1,12,-1
 595 669 l 1,13,-1
 347 669 l 1,14,-1
 347 375 l 1,15,-1
 555 375 l 1,16,-1
 555 337 l 1,17,-1
 347 337 l 1,18,-1
 347 39 l 1,19,-1
 609 39 l 1,20,-1
 609 0 l 1,21,-1
 308 0 l 1,0,-1
308 613 m 1,22,23
 281 549 281 549 251.5 474 c 128,-1,24
 222 399 222 399 192 321 c 1,25,-1
 308 321 l 1,26,-1
 308 613 l 1,22,23
EndSplineSet
Validated: 1
EndChar

StartChar: Ntilde
Encoding: 209 209 109
Width: 811
Flags: W
LayerCount: 3
Fore
SplineSet
700 707 m 1,0,-1
 700 -32 l 1,1,2
 643 39 643 39 572 123 c 128,-1,3
 501 207 501 207 428.5 294 c 128,-1,4
 356 381 356 381 288 464.5 c 128,-1,5
 220 548 220 548 168 617 c 2,6,-1
 149 643 l 1,7,-1
 152 611 l 1,8,-1
 152 0 l 1,9,-1
 110 0 l 1,10,-1
 110 740 l 1,11,12
 168 667 168 667 237.5 583 c 128,-1,13
 307 499 307 499 379 413 c 128,-1,14
 451 327 451 327 519.5 244 c 128,-1,15
 588 161 588 161 643 91 c 2,16,-1
 662 65 l 1,17,-1
 659 97 l 1,18,-1
 659 707 l 1,19,-1
 700 707 l 1,0,-1
407 790 m 256,20,21
 391 807 391 807 379 813 c 128,-1,22
 367 819 367 819 353 819 c 0,23,24
 345 819 345 819 335.5 817 c 128,-1,25
 326 815 326 815 316.5 809 c 128,-1,26
 307 803 307 803 300 792.5 c 128,-1,27
 293 782 293 782 291 766 c 1,28,-1
 268 769 l 1,29,30
 269 788 269 788 277 802 c 128,-1,31
 285 816 285 816 297 825 c 128,-1,32
 309 834 309 834 324 838.5 c 128,-1,33
 339 843 339 843 353 843 c 0,34,35
 374 843 374 843 391.5 833 c 128,-1,36
 409 823 409 823 425 806 c 256,37,38
 441 789 441 789 453 783 c 128,-1,39
 465 777 465 777 479 777 c 0,40,41
 486 777 486 777 496 779 c 128,-1,42
 506 781 506 781 515.5 787 c 128,-1,43
 525 793 525 793 532 803.5 c 128,-1,44
 539 814 539 814 541 830 c 1,45,-1
 564 827 l 1,46,47
 563 808 563 808 555 794.5 c 128,-1,48
 547 781 547 781 535 772 c 128,-1,49
 523 763 523 763 508 758.5 c 128,-1,50
 493 754 493 754 479 754 c 0,51,52
 458 754 458 754 440.5 763.5 c 128,-1,53
 423 773 423 773 407 790 c 256,20,21
EndSplineSet
Validated: 1
EndChar

StartChar: Aring
Encoding: 197 197 110
Width: 640
Flags: W
LayerCount: 3
Fore
SplineSet
578 0 m 1,0,1
 552 63 552 63 522.5 136 c 128,-1,2
 493 209 493 209 463 287 c 1,3,-1
 177 287 l 1,4,5
 147 209 147 209 118 136 c 128,-1,6
 89 63 89 63 63 0 c 1,7,-1
 21 0 l 1,8,9
 42 49 42 49 66.5 109 c 128,-1,10
 91 169 91 169 117.5 235 c 128,-1,11
 144 301 144 301 171 369.5 c 128,-1,12
 198 438 198 438 224.5 504 c 128,-1,13
 251 570 251 570 275.5 630.5 c 128,-1,14
 300 691 300 691 321 740 c 1,15,16
 341 691 341 691 365.5 630.5 c 128,-1,17
 390 570 390 570 416.5 504 c 128,-1,18
 443 438 443 438 470 369.5 c 128,-1,19
 497 301 497 301 523.5 235 c 128,-1,20
 550 169 550 169 574.5 109 c 128,-1,21
 599 49 599 49 620 0 c 1,22,-1
 578 0 l 1,0,1
311 623 m 0,23,24
 283 557 283 557 253 480.5 c 128,-1,25
 223 404 223 404 191 323 c 1,26,-1
 449 323 l 1,27,28
 418 404 418 404 387.5 480.5 c 128,-1,29
 357 557 357 557 330 623 c 1,30,-1
 321 652 l 1,31,32
 319 644 319 644 316 636 c 128,-1,33
 313 628 313 628 311 623 c 0,23,24
252 838 m 256,34,35
 252 867 252 867 272.5 887.5 c 128,-1,36
 293 908 293 908 322 908 c 256,37,38
 351 908 351 908 371 887.5 c 128,-1,39
 391 867 391 867 391 838 c 256,40,41
 391 809 391 809 371 789 c 128,-1,42
 351 769 351 769 322 769 c 256,43,44
 293 769 293 769 272.5 789 c 128,-1,45
 252 809 252 809 252 838 c 256,34,35
277 838 m 256,46,47
 277 820 277 820 290 806.5 c 128,-1,48
 303 793 303 793 322 793 c 0,49,50
 340 793 340 793 353.5 806.5 c 128,-1,51
 367 820 367 820 367 838 c 256,52,53
 367 856 367 856 353.5 869.5 c 128,-1,54
 340 883 340 883 322 883 c 0,55,56
 303 883 303 883 290 869.5 c 128,-1,57
 277 856 277 856 277 838 c 256,46,47
EndSplineSet
Validated: 1
EndChar

StartChar: Aacute
Encoding: 193 193 111
Width: 640
Flags: W
LayerCount: 3
Fore
SplineSet
620 0 m 1,0,1
 599 49 599 49 574.5 109 c 128,-1,2
 550 169 550 169 523.5 235 c 128,-1,3
 497 301 497 301 470 369.5 c 128,-1,4
 443 438 443 438 416.5 504 c 128,-1,5
 390 570 390 570 365.5 630.5 c 128,-1,6
 341 691 341 691 321 740 c 1,7,8
 300 691 300 691 275.5 630.5 c 128,-1,9
 251 570 251 570 224.5 504 c 128,-1,10
 198 438 198 438 171 369.5 c 128,-1,11
 144 301 144 301 117.5 235 c 128,-1,12
 91 169 91 169 66.5 109 c 128,-1,13
 42 49 42 49 21 0 c 1,14,-1
 63 0 l 1,15,16
 89 63 89 63 118 136 c 128,-1,17
 147 209 147 209 177 287 c 1,18,-1
 463 287 l 1,19,20
 493 209 493 209 522.5 136 c 128,-1,21
 552 63 552 63 578 0 c 1,22,-1
 620 0 l 1,0,1
311 623 m 0,23,24
 313 628 313 628 316 636 c 128,-1,25
 319 644 319 644 321 652 c 1,26,-1
 330 623 l 1,27,28
 357 557 357 557 387.5 480.5 c 128,-1,29
 418 404 418 404 449 323 c 1,30,-1
 191 323 l 1,31,32
 223 404 223 404 253 480.5 c 128,-1,33
 283 557 283 557 311 623 c 0,23,24
301 755 m 1,34,35
 324 788 324 788 346.5 821.5 c 128,-1,36
 369 855 369 855 392 888 c 1,37,-1
 430 888 l 1,38,-1
 331 755 l 1,39,-1
 301 755 l 1,34,35
EndSplineSet
Validated: 9
EndChar

StartChar: Eacute
Encoding: 201 201 112
Width: 611
Flags: W
LayerCount: 3
Fore
SplineSet
111 0 m 1,0,-1
 111 707 l 1,1,-1
 544 707 l 1,2,-1
 544 669 l 1,3,-1
 153 669 l 1,4,-1
 153 375 l 1,5,-1
 504 375 l 1,6,-1
 504 337 l 1,7,-1
 153 337 l 1,8,-1
 153 39 l 1,9,-1
 558 39 l 1,10,-1
 558 0 l 1,11,-1
 111 0 l 1,0,-1
305 755 m 1,12,13
 328 788 328 788 350.5 821.5 c 128,-1,14
 373 855 373 855 396 888 c 1,15,-1
 434 888 l 1,16,-1
 335 755 l 1,17,-1
 305 755 l 1,12,13
EndSplineSet
Validated: 1
EndChar

StartChar: Iacute
Encoding: 205 205 113
Width: 263
Flags: W
LayerCount: 3
Fore
SplineSet
111 707 m 1,0,-1
 152 707 l 1,1,-1
 152 0 l 1,2,-1
 111 0 l 1,3,-1
 111 707 l 1,0,-1
101 755 m 1,4,5
 124 788 124 788 146.5 821.5 c 128,-1,6
 169 855 169 855 192 888 c 1,7,-1
 230 888 l 1,8,-1
 131 755 l 1,9,-1
 101 755 l 1,4,5
EndSplineSet
Validated: 1
EndChar

StartChar: Oacute
Encoding: 211 211 114
Width: 831
Flags: W
LayerCount: 3
Fore
SplineSet
54 353 m 256,0,1
 54 428 54 428 82.5 493.5 c 128,-1,2
 111 559 111 559 159.5 608.5 c 128,-1,3
 208 658 208 658 273.5 686.5 c 128,-1,4
 339 715 339 715 414 715 c 256,5,6
 489 715 489 715 555 686.5 c 128,-1,7
 621 658 621 658 670.5 608.5 c 128,-1,8
 720 559 720 559 748.5 493.5 c 128,-1,9
 777 428 777 428 777 353 c 256,10,11
 777 278 777 278 748.5 212.5 c 128,-1,12
 720 147 720 147 670.5 98 c 128,-1,13
 621 49 621 49 555 20.5 c 128,-1,14
 489 -8 489 -8 414 -8 c 256,15,16
 339 -8 339 -8 273.5 20.5 c 128,-1,17
 208 49 208 49 159.5 98 c 128,-1,18
 111 147 111 147 82.5 212.5 c 128,-1,19
 54 278 54 278 54 353 c 256,0,1
95 352 m 0,20,21
 95 286 95 286 120 227.5 c 128,-1,22
 145 169 145 169 188.5 125.5 c 128,-1,23
 232 82 232 82 289.5 56.5 c 128,-1,24
 347 31 347 31 413 31 c 256,25,26
 479 31 479 31 538 56.5 c 128,-1,27
 597 82 597 82 641 125.5 c 128,-1,28
 685 169 685 169 710.5 227.5 c 128,-1,29
 736 286 736 286 736 353 c 0,30,31
 736 419 736 419 710.5 478 c 128,-1,32
 685 537 685 537 641.5 580.5 c 128,-1,33
 598 624 598 624 539.5 649.5 c 128,-1,34
 481 675 481 675 415 675 c 256,35,36
 349 675 349 675 290.5 649.5 c 128,-1,37
 232 624 232 624 188.5 580 c 128,-1,38
 145 536 145 536 120 477.5 c 128,-1,39
 95 419 95 419 95 352 c 0,20,21
379 755 m 1,40,41
 402 788 402 788 424.5 821.5 c 128,-1,42
 447 855 447 855 470 888 c 1,43,-1
 508 888 l 1,44,-1
 409 755 l 1,45,-1
 379 755 l 1,40,41
EndSplineSet
Validated: 1
EndChar

StartChar: Uacute
Encoding: 218 218 115
Width: 684
Flags: W
LayerCount: 3
Fore
SplineSet
342 -8 m 256,0,1
 291 -8 291 -8 247 8 c 128,-1,2
 203 24 203 24 171 55 c 128,-1,3
 139 86 139 86 120.5 131.5 c 128,-1,4
 102 177 102 177 102 235 c 2,5,-1
 102 707 l 1,6,-1
 144 707 l 1,7,-1
 144 238 l 2,8,9
 144 190 144 190 159 151.5 c 128,-1,10
 174 113 174 113 200 86 c 128,-1,11
 226 59 226 59 262.5 45 c 128,-1,12
 299 31 299 31 342 31 c 0,13,14
 384 31 384 31 420.5 45 c 128,-1,15
 457 59 457 59 483.5 86 c 128,-1,16
 510 113 510 113 525 151.5 c 128,-1,17
 540 190 540 190 540 238 c 2,18,-1
 540 707 l 1,19,-1
 582 707 l 1,20,-1
 582 235 l 2,21,22
 582 177 582 177 563.5 131.5 c 128,-1,23
 545 86 545 86 512.5 55 c 128,-1,24
 480 24 480 24 436.5 8 c 128,-1,25
 393 -8 393 -8 342 -8 c 256,0,1
315 755 m 1,26,27
 338 788 338 788 360.5 821.5 c 128,-1,28
 383 855 383 855 406 888 c 1,29,-1
 444 888 l 1,30,-1
 345 755 l 1,31,-1
 315 755 l 1,26,27
EndSplineSet
Validated: 1
EndChar

StartChar: Adieresis
Encoding: 196 196 116
Width: 640
Flags: W
LayerCount: 3
Fore
SplineSet
620 0 m 1,0,1
 599 49 599 49 574.5 109 c 128,-1,2
 550 169 550 169 523.5 235 c 128,-1,3
 497 301 497 301 470 369.5 c 128,-1,4
 443 438 443 438 416.5 504 c 128,-1,5
 390 570 390 570 365.5 630.5 c 128,-1,6
 341 691 341 691 321 740 c 1,7,8
 300 691 300 691 275.5 630.5 c 128,-1,9
 251 570 251 570 224.5 504 c 128,-1,10
 198 438 198 438 171 369.5 c 128,-1,11
 144 301 144 301 117.5 235 c 128,-1,12
 91 169 91 169 66.5 109 c 128,-1,13
 42 49 42 49 21 0 c 1,14,-1
 63 0 l 1,15,16
 89 63 89 63 118 136 c 128,-1,17
 147 209 147 209 177 287 c 1,18,-1
 463 287 l 1,19,20
 493 209 493 209 522.5 136 c 128,-1,21
 552 63 552 63 578 0 c 1,22,-1
 620 0 l 1,0,1
311 623 m 0,23,24
 313 628 313 628 316 636 c 128,-1,25
 319 644 319 644 321 652 c 1,26,-1
 330 623 l 1,27,28
 357 557 357 557 387.5 480.5 c 128,-1,29
 418 404 418 404 449 323 c 1,30,-1
 191 323 l 1,31,32
 223 404 223 404 253 480.5 c 128,-1,33
 283 557 283 557 311 623 c 0,23,24
377 801 m 0,34,35
 377 815 377 815 386 823.5 c 128,-1,36
 395 832 395 832 407 832 c 256,37,38
 419 832 419 832 428 823.5 c 128,-1,39
 437 815 437 815 437 801 c 0,40,41
 437 788 437 788 428 779.5 c 128,-1,42
 419 771 419 771 407 771 c 256,43,44
 395 771 395 771 386 779.5 c 128,-1,45
 377 788 377 788 377 801 c 0,34,35
205 801 m 0,46,47
 205 815 205 815 214 823.5 c 128,-1,48
 223 832 223 832 235 832 c 256,49,50
 247 832 247 832 256 823.5 c 128,-1,51
 265 815 265 815 265 801 c 0,52,53
 265 788 265 788 256 779.5 c 128,-1,54
 247 771 247 771 235 771 c 256,55,56
 223 771 223 771 214 779.5 c 128,-1,57
 205 788 205 788 205 801 c 0,46,47
EndSplineSet
Validated: 9
EndChar

StartChar: Edieresis
Encoding: 203 203 117
Width: 611
Flags: W
LayerCount: 3
Fore
SplineSet
111 0 m 1,0,-1
 111 707 l 1,1,-1
 544 707 l 1,2,-1
 544 669 l 1,3,-1
 153 669 l 1,4,-1
 153 375 l 1,5,-1
 504 375 l 1,6,-1
 504 337 l 1,7,-1
 153 337 l 1,8,-1
 153 39 l 1,9,-1
 558 39 l 1,10,-1
 558 0 l 1,11,-1
 111 0 l 1,0,-1
394 801 m 0,12,13
 394 815 394 815 403 823.5 c 128,-1,14
 412 832 412 832 424 832 c 256,15,16
 436 832 436 832 445 823.5 c 128,-1,17
 454 815 454 815 454 801 c 0,18,19
 454 788 454 788 445 779.5 c 128,-1,20
 436 771 436 771 424 771 c 256,21,22
 412 771 412 771 403 779.5 c 128,-1,23
 394 788 394 788 394 801 c 0,12,13
222 801 m 0,24,25
 222 815 222 815 231 823.5 c 128,-1,26
 240 832 240 832 252 832 c 256,27,28
 264 832 264 832 273 823.5 c 128,-1,29
 282 815 282 815 282 801 c 0,30,31
 282 788 282 788 273 779.5 c 128,-1,32
 264 771 264 771 252 771 c 256,33,34
 240 771 240 771 231 779.5 c 128,-1,35
 222 788 222 788 222 801 c 0,24,25
EndSplineSet
Validated: 1
EndChar

StartChar: Idieresis
Encoding: 207 207 118
Width: 263
Flags: W
LayerCount: 3
Fore
SplineSet
111 707 m 1,0,-1
 152 707 l 1,1,-1
 152 0 l 1,2,-1
 111 0 l 1,3,-1
 111 707 l 1,0,-1
188 801 m 0,4,5
 188 815 188 815 197 823.5 c 128,-1,6
 206 832 206 832 218 832 c 256,7,8
 230 832 230 832 239 823.5 c 128,-1,9
 248 815 248 815 248 801 c 0,10,11
 248 788 248 788 239 779.5 c 128,-1,12
 230 771 230 771 218 771 c 256,13,14
 206 771 206 771 197 779.5 c 128,-1,15
 188 788 188 788 188 801 c 0,4,5
16 801 m 0,16,17
 16 815 16 815 25 823.5 c 128,-1,18
 34 832 34 832 46 832 c 256,19,20
 58 832 58 832 67 823.5 c 128,-1,21
 76 815 76 815 76 801 c 0,22,23
 76 788 76 788 67 779.5 c 128,-1,24
 58 771 58 771 46 771 c 256,25,26
 34 771 34 771 25 779.5 c 128,-1,27
 16 788 16 788 16 801 c 0,16,17
EndSplineSet
Validated: 1
EndChar

StartChar: Odieresis
Encoding: 214 214 119
Width: 831
Flags: W
LayerCount: 3
Fore
SplineSet
54 353 m 256,0,1
 54 428 54 428 82.5 493.5 c 128,-1,2
 111 559 111 559 159.5 608.5 c 128,-1,3
 208 658 208 658 273.5 686.5 c 128,-1,4
 339 715 339 715 414 715 c 256,5,6
 489 715 489 715 555 686.5 c 128,-1,7
 621 658 621 658 670.5 608.5 c 128,-1,8
 720 559 720 559 748.5 493.5 c 128,-1,9
 777 428 777 428 777 353 c 256,10,11
 777 278 777 278 748.5 212.5 c 128,-1,12
 720 147 720 147 670.5 98 c 128,-1,13
 621 49 621 49 555 20.5 c 128,-1,14
 489 -8 489 -8 414 -8 c 256,15,16
 339 -8 339 -8 273.5 20.5 c 128,-1,17
 208 49 208 49 159.5 98 c 128,-1,18
 111 147 111 147 82.5 212.5 c 128,-1,19
 54 278 54 278 54 353 c 256,0,1
95 352 m 0,20,21
 95 286 95 286 120 227.5 c 128,-1,22
 145 169 145 169 188.5 125.5 c 128,-1,23
 232 82 232 82 289.5 56.5 c 128,-1,24
 347 31 347 31 413 31 c 256,25,26
 479 31 479 31 538 56.5 c 128,-1,27
 597 82 597 82 641 125.5 c 128,-1,28
 685 169 685 169 710.5 227.5 c 128,-1,29
 736 286 736 286 736 353 c 0,30,31
 736 419 736 419 710.5 478 c 128,-1,32
 685 537 685 537 641.5 580.5 c 128,-1,33
 598 624 598 624 539.5 649.5 c 128,-1,34
 481 675 481 675 415 675 c 256,35,36
 349 675 349 675 290.5 649.5 c 128,-1,37
 232 624 232 624 188.5 580 c 128,-1,38
 145 536 145 536 120 477.5 c 128,-1,39
 95 419 95 419 95 352 c 0,20,21
466 801 m 0,40,41
 466 815 466 815 475 823.5 c 128,-1,42
 484 832 484 832 496 832 c 256,43,44
 508 832 508 832 517 823.5 c 128,-1,45
 526 815 526 815 526 801 c 0,46,47
 526 788 526 788 517 779.5 c 128,-1,48
 508 771 508 771 496 771 c 256,49,50
 484 771 484 771 475 779.5 c 128,-1,51
 466 788 466 788 466 801 c 0,40,41
294 801 m 0,52,53
 294 815 294 815 303 823.5 c 128,-1,54
 312 832 312 832 324 832 c 256,55,56
 336 832 336 832 345 823.5 c 128,-1,57
 354 815 354 815 354 801 c 0,58,59
 354 788 354 788 345 779.5 c 128,-1,60
 336 771 336 771 324 771 c 256,61,62
 312 771 312 771 303 779.5 c 128,-1,63
 294 788 294 788 294 801 c 0,52,53
EndSplineSet
Validated: 1
EndChar

StartChar: Udieresis
Encoding: 220 220 120
Width: 684
Flags: W
LayerCount: 3
Fore
SplineSet
342 -8 m 256,0,1
 291 -8 291 -8 247 8 c 128,-1,2
 203 24 203 24 171 55 c 128,-1,3
 139 86 139 86 120.5 131.5 c 128,-1,4
 102 177 102 177 102 235 c 2,5,-1
 102 707 l 1,6,-1
 144 707 l 1,7,-1
 144 238 l 2,8,9
 144 190 144 190 159 151.5 c 128,-1,10
 174 113 174 113 200 86 c 128,-1,11
 226 59 226 59 262.5 45 c 128,-1,12
 299 31 299 31 342 31 c 0,13,14
 384 31 384 31 420.5 45 c 128,-1,15
 457 59 457 59 483.5 86 c 128,-1,16
 510 113 510 113 525 151.5 c 128,-1,17
 540 190 540 190 540 238 c 2,18,-1
 540 707 l 1,19,-1
 582 707 l 1,20,-1
 582 235 l 2,21,22
 582 177 582 177 563.5 131.5 c 128,-1,23
 545 86 545 86 512.5 55 c 128,-1,24
 480 24 480 24 436.5 8 c 128,-1,25
 393 -8 393 -8 342 -8 c 256,0,1
410 801 m 0,26,27
 410 815 410 815 419 823.5 c 128,-1,28
 428 832 428 832 440 832 c 256,29,30
 452 832 452 832 461 823.5 c 128,-1,31
 470 815 470 815 470 801 c 0,32,33
 470 788 470 788 461 779.5 c 128,-1,34
 452 771 452 771 440 771 c 256,35,36
 428 771 428 771 419 779.5 c 128,-1,37
 410 788 410 788 410 801 c 0,26,27
238 801 m 0,38,39
 238 815 238 815 247 823.5 c 128,-1,40
 256 832 256 832 268 832 c 256,41,42
 280 832 280 832 289 823.5 c 128,-1,43
 298 815 298 815 298 801 c 0,44,45
 298 788 298 788 289 779.5 c 128,-1,46
 280 771 280 771 268 771 c 256,47,48
 256 771 256 771 247 779.5 c 128,-1,49
 238 788 238 788 238 801 c 0,38,39
EndSplineSet
Validated: 1
EndChar

StartChar: Agrave
Encoding: 192 192 121
Width: 640
Flags: W
LayerCount: 3
Fore
SplineSet
620 0 m 1,0,1
 599 49 599 49 574.5 109 c 128,-1,2
 550 169 550 169 523.5 235 c 128,-1,3
 497 301 497 301 470 369.5 c 128,-1,4
 443 438 443 438 416.5 504 c 128,-1,5
 390 570 390 570 365.5 630.5 c 128,-1,6
 341 691 341 691 321 740 c 1,7,8
 300 691 300 691 275.5 630.5 c 128,-1,9
 251 570 251 570 224.5 504 c 128,-1,10
 198 438 198 438 171 369.5 c 128,-1,11
 144 301 144 301 117.5 235 c 128,-1,12
 91 169 91 169 66.5 109 c 128,-1,13
 42 49 42 49 21 0 c 1,14,-1
 63 0 l 1,15,16
 89 63 89 63 118 136 c 128,-1,17
 147 209 147 209 177 287 c 1,18,-1
 463 287 l 1,19,20
 493 209 493 209 522.5 136 c 128,-1,21
 552 63 552 63 578 0 c 1,22,-1
 620 0 l 1,0,1
311 623 m 0,23,24
 313 628 313 628 316 636 c 128,-1,25
 319 644 319 644 321 652 c 1,26,-1
 330 623 l 1,27,28
 357 557 357 557 387.5 480.5 c 128,-1,29
 418 404 418 404 449 323 c 1,30,-1
 191 323 l 1,31,32
 223 404 223 404 253 480.5 c 128,-1,33
 283 557 283 557 311 623 c 0,23,24
250 888 m 1,34,-1
 340 755 l 1,35,-1
 311 755 l 1,36,-1
 212 888 l 1,37,-1
 250 888 l 1,34,-1
EndSplineSet
Validated: 9
EndChar

StartChar: Egrave
Encoding: 200 200 122
Width: 611
Flags: W
LayerCount: 3
Fore
SplineSet
111 0 m 1,0,-1
 111 707 l 1,1,-1
 544 707 l 1,2,-1
 544 669 l 1,3,-1
 153 669 l 1,4,-1
 153 375 l 1,5,-1
 504 375 l 1,6,-1
 504 337 l 1,7,-1
 153 337 l 1,8,-1
 153 39 l 1,9,-1
 558 39 l 1,10,-1
 558 0 l 1,11,-1
 111 0 l 1,0,-1
293 888 m 1,12,-1
 383 755 l 1,13,-1
 354 755 l 1,14,-1
 255 888 l 1,15,-1
 293 888 l 1,12,-1
EndSplineSet
Validated: 1
EndChar

StartChar: Igrave
Encoding: 204 204 123
Width: 263
Flags: W
LayerCount: 3
Fore
SplineSet
111 707 m 1,0,-1
 152 707 l 1,1,-1
 152 0 l 1,2,-1
 111 0 l 1,3,-1
 111 707 l 1,0,-1
70 888 m 1,4,-1
 160 755 l 1,5,-1
 131 755 l 1,6,-1
 32 888 l 1,7,-1
 70 888 l 1,4,-1
EndSplineSet
Validated: 1
EndChar

StartChar: Ograve
Encoding: 210 210 124
Width: 831
Flags: W
LayerCount: 3
Fore
SplineSet
54 353 m 256,0,1
 54 428 54 428 82.5 493.5 c 128,-1,2
 111 559 111 559 159.5 608.5 c 128,-1,3
 208 658 208 658 273.5 686.5 c 128,-1,4
 339 715 339 715 414 715 c 256,5,6
 489 715 489 715 555 686.5 c 128,-1,7
 621 658 621 658 670.5 608.5 c 128,-1,8
 720 559 720 559 748.5 493.5 c 128,-1,9
 777 428 777 428 777 353 c 256,10,11
 777 278 777 278 748.5 212.5 c 128,-1,12
 720 147 720 147 670.5 98 c 128,-1,13
 621 49 621 49 555 20.5 c 128,-1,14
 489 -8 489 -8 414 -8 c 256,15,16
 339 -8 339 -8 273.5 20.5 c 128,-1,17
 208 49 208 49 159.5 98 c 128,-1,18
 111 147 111 147 82.5 212.5 c 128,-1,19
 54 278 54 278 54 353 c 256,0,1
95 352 m 0,20,21
 95 286 95 286 120 227.5 c 128,-1,22
 145 169 145 169 188.5 125.5 c 128,-1,23
 232 82 232 82 289.5 56.5 c 128,-1,24
 347 31 347 31 413 31 c 256,25,26
 479 31 479 31 538 56.5 c 128,-1,27
 597 82 597 82 641 125.5 c 128,-1,28
 685 169 685 169 710.5 227.5 c 128,-1,29
 736 286 736 286 736 353 c 0,30,31
 736 419 736 419 710.5 478 c 128,-1,32
 685 537 685 537 641.5 580.5 c 128,-1,33
 598 624 598 624 539.5 649.5 c 128,-1,34
 481 675 481 675 415 675 c 256,35,36
 349 675 349 675 290.5 649.5 c 128,-1,37
 232 624 232 624 188.5 580 c 128,-1,38
 145 536 145 536 120 477.5 c 128,-1,39
 95 419 95 419 95 352 c 0,20,21
348 888 m 1,40,-1
 438 755 l 1,41,-1
 409 755 l 1,42,-1
 310 888 l 1,43,-1
 348 888 l 1,40,-1
EndSplineSet
Validated: 1
EndChar

StartChar: Ugrave
Encoding: 217 217 125
Width: 684
Flags: W
LayerCount: 3
Fore
SplineSet
342 -8 m 256,0,1
 291 -8 291 -8 247 8 c 128,-1,2
 203 24 203 24 171 55 c 128,-1,3
 139 86 139 86 120.5 131.5 c 128,-1,4
 102 177 102 177 102 235 c 2,5,-1
 102 707 l 1,6,-1
 144 707 l 1,7,-1
 144 238 l 2,8,9
 144 190 144 190 159 151.5 c 128,-1,10
 174 113 174 113 200 86 c 128,-1,11
 226 59 226 59 262.5 45 c 128,-1,12
 299 31 299 31 342 31 c 0,13,14
 384 31 384 31 420.5 45 c 128,-1,15
 457 59 457 59 483.5 86 c 128,-1,16
 510 113 510 113 525 151.5 c 128,-1,17
 540 190 540 190 540 238 c 2,18,-1
 540 707 l 1,19,-1
 582 707 l 1,20,-1
 582 235 l 2,21,22
 582 177 582 177 563.5 131.5 c 128,-1,23
 545 86 545 86 512.5 55 c 128,-1,24
 480 24 480 24 436.5 8 c 128,-1,25
 393 -8 393 -8 342 -8 c 256,0,1
286 888 m 1,26,-1
 376 755 l 1,27,-1
 347 755 l 1,28,-1
 248 888 l 1,29,-1
 286 888 l 1,26,-1
EndSplineSet
Validated: 1
EndChar

StartChar: Yacute
Encoding: 221 221 126
Width: 612
Flags: W
LayerCount: 3
Fore
SplineSet
327 255 m 1,0,-1
 327 0 l 1,1,-1
 285 0 l 1,2,-1
 285 255 l 1,3,4
 259 299 259 299 224 358.5 c 128,-1,5
 189 418 189 418 153 481 c 128,-1,6
 117 544 117 544 82 603.5 c 128,-1,7
 47 663 47 663 21 707 c 1,8,-1
 68 707 l 1,9,10
 92 667 92 667 120.5 619 c 128,-1,11
 149 571 149 571 178.5 520 c 128,-1,12
 208 469 208 469 237.5 417.5 c 128,-1,13
 267 366 267 366 294 319 c 1,14,-1
 307 291 l 1,15,-1
 318 319 l 1,16,17
 345 366 345 366 375 417.5 c 128,-1,18
 405 469 405 469 434 520 c 128,-1,19
 463 571 463 571 491 619 c 128,-1,20
 519 667 519 667 543 707 c 1,21,-1
 590 707 l 1,22,-1
 327 255 l 1,0,-1
288 755 m 1,23,24
 311 788 311 788 333.5 821.5 c 128,-1,25
 356 855 356 855 379 888 c 1,26,-1
 417 888 l 1,27,-1
 318 755 l 1,28,-1
 288 755 l 1,23,24
EndSplineSet
Validated: 1
EndChar

StartChar: exclamdown
Encoding: 161 161 127
Width: 232
Flags: W
LayerCount: 3
Fore
SplineSet
98 375 m 1,0,-1
 134 375 l 1,1,-1
 134 -211 l 1,2,-1
 98 -211 l 1,3,-1
 98 375 l 1,0,-1
116 517 m 0,4,5
 128 517 128 517 137 508.5 c 128,-1,6
 146 500 146 500 146 487 c 0,7,8
 146 473 146 473 137 464.5 c 128,-1,9
 128 456 128 456 116 456 c 0,10,11
 105 456 105 456 96 464.5 c 128,-1,12
 87 473 87 473 87 487 c 0,13,14
 87 500 87 500 96 508.5 c 128,-1,15
 105 517 105 517 116 517 c 0,4,5
EndSplineSet
Validated: 1
EndChar

StartChar: Oslash
Encoding: 216 216 128
Width: 831
Flags: W
LayerCount: 3
Fore
SplineSet
54 353 m 0,0,1
 54 428 54 428 82.5 493.5 c 128,-1,2
 111 559 111 559 159.5 608.5 c 128,-1,3
 208 658 208 658 273.5 686.5 c 128,-1,4
 339 715 339 715 414 715 c 0,5,6
 474 715 474 715 527.5 696.5 c 128,-1,7
 581 678 581 678 626 646 c 1,8,-1
 689 721 l 1,9,-1
 710 701 l 1,10,-1
 649 628 l 1,11,12
 708 578 708 578 742.5 507 c 128,-1,13
 777 436 777 436 777 353 c 0,14,15
 777 278 777 278 748.5 212.5 c 128,-1,16
 720 147 720 147 670.5 98 c 128,-1,17
 621 49 621 49 555 20.5 c 128,-1,18
 489 -8 489 -8 414 -8 c 0,19,20
 348 -8 348 -8 289 14 c 128,-1,21
 230 36 230 36 183 76 c 1,22,-1
 116 -5 l 1,23,-1
 95 14 l 1,24,-1
 163 95 l 1,25,26
 112 144 112 144 83 210.5 c 128,-1,27
 54 277 54 277 54 353 c 0,0,1
208 106 m 1,28,29
 250 71 250 71 302 51 c 128,-1,30
 354 31 354 31 413 31 c 0,31,32
 479 31 479 31 538 56.5 c 128,-1,33
 597 82 597 82 641 125.5 c 128,-1,34
 685 169 685 169 710.5 227.5 c 128,-1,35
 736 286 736 286 736 353 c 0,36,37
 736 426 736 426 705.5 489 c 128,-1,38
 675 552 675 552 623 597 c 1,39,40
 577 543 577 543 523.5 480 c 128,-1,41
 470 417 470 417 415.5 352 c 128,-1,42
 361 287 361 287 307.5 224 c 128,-1,43
 254 161 254 161 208 106 c 1,28,29
95 352 m 256,44,45
 95 285 95 285 120 227 c 128,-1,46
 145 169 145 169 188 125 c 1,47,48
 234 179 234 179 287 242.5 c 128,-1,49
 340 306 340 306 394.5 370.5 c 128,-1,50
 449 435 449 435 502 498 c 128,-1,51
 555 561 555 561 600 615 c 1,52,53
 561 643 561 643 514 659 c 128,-1,54
 467 675 467 675 415 675 c 0,55,56
 349 675 349 675 290.5 649.5 c 128,-1,57
 232 624 232 624 188.5 580 c 128,-1,58
 145 536 145 536 120 477.5 c 128,-1,59
 95 419 95 419 95 352 c 256,44,45
EndSplineSet
Validated: 1
EndChar

StartChar: questiondown
Encoding: 191 191 129
Width: 479
Flags: W
LayerCount: 3
Fore
SplineSet
409 -45 m 1,0,-1
 442 -56 l 1,1,2
 433 -83 433 -83 416.5 -108 c 128,-1,3
 400 -133 400 -133 376 -152.5 c 128,-1,4
 352 -172 352 -172 320.5 -184 c 128,-1,5
 289 -196 289 -196 251 -196 c 0,6,7
 210 -196 210 -196 174 -180.5 c 128,-1,8
 138 -165 138 -165 111.5 -138.5 c 128,-1,9
 85 -112 85 -112 69.5 -76.5 c 128,-1,10
 54 -41 54 -41 54 0 c 0,11,12
 54 54 54 54 80.5 95.5 c 128,-1,13
 107 137 107 137 153 169 c 0,14,15
 171 182 171 182 187.5 192 c 128,-1,16
 204 202 204 202 216.5 214.5 c 128,-1,17
 229 227 229 227 237 246 c 128,-1,18
 245 265 245 265 245 296 c 2,19,-1
 245 374 l 1,20,-1
 281 374 l 1,21,-1
 281 277 l 2,22,23
 281 246 281 246 270 226.5 c 128,-1,24
 259 207 259 207 241.5 192.5 c 128,-1,25
 224 178 224 178 201 164 c 128,-1,26
 178 150 178 150 154 129 c 0,27,28
 91 76 91 76 91 0 c 0,29,30
 91 -35 91 -35 103 -64 c 128,-1,31
 115 -93 115 -93 136.5 -114.5 c 128,-1,32
 158 -136 158 -136 187.5 -148 c 128,-1,33
 217 -160 217 -160 251 -160 c 0,34,35
 310 -160 310 -160 351 -129.5 c 128,-1,36
 392 -99 392 -99 409 -45 c 1,0,-1
264 522 m 256,37,38
 275 522 275 522 284 513.5 c 128,-1,39
 293 505 293 505 293 492 c 0,40,41
 293 478 293 478 284 469.5 c 128,-1,42
 275 461 275 461 264 461 c 256,43,44
 253 461 253 461 243.5 469.5 c 128,-1,45
 234 478 234 478 234 492 c 0,46,47
 234 505 234 505 243.5 513.5 c 128,-1,48
 253 522 253 522 264 522 c 256,37,38
EndSplineSet
Validated: 1
EndChar

StartChar: Atilde
Encoding: 195 195 130
Width: 640
Flags: W
LayerCount: 3
Fore
SplineSet
620 0 m 1,0,1
 599 49 599 49 574.5 109 c 128,-1,2
 550 169 550 169 523.5 235 c 128,-1,3
 497 301 497 301 470 369.5 c 128,-1,4
 443 438 443 438 416.5 504 c 128,-1,5
 390 570 390 570 365.5 630.5 c 128,-1,6
 341 691 341 691 321 740 c 1,7,8
 300 691 300 691 275.5 630.5 c 128,-1,9
 251 570 251 570 224.5 504 c 128,-1,10
 198 438 198 438 171 369.5 c 128,-1,11
 144 301 144 301 117.5 235 c 128,-1,12
 91 169 91 169 66.5 109 c 128,-1,13
 42 49 42 49 21 0 c 1,14,-1
 63 0 l 1,15,16
 89 63 89 63 118 136 c 128,-1,17
 147 209 147 209 177 287 c 1,18,-1
 463 287 l 1,19,20
 493 209 493 209 522.5 136 c 128,-1,21
 552 63 552 63 578 0 c 1,22,-1
 620 0 l 1,0,1
311 623 m 0,23,24
 313 628 313 628 316 636 c 128,-1,25
 319 644 319 644 321 652 c 1,26,-1
 330 623 l 1,27,28
 357 557 357 557 387.5 480.5 c 128,-1,29
 418 404 418 404 449 323 c 1,30,-1
 191 323 l 1,31,32
 223 404 223 404 253 480.5 c 128,-1,33
 283 557 283 557 311 623 c 0,23,24
313 789 m 256,34,35
 297 806 297 806 285 812 c 128,-1,36
 273 818 273 818 259 818 c 0,37,38
 251 818 251 818 241.5 816 c 128,-1,39
 232 814 232 814 222.5 808 c 128,-1,40
 213 802 213 802 206 791.5 c 128,-1,41
 199 781 199 781 197 765 c 1,42,-1
 174 768 l 1,43,44
 175 787 175 787 183 801 c 128,-1,45
 191 815 191 815 203 824 c 128,-1,46
 215 833 215 833 230 837.5 c 128,-1,47
 245 842 245 842 259 842 c 0,48,49
 280 842 280 842 297.5 832 c 128,-1,50
 315 822 315 822 331 805 c 256,51,52
 347 788 347 788 359 782 c 128,-1,53
 371 776 371 776 385 776 c 0,54,55
 392 776 392 776 402 778 c 128,-1,56
 412 780 412 780 421.5 786 c 128,-1,57
 431 792 431 792 438 802.5 c 128,-1,58
 445 813 445 813 447 829 c 1,59,-1
 470 826 l 1,60,61
 469 807 469 807 461 793.5 c 128,-1,62
 453 780 453 780 441 771 c 128,-1,63
 429 762 429 762 414 757.5 c 128,-1,64
 399 753 399 753 385 753 c 0,65,66
 364 753 364 753 346.5 762.5 c 128,-1,67
 329 772 329 772 313 789 c 256,34,35
EndSplineSet
Validated: 9
EndChar

StartChar: Otilde
Encoding: 213 213 131
Width: 831
Flags: W
LayerCount: 3
Fore
SplineSet
54 353 m 256,0,1
 54 428 54 428 82.5 493.5 c 128,-1,2
 111 559 111 559 159.5 608.5 c 128,-1,3
 208 658 208 658 273.5 686.5 c 128,-1,4
 339 715 339 715 414 715 c 256,5,6
 489 715 489 715 555 686.5 c 128,-1,7
 621 658 621 658 670.5 608.5 c 128,-1,8
 720 559 720 559 748.5 493.5 c 128,-1,9
 777 428 777 428 777 353 c 256,10,11
 777 278 777 278 748.5 212.5 c 128,-1,12
 720 147 720 147 670.5 98 c 128,-1,13
 621 49 621 49 555 20.5 c 128,-1,14
 489 -8 489 -8 414 -8 c 256,15,16
 339 -8 339 -8 273.5 20.5 c 128,-1,17
 208 49 208 49 159.5 98 c 128,-1,18
 111 147 111 147 82.5 212.5 c 128,-1,19
 54 278 54 278 54 353 c 256,0,1
95 352 m 0,20,21
 95 286 95 286 120 227.5 c 128,-1,22
 145 169 145 169 188.5 125.5 c 128,-1,23
 232 82 232 82 289.5 56.5 c 128,-1,24
 347 31 347 31 413 31 c 256,25,26
 479 31 479 31 538 56.5 c 128,-1,27
 597 82 597 82 641 125.5 c 128,-1,28
 685 169 685 169 710.5 227.5 c 128,-1,29
 736 286 736 286 736 353 c 0,30,31
 736 419 736 419 710.5 478 c 128,-1,32
 685 537 685 537 641.5 580.5 c 128,-1,33
 598 624 598 624 539.5 649.5 c 128,-1,34
 481 675 481 675 415 675 c 256,35,36
 349 675 349 675 290.5 649.5 c 128,-1,37
 232 624 232 624 188.5 580 c 128,-1,38
 145 536 145 536 120 477.5 c 128,-1,39
 95 419 95 419 95 352 c 0,20,21
396 824 m 256,40,41
 380 841 380 841 368 847 c 128,-1,42
 356 853 356 853 342 853 c 0,43,44
 334 853 334 853 324.5 851 c 128,-1,45
 315 849 315 849 305.5 843 c 128,-1,46
 296 837 296 837 289 826.5 c 128,-1,47
 282 816 282 816 280 800 c 1,48,-1
 257 803 l 1,49,50
 258 822 258 822 266 836 c 128,-1,51
 274 850 274 850 286 859 c 128,-1,52
 298 868 298 868 313 872.5 c 128,-1,53
 328 877 328 877 342 877 c 0,54,55
 363 877 363 877 380.5 867 c 128,-1,56
 398 857 398 857 414 840 c 256,57,58
 430 823 430 823 442 817 c 128,-1,59
 454 811 454 811 468 811 c 0,60,61
 475 811 475 811 485 813 c 128,-1,62
 495 815 495 815 504.5 821 c 128,-1,63
 514 827 514 827 521 837.5 c 128,-1,64
 528 848 528 848 530 864 c 1,65,-1
 553 861 l 1,66,67
 552 842 552 842 544 828.5 c 128,-1,68
 536 815 536 815 524 806 c 128,-1,69
 512 797 512 797 497 792.5 c 128,-1,70
 482 788 482 788 468 788 c 0,71,72
 447 788 447 788 429.5 797.5 c 128,-1,73
 412 807 412 807 396 824 c 256,40,41
EndSplineSet
Validated: 1
EndChar

StartChar: acircumflex
Encoding: 226 226 132
Width: 514
Flags: W
LayerCount: 3
Fore
SplineSet
39 193 m 0,0,1
 39 235 39 235 55 272 c 128,-1,2
 71 309 71 309 98 336.5 c 128,-1,3
 125 364 125 364 161.5 380 c 128,-1,4
 198 396 198 396 240 396 c 0,5,6
 270 396 270 396 297 387.5 c 128,-1,7
 324 379 324 379 346 364 c 128,-1,8
 368 349 368 349 384.5 329.5 c 128,-1,9
 401 310 401 310 410 288 c 1,10,11
 410 313 410 313 411 338 c 128,-1,12
 412 363 412 363 414 387 c 1,13,-1
 444 387 l 1,14,-1
 444 0 l 1,15,-1
 410 0 l 1,16,-1
 410 99 l 1,17,18
 393 55 393 55 348 24 c 128,-1,19
 303 -7 303 -7 240 -7 c 0,20,21
 197 -7 197 -7 160.5 9 c 128,-1,22
 124 25 124 25 97 52 c 128,-1,23
 70 79 70 79 54.5 115.5 c 128,-1,24
 39 152 39 152 39 193 c 0,0,1
73 194 m 256,25,26
 73 159 73 159 86 128.5 c 128,-1,27
 99 98 99 98 121.5 75.5 c 128,-1,28
 144 53 144 53 175 40 c 128,-1,29
 206 27 206 27 241 27 c 256,30,31
 276 27 276 27 307 40 c 128,-1,32
 338 53 338 53 361 75.5 c 128,-1,33
 384 98 384 98 397 128.5 c 128,-1,34
 410 159 410 159 410 194 c 256,35,36
 410 229 410 229 397 260 c 128,-1,37
 384 291 384 291 361 313.5 c 128,-1,38
 338 336 338 336 307 349 c 128,-1,39
 276 362 276 362 241 362 c 256,40,41
 206 362 206 362 175 349 c 128,-1,42
 144 336 144 336 121.5 313.5 c 128,-1,43
 99 291 99 291 86 260 c 128,-1,44
 73 229 73 229 73 194 c 256,25,26
269 662 m 1,45,-1
 389 480 l 1,46,-1
 360 480 l 1,47,-1
 269 612 l 1,48,-1
 178 480 l 1,49,-1
 148 480 l 1,50,51
 179 525 179 525 209 570.5 c 128,-1,52
 239 616 239 616 269 662 c 1,45,-1
EndSplineSet
Validated: 1
EndChar

StartChar: ecircumflex
Encoding: 234 234 133
Width: 440
Flags: W
LayerCount: 3
Fore
SplineSet
382 47 m 1,0,1
 355 22 355 22 318.5 7.5 c 128,-1,2
 282 -7 282 -7 241 -7 c 0,3,4
 199 -7 199 -7 162 9 c 128,-1,5
 125 25 125 25 97.5 52 c 128,-1,6
 70 79 70 79 54.5 115.5 c 128,-1,7
 39 152 39 152 39 194 c 256,8,9
 39 236 39 236 55 273 c 128,-1,10
 71 310 71 310 98 337.5 c 128,-1,11
 125 365 125 365 161.5 381 c 128,-1,12
 198 397 198 397 240 397 c 0,13,14
 304 397 304 397 349.5 359.5 c 128,-1,15
 395 322 395 322 417 264 c 1,16,17
 381 250 381 250 339 233 c 128,-1,18
 297 216 297 216 253 198 c 128,-1,19
 209 180 209 180 166 162.5 c 128,-1,20
 123 145 123 145 85 130 c 1,21,22
 104 84 104 84 145.5 55.5 c 128,-1,23
 187 27 187 27 240 27 c 0,24,25
 274 27 274 27 304 39 c 128,-1,26
 334 51 334 51 356 72 c 1,27,-1
 382 47 l 1,0,1
373 274 m 1,28,29
 355 314 355 314 320.5 338 c 128,-1,30
 286 362 286 362 240 362 c 0,31,32
 205 362 205 362 174.5 348.5 c 128,-1,33
 144 335 144 335 121.5 312.5 c 128,-1,34
 99 290 99 290 86 259.5 c 128,-1,35
 73 229 73 229 73 195 c 0,36,37
 73 184 73 184 74.5 174 c 128,-1,38
 76 164 76 164 78 154 c 1,39,40
 112 168 112 168 150 183.5 c 128,-1,41
 188 199 188 199 226.5 214.5 c 128,-1,42
 265 230 265 230 302.5 245 c 128,-1,43
 340 260 340 260 373 274 c 1,28,29
234 663 m 1,44,-1
 354 481 l 1,45,-1
 325 481 l 1,46,-1
 234 613 l 1,47,-1
 143 481 l 1,48,-1
 113 481 l 1,49,50
 144 526 144 526 174 571.5 c 128,-1,51
 204 617 204 617 234 663 c 1,44,-1
EndSplineSet
Validated: 1
EndChar

StartChar: icircumflex
Encoding: 238 238 134
Width: 174
Flags: W
LayerCount: 3
Fore
SplineSet
104 0 m 1,0,-1
 70 0 l 1,1,-1
 70 387 l 1,2,-1
 104 387 l 1,3,-1
 104 0 l 1,0,-1
88 663 m 1,4,-1
 208 481 l 1,5,-1
 179 481 l 1,6,-1
 88 613 l 1,7,-1
 -3 481 l 1,8,-1
 -33 481 l 1,9,10
 -2 526 -2 526 28 571.5 c 128,-1,11
 58 617 58 617 88 663 c 1,4,-1
EndSplineSet
Validated: 1
EndChar

StartChar: ocircumflex
Encoding: 244 244 135
Width: 485
Flags: W
LayerCount: 3
Fore
SplineSet
40 194 m 0,0,1
 40 236 40 236 56 273 c 128,-1,2
 72 310 72 310 99.5 337.5 c 128,-1,3
 127 365 127 365 164 381 c 128,-1,4
 201 397 201 397 243 397 c 256,5,6
 285 397 285 397 322 381 c 128,-1,7
 359 365 359 365 386.5 337.5 c 128,-1,8
 414 310 414 310 430 273 c 128,-1,9
 446 236 446 236 446 194 c 256,10,11
 446 152 446 152 430 115.5 c 128,-1,12
 414 79 414 79 386.5 52 c 128,-1,13
 359 25 359 25 322 9 c 128,-1,14
 285 -7 285 -7 242 -7 c 0,15,16
 200 -7 200 -7 163 8.5 c 128,-1,17
 126 24 126 24 99 51 c 128,-1,18
 72 78 72 78 56 114.5 c 128,-1,19
 40 151 40 151 40 194 c 0,0,1
75 194 m 256,20,21
 75 159 75 159 88 128.5 c 128,-1,22
 101 98 101 98 123.5 75.5 c 128,-1,23
 146 53 146 53 176.5 40 c 128,-1,24
 207 27 207 27 242 27 c 256,25,26
 277 27 277 27 307.5 40 c 128,-1,27
 338 53 338 53 361 75.5 c 128,-1,28
 384 98 384 98 397 128.5 c 128,-1,29
 410 159 410 159 410 194 c 256,30,31
 410 229 410 229 397 259.5 c 128,-1,32
 384 290 384 290 361 313 c 128,-1,33
 338 336 338 336 307.5 349 c 128,-1,34
 277 362 277 362 242 362 c 256,35,36
 207 362 207 362 176.5 349 c 128,-1,37
 146 336 146 336 123.5 313 c 128,-1,38
 101 290 101 290 88 259.5 c 128,-1,39
 75 229 75 229 75 194 c 256,20,21
242 663 m 1,40,-1
 362 481 l 1,41,-1
 333 481 l 1,42,-1
 242 613 l 1,43,-1
 151 481 l 1,44,-1
 121 481 l 1,45,46
 152 526 152 526 182 571.5 c 128,-1,47
 212 617 212 617 242 663 c 1,40,-1
EndSplineSet
Validated: 1
EndChar

StartChar: ucircumflex
Encoding: 251 251 136
Width: 457
Flags: W
LayerCount: 3
Fore
SplineSet
387 -3 m 1,0,-1
 359 -3 l 1,1,-1
 356 101 l 1,2,3
 335 52 335 52 291 22 c 128,-1,4
 247 -8 247 -8 189 -8 c 0,5,6
 133 -8 133 -8 100.5 24.5 c 128,-1,7
 68 57 68 57 66 108 c 2,8,-1
 66 387 l 1,9,-1
 100 387 l 1,10,-1
 100 114 l 2,11,12
 102 79 102 79 125.5 54 c 128,-1,13
 149 29 149 29 193 26 c 0,14,15
 226 26 226 26 254.5 37 c 128,-1,16
 283 48 283 48 305 67 c 128,-1,17
 327 86 327 86 339.5 112.5 c 128,-1,18
 352 139 352 139 352 171 c 2,19,-1
 352 387 l 1,20,-1
 387 387 l 1,21,-1
 387 -3 l 1,0,-1
265 663 m 1,22,-1
 385 481 l 1,23,-1
 356 481 l 1,24,-1
 265 613 l 1,25,-1
 174 481 l 1,26,-1
 144 481 l 1,27,28
 175 526 175 526 205 571.5 c 128,-1,29
 235 617 235 617 265 663 c 1,22,-1
EndSplineSet
Validated: 1
EndChar

StartChar: atilde
Encoding: 227 227 137
Width: 514
Flags: W
LayerCount: 3
Fore
SplineSet
39 193 m 0,0,1
 39 235 39 235 55 272 c 128,-1,2
 71 309 71 309 98 336.5 c 128,-1,3
 125 364 125 364 161.5 380 c 128,-1,4
 198 396 198 396 240 396 c 0,5,6
 270 396 270 396 297 387.5 c 128,-1,7
 324 379 324 379 346 364 c 128,-1,8
 368 349 368 349 384.5 329.5 c 128,-1,9
 401 310 401 310 410 288 c 1,10,11
 410 313 410 313 411 338 c 128,-1,12
 412 363 412 363 414 387 c 1,13,-1
 444 387 l 1,14,-1
 444 0 l 1,15,-1
 410 0 l 1,16,-1
 410 99 l 1,17,18
 393 55 393 55 348 24 c 128,-1,19
 303 -7 303 -7 240 -7 c 0,20,21
 197 -7 197 -7 160.5 9 c 128,-1,22
 124 25 124 25 97 52 c 128,-1,23
 70 79 70 79 54.5 115.5 c 128,-1,24
 39 152 39 152 39 193 c 0,0,1
73 194 m 256,25,26
 73 159 73 159 86 128.5 c 128,-1,27
 99 98 99 98 121.5 75.5 c 128,-1,28
 144 53 144 53 175 40 c 128,-1,29
 206 27 206 27 241 27 c 256,30,31
 276 27 276 27 307 40 c 128,-1,32
 338 53 338 53 361 75.5 c 128,-1,33
 384 98 384 98 397 128.5 c 128,-1,34
 410 159 410 159 410 194 c 256,35,36
 410 229 410 229 397 260 c 128,-1,37
 384 291 384 291 361 313.5 c 128,-1,38
 338 336 338 336 307 349 c 128,-1,39
 276 362 276 362 241 362 c 256,40,41
 206 362 206 362 175 349 c 128,-1,42
 144 336 144 336 121.5 313.5 c 128,-1,43
 99 291 99 291 86 260 c 128,-1,44
 73 229 73 229 73 194 c 256,25,26
265 494 m 256,45,46
 249 511 249 511 237 517 c 128,-1,47
 225 523 225 523 211 523 c 0,48,49
 203 523 203 523 193.5 521 c 128,-1,50
 184 519 184 519 174.5 513 c 128,-1,51
 165 507 165 507 158 496.5 c 128,-1,52
 151 486 151 486 149 470 c 1,53,-1
 126 473 l 1,54,55
 127 492 127 492 135 506 c 128,-1,56
 143 520 143 520 155 529 c 128,-1,57
 167 538 167 538 182 542.5 c 128,-1,58
 197 547 197 547 211 547 c 0,59,60
 232 547 232 547 249.5 537 c 128,-1,61
 267 527 267 527 283 510 c 256,62,63
 299 493 299 493 311 487 c 128,-1,64
 323 481 323 481 337 481 c 0,65,66
 344 481 344 481 354 483 c 128,-1,67
 364 485 364 485 373.5 491 c 128,-1,68
 383 497 383 497 390 507.5 c 128,-1,69
 397 518 397 518 399 534 c 1,70,-1
 422 531 l 1,71,72
 421 512 421 512 413 498.5 c 128,-1,73
 405 485 405 485 393 476 c 128,-1,74
 381 467 381 467 366 462.5 c 128,-1,75
 351 458 351 458 337 458 c 0,76,77
 316 458 316 458 298.5 467.5 c 128,-1,78
 281 477 281 477 265 494 c 256,45,46
EndSplineSet
Validated: 1
EndChar

StartChar: grave
Encoding: 96 96 138
Width: 201
Flags: W
LayerCount: 3
Fore
SplineSet
12 614 m 1,0,-1
 102 481 l 1,1,-1
 73 481 l 1,2,-1
 -26 614 l 1,3,-1
 12 614 l 1,0,-1
EndSplineSet
Validated: 1
EndChar

StartChar: asciicircum
Encoding: 94 94 139
Width: 397
Flags: W
LayerCount: 3
Fore
SplineSet
199 663 m 1,0,-1
 319 481 l 1,1,-1
 290 481 l 1,2,-1
 199 613 l 1,3,-1
 108 481 l 1,4,-1
 78 481 l 1,5,6
 109 526 109 526 139 571.5 c 128,-1,7
 169 617 169 617 199 663 c 1,0,-1
EndSplineSet
Validated: 1
EndChar

StartChar: otilde
Encoding: 245 245 140
Width: 485
Flags: W
LayerCount: 3
Fore
SplineSet
40 194 m 0,0,1
 40 236 40 236 56 273 c 128,-1,2
 72 310 72 310 99.5 337.5 c 128,-1,3
 127 365 127 365 164 381 c 128,-1,4
 201 397 201 397 243 397 c 256,5,6
 285 397 285 397 322 381 c 128,-1,7
 359 365 359 365 386.5 337.5 c 128,-1,8
 414 310 414 310 430 273 c 128,-1,9
 446 236 446 236 446 194 c 256,10,11
 446 152 446 152 430 115.5 c 128,-1,12
 414 79 414 79 386.5 52 c 128,-1,13
 359 25 359 25 322 9 c 128,-1,14
 285 -7 285 -7 242 -7 c 0,15,16
 200 -7 200 -7 163 8.5 c 128,-1,17
 126 24 126 24 99 51 c 128,-1,18
 72 78 72 78 56 114.5 c 128,-1,19
 40 151 40 151 40 194 c 0,0,1
75 194 m 256,20,21
 75 159 75 159 88 128.5 c 128,-1,22
 101 98 101 98 123.5 75.5 c 128,-1,23
 146 53 146 53 176.5 40 c 128,-1,24
 207 27 207 27 242 27 c 256,25,26
 277 27 277 27 307.5 40 c 128,-1,27
 338 53 338 53 361 75.5 c 128,-1,28
 384 98 384 98 397 128.5 c 128,-1,29
 410 159 410 159 410 194 c 256,30,31
 410 229 410 229 397 259.5 c 128,-1,32
 384 290 384 290 361 313 c 128,-1,33
 338 336 338 336 307.5 349 c 128,-1,34
 277 362 277 362 242 362 c 256,35,36
 207 362 207 362 176.5 349 c 128,-1,37
 146 336 146 336 123.5 313 c 128,-1,38
 101 290 101 290 88 259.5 c 128,-1,39
 75 229 75 229 75 194 c 256,20,21
238 494 m 256,40,41
 222 511 222 511 210 517 c 128,-1,42
 198 523 198 523 184 523 c 0,43,44
 176 523 176 523 166.5 521 c 128,-1,45
 157 519 157 519 147.5 513 c 128,-1,46
 138 507 138 507 131 496.5 c 128,-1,47
 124 486 124 486 122 470 c 1,48,-1
 99 473 l 1,49,50
 100 492 100 492 108 506 c 128,-1,51
 116 520 116 520 128 529 c 128,-1,52
 140 538 140 538 155 542.5 c 128,-1,53
 170 547 170 547 184 547 c 0,54,55
 205 547 205 547 222.5 537 c 128,-1,56
 240 527 240 527 256 510 c 256,57,58
 272 493 272 493 284 487 c 128,-1,59
 296 481 296 481 310 481 c 0,60,61
 317 481 317 481 327 483 c 128,-1,62
 337 485 337 485 346.5 491 c 128,-1,63
 356 497 356 497 363 507.5 c 128,-1,64
 370 518 370 518 372 534 c 1,65,-1
 395 531 l 1,66,67
 394 512 394 512 386 498.5 c 128,-1,68
 378 485 378 485 366 476 c 128,-1,69
 354 467 354 467 339 462.5 c 128,-1,70
 324 458 324 458 310 458 c 0,71,72
 289 458 289 458 271.5 467.5 c 128,-1,73
 254 477 254 477 238 494 c 256,40,41
EndSplineSet
Validated: 1
EndChar

StartChar: quotesingle
Encoding: 39 39 141
Width: 189
Flags: W
LayerCount: 3
Fore
SplineSet
76 474 m 1,0,-1
 76 723 l 1,1,-1
 115 723 l 1,2,-1
 111 474 l 1,3,-1
 76 474 l 1,0,-1
EndSplineSet
Validated: 1
EndChar

StartChar: underscore
Encoding: 95 95 142
Width: 536
Flags: W
LayerCount: 3
Fore
SplineSet
469 0 m 1,0,-1
 67 0 l 1,1,-1
 67 35 l 1,2,-1
 469 35 l 1,3,-1
 469 0 l 1,0,-1
EndSplineSet
Validated: 1
EndChar

StartChar: bracketleft
Encoding: 91 91 143
Width: 300
Flags: W
LayerCount: 3
Fore
SplineSet
97 -150 m 1,0,-1
 97 749 l 1,1,-1
 270 749 l 1,2,-1
 270 713 l 1,3,-1
 135 713 l 1,4,-1
 135 -114 l 1,5,-1
 270 -114 l 1,6,-1
 270 -150 l 1,7,-1
 97 -150 l 1,0,-1
EndSplineSet
Validated: 1
EndChar

StartChar: bracketright
Encoding: 93 93 144
Width: 300
Flags: W
LayerCount: 3
Fore
SplineSet
203 749 m 1,0,-1
 203 -150 l 1,1,-1
 30 -150 l 1,2,-1
 30 -114 l 1,3,-1
 165 -114 l 1,4,-1
 165 713 l 1,5,-1
 30 713 l 1,6,-1
 30 749 l 1,7,-1
 203 749 l 1,0,-1
EndSplineSet
Validated: 1
EndChar

StartChar: degree
Encoding: 176 176 145
Width: 288
Flags: W
LayerCount: 3
Fore
SplineSet
145 504 m 0,0,1
 168 504 168 504 185.5 520.5 c 128,-1,2
 203 537 203 537 203 562 c 256,3,4
 203 587 203 587 185.5 603.5 c 128,-1,5
 168 620 168 620 145 620 c 0,6,7
 120 620 120 620 103 603.5 c 128,-1,8
 86 587 86 587 86 562 c 256,9,10
 86 537 86 537 103 520.5 c 128,-1,11
 120 504 120 504 145 504 c 0,0,1
59 562 m 256,12,13
 59 598 59 598 83.5 622 c 128,-1,14
 108 646 108 646 145 646 c 0,15,16
 180 646 180 646 204 622 c 128,-1,17
 228 598 228 598 228 562 c 256,18,19
 228 526 228 526 204 502 c 128,-1,20
 180 478 180 478 145 478 c 0,21,22
 108 478 108 478 83.5 502 c 128,-1,23
 59 526 59 526 59 562 c 256,12,13
EndSplineSet
Validated: 1
EndChar

StartChar: ccedilla
Encoding: 231 231 146
Width: 401
Flags: W
LayerCount: 3
Fore
SplineSet
346 63 m 1,0,1
 352 57 352 57 357.5 50.5 c 128,-1,2
 363 44 363 44 368 37 c 1,3,4
 342 17 342 17 310 5 c 128,-1,5
 278 -7 278 -7 241 -7 c 2,6,-1
 240 -7 l 1,7,8
 240 -33 240 -33 254 -43 c 128,-1,9
 268 -53 268 -53 281 -61 c 0,10,11
 304 -77 304 -77 313 -96 c 128,-1,12
 322 -115 322 -115 322 -132 c 0,13,14
 322 -181 322 -181 296 -207 c 128,-1,15
 270 -233 270 -233 231 -233 c 0,16,17
 202 -233 202 -233 177.5 -217 c 128,-1,18
 153 -201 153 -201 142 -169 c 1,19,20
 149 -167 149 -167 155 -164 c 128,-1,21
 161 -161 161 -161 167 -158 c 1,22,23
 173 -178 173 -178 189.5 -190.5 c 128,-1,24
 206 -203 206 -203 229 -203 c 0,25,26
 258 -203 258 -203 275.5 -184 c 128,-1,27
 293 -165 293 -165 293 -136 c 0,28,29
 293 -111 293 -111 280.5 -97 c 128,-1,30
 268 -83 268 -83 253.5 -72.5 c 128,-1,31
 239 -62 239 -62 226.5 -50.5 c 128,-1,32
 214 -39 214 -39 214 -18 c 2,33,-1
 214 -5 l 1,34,35
 176 -1 176 -1 144 16.5 c 128,-1,36
 112 34 112 34 89 60.5 c 128,-1,37
 66 87 66 87 52.5 121.5 c 128,-1,38
 39 156 39 156 39 194 c 0,39,40
 39 236 39 236 54.5 273 c 128,-1,41
 70 310 70 310 97.5 337 c 128,-1,42
 125 364 125 364 162 380 c 128,-1,43
 199 396 199 396 241 396 c 0,44,45
 278 396 278 396 310.5 384 c 128,-1,46
 343 372 343 372 369 352 c 1,47,48
 364 345 364 345 358 339 c 128,-1,49
 352 333 352 333 346 325 c 1,50,51
 325 342 325 342 298 352 c 128,-1,52
 271 362 271 362 241 362 c 0,53,54
 205 362 205 362 174.5 349 c 128,-1,55
 144 336 144 336 121.5 313.5 c 128,-1,56
 99 291 99 291 86 260 c 128,-1,57
 73 229 73 229 73 194 c 256,58,59
 73 159 73 159 86 128.5 c 128,-1,60
 99 98 99 98 121.5 75.5 c 128,-1,61
 144 53 144 53 174.5 40 c 128,-1,62
 205 27 205 27 241 27 c 0,63,64
 271 27 271 27 298 36.5 c 128,-1,65
 325 46 325 46 346 63 c 1,0,1
EndSplineSet
Validated: 1
EndChar

StartChar: Ccedilla
Encoding: 199 199 147
Width: 644
Flags: W
LayerCount: 3
Fore
SplineSet
608 45 m 1,0,1
 573 24 573 24 526 9 c 128,-1,2
 479 -6 479 -6 420 -8 c 1,3,4
 420 -21 420 -21 424 -29 c 128,-1,5
 428 -37 428 -37 434 -43 c 128,-1,6
 440 -49 440 -49 447.5 -53 c 128,-1,7
 455 -57 455 -57 461 -61 c 0,8,9
 484 -77 484 -77 493 -96 c 128,-1,10
 502 -115 502 -115 502 -132 c 0,11,12
 502 -181 502 -181 476 -207 c 128,-1,13
 450 -233 450 -233 411 -233 c 0,14,15
 382 -233 382 -233 357.5 -217 c 128,-1,16
 333 -201 333 -201 322 -169 c 1,17,18
 329 -167 329 -167 335 -164 c 128,-1,19
 341 -161 341 -161 347 -158 c 1,20,21
 353 -178 353 -178 369.5 -190.5 c 128,-1,22
 386 -203 386 -203 409 -203 c 0,23,24
 438 -203 438 -203 455.5 -184 c 128,-1,25
 473 -165 473 -165 473 -136 c 0,26,27
 473 -111 473 -111 460.5 -97 c 128,-1,28
 448 -83 448 -83 433.5 -72.5 c 128,-1,29
 419 -62 419 -62 406.5 -50.5 c 128,-1,30
 394 -39 394 -39 394 -18 c 2,31,-1
 394 -7 l 1,32,33
 317 -4 317 -4 254 25.5 c 128,-1,34
 191 55 191 55 147 103.5 c 128,-1,35
 103 152 103 152 79 215 c 128,-1,36
 55 278 55 278 55 349 c 0,37,38
 55 427 55 427 83.5 493.5 c 128,-1,39
 112 560 112 560 161.5 609.5 c 128,-1,40
 211 659 211 659 276.5 687 c 128,-1,41
 342 715 342 715 417 715 c 0,42,43
 471 715 471 715 520 701.5 c 128,-1,44
 569 688 569 688 604 665 c 1,45,46
 598 656 598 656 595 650.5 c 128,-1,47
 592 645 592 645 584 632 c 1,48,49
 549 654 549 654 505.5 665 c 128,-1,50
 462 676 462 676 419 676 c 0,51,52
 352 676 352 676 293 650.5 c 128,-1,53
 234 625 234 625 190.5 580.5 c 128,-1,54
 147 536 147 536 121.5 477 c 128,-1,55
 96 418 96 418 96 351 c 0,56,57
 96 288 96 288 118.5 230.5 c 128,-1,58
 141 173 141 173 182.5 129.5 c 128,-1,59
 224 86 224 86 282.5 60 c 128,-1,60
 341 34 341 34 412 34 c 0,61,62
 467 34 467 34 513 48.5 c 128,-1,63
 559 63 559 63 589 82 c 1,64,-1
 608 45 l 1,0,1
EndSplineSet
Validated: 1
EndChar

StartChar: endash
Encoding: 8211 8211 148
Width: 434
Flags: W
LayerCount: 3
Fore
SplineSet
65 176 m 1,0,-1
 65 212 l 1,1,-1
 368 212 l 1,2,-1
 368 176 l 1,3,-1
 65 176 l 1,0,-1
EndSplineSet
Validated: 1
EndChar

StartChar: emdash
Encoding: 8212 8212 149
Width: 635
Flags: W
LayerCount: 3
Fore
SplineSet
65 176 m 1,0,-1
 65 212 l 1,1,-1
 569 212 l 1,2,-1
 569 176 l 1,3,-1
 65 176 l 1,0,-1
EndSplineSet
Validated: 1
EndChar

StartChar: cedilla
Encoding: 184 184 150
Width: 454
Flags: W
LayerCount: 3
Fore
SplineSet
191 0 m 1,0,-1
 217 0 l 1,1,-1
 217 -6 l 2,2,3
 217 -20 217 -20 221 -28.5 c 128,-1,4
 225 -37 225 -37 231 -43 c 128,-1,5
 237 -49 237 -49 244.5 -53 c 128,-1,6
 252 -57 252 -57 258 -61 c 0,7,8
 281 -77 281 -77 290 -96 c 128,-1,9
 299 -115 299 -115 299 -132 c 0,10,11
 299 -181 299 -181 273 -207 c 128,-1,12
 247 -233 247 -233 208 -233 c 0,13,14
 179 -233 179 -233 154.5 -217 c 128,-1,15
 130 -201 130 -201 119 -169 c 1,16,17
 126 -167 126 -167 132 -164 c 128,-1,18
 138 -161 138 -161 144 -158 c 1,19,20
 150 -178 150 -178 166.5 -190.5 c 128,-1,21
 183 -203 183 -203 206 -203 c 0,22,23
 235 -203 235 -203 252.5 -184 c 128,-1,24
 270 -165 270 -165 270 -136 c 0,25,26
 270 -111 270 -111 257.5 -97 c 128,-1,27
 245 -83 245 -83 230.5 -72.5 c 128,-1,28
 216 -62 216 -62 203.5 -51.5 c 128,-1,29
 191 -41 191 -41 191 -22 c 2,30,-1
 191 0 l 1,0,-1
EndSplineSet
Validated: 1
EndChar

StartChar: acute
Encoding: 180 180 151
Width: 237
Flags: W
LayerCount: 3
Fore
SplineSet
100 481 m 1,0,1
 123 514 123 514 145.5 547.5 c 128,-1,2
 168 581 168 581 191 614 c 1,3,-1
 229 614 l 1,4,-1
 130 481 l 1,5,-1
 100 481 l 1,0,1
EndSplineSet
Validated: 1
EndChar

StartChar: dieresis
Encoding: 168 168 152
Width: 372
Flags: W
LayerCount: 3
Fore
SplineSet
244 508 m 0,0,1
 244 522 244 522 253 530.5 c 128,-1,2
 262 539 262 539 274 539 c 256,3,4
 286 539 286 539 295 530.5 c 128,-1,5
 304 522 304 522 304 508 c 0,6,7
 304 495 304 495 295 486.5 c 128,-1,8
 286 478 286 478 274 478 c 256,9,10
 262 478 262 478 253 486.5 c 128,-1,11
 244 495 244 495 244 508 c 0,0,1
72 508 m 0,12,13
 72 522 72 522 81 530.5 c 128,-1,14
 90 539 90 539 102 539 c 256,15,16
 114 539 114 539 123 530.5 c 128,-1,17
 132 522 132 522 132 508 c 0,18,19
 132 495 132 495 123 486.5 c 128,-1,20
 114 478 114 478 102 478 c 256,21,22
 90 478 90 478 81 486.5 c 128,-1,23
 72 495 72 495 72 508 c 0,12,13
EndSplineSet
Validated: 1
EndChar

StartChar: Eth
Encoding: 208 208 153
Width: 718
Flags: W
LayerCount: 3
Fore
SplineSet
56 369 m 1,0,-1
 118 369 l 1,1,-1
 118 707 l 1,2,-1
 272 707 l 2,3,4
 379 707 379 707 453 674.5 c 128,-1,5
 527 642 527 642 573.5 590.5 c 128,-1,6
 620 539 620 539 641 475.5 c 128,-1,7
 662 412 662 412 662 351 c 0,8,9
 662 270 662 270 633.5 205.5 c 128,-1,10
 605 141 605 141 556.5 95 c 128,-1,11
 508 49 508 49 443 24.5 c 128,-1,12
 378 0 378 0 306 0 c 2,13,-1
 118 0 l 1,14,-1
 118 338 l 1,15,-1
 56 338 l 1,16,-1
 56 369 l 1,0,-1
306 40 m 2,17,18
 371 40 371 40 428.5 61.5 c 128,-1,19
 486 83 486 83 528.5 123.5 c 128,-1,20
 571 164 571 164 596 222 c 128,-1,21
 621 280 621 280 621 353 c 0,22,23
 621 412 621 412 600.5 468.5 c 128,-1,24
 580 525 580 525 538.5 569 c 128,-1,25
 497 613 497 613 434 639.5 c 128,-1,26
 371 666 371 666 287 666 c 2,27,-1
 159 666 l 1,28,-1
 159 369 l 1,29,-1
 342 369 l 1,30,-1
 342 338 l 1,31,-1
 159 338 l 1,32,-1
 159 40 l 1,33,-1
 306 40 l 2,17,18
EndSplineSet
Validated: 1
EndChar

StartChar: thorn
Encoding: 254 254 154
Width: 516
Flags: W
LayerCount: 3
Fore
SplineSet
476 194 m 0,0,1
 476 152 476 152 460.5 115 c 128,-1,2
 445 78 445 78 418 51 c 128,-1,3
 391 24 391 24 354 8.5 c 128,-1,4
 317 -7 317 -7 274 -7 c 0,5,6
 215 -7 215 -7 169 23.5 c 128,-1,7
 123 54 123 54 104 99 c 1,8,9
 104 86 104 86 104.5 73.5 c 128,-1,10
 105 61 105 61 105 48 c 2,11,-1
 105 -186 l 1,12,-1
 70 -186 l 1,13,-1
 70 758 l 1,14,-1
 105 758 l 1,15,-1
 105 288 l 1,16,17
 115 310 115 310 131.5 330 c 128,-1,18
 148 350 148 350 170 364.5 c 128,-1,19
 192 379 192 379 219 387.5 c 128,-1,20
 246 396 246 396 276 396 c 0,21,22
 318 396 318 396 354.5 380.5 c 128,-1,23
 391 365 391 365 418 338 c 128,-1,24
 445 311 445 311 460.5 274 c 128,-1,25
 476 237 476 237 476 194 c 0,0,1
439 194 m 256,26,27
 439 229 439 229 426.5 260 c 128,-1,28
 414 291 414 291 391.5 313.5 c 128,-1,29
 369 336 369 336 339 349 c 128,-1,30
 309 362 309 362 273 362 c 0,31,32
 238 362 238 362 207 349 c 128,-1,33
 176 336 176 336 153.5 313.5 c 128,-1,34
 131 291 131 291 118 260 c 128,-1,35
 105 229 105 229 105 194 c 256,36,37
 105 159 105 159 118 128.5 c 128,-1,38
 131 98 131 98 153.5 75.5 c 128,-1,39
 176 53 176 53 207 40 c 128,-1,40
 238 27 238 27 273 27 c 0,41,42
 309 27 309 27 339 40 c 128,-1,43
 369 53 369 53 391.5 75.5 c 128,-1,44
 414 98 414 98 426.5 128.5 c 128,-1,45
 439 159 439 159 439 194 c 256,26,27
EndSplineSet
Validated: 1
EndChar

StartChar: eth
Encoding: 240 240 155
Width: 491
Flags: W
LayerCount: 3
Fore
SplineSet
40 194 m 0,0,1
 40 236 40 236 56 273 c 128,-1,2
 72 310 72 310 99.5 337.5 c 128,-1,3
 127 365 127 365 164 381 c 128,-1,4
 201 397 201 397 243 397 c 256,5,6
 285 397 285 397 321 381.5 c 128,-1,7
 357 366 357 366 384 340 c 1,8,9
 368 394 368 394 331.5 466 c 128,-1,10
 295 538 295 538 228 617 c 1,11,-1
 157 541 l 1,12,-1
 137 560 l 1,13,-1
 211 639 l 1,14,15
 164 690 164 690 115 731 c 1,16,-1
 134 751 l 1,17,18
 159 731 159 731 183.5 708.5 c 128,-1,19
 208 686 208 686 231 660 c 1,20,21
 248 679 248 679 264.5 697 c 128,-1,22
 281 715 281 715 297 733 c 1,23,24
 302 729 302 729 307 724.5 c 128,-1,25
 312 720 312 720 317 716 c 1,26,-1
 248 640 l 1,27,28
 288 592 288 592 324 537 c 128,-1,29
 360 482 360 482 387.5 424.5 c 128,-1,30
 415 367 415 367 431 308.5 c 128,-1,31
 447 250 447 250 447 196 c 0,32,33
 447 185 447 185 445 177 c 0,34,35
 442 138 442 138 425 104.5 c 128,-1,36
 408 71 408 71 381 46.5 c 128,-1,37
 354 22 354 22 318 7.5 c 128,-1,38
 282 -7 282 -7 242 -7 c 0,39,40
 200 -7 200 -7 163 8.5 c 128,-1,41
 126 24 126 24 99 51 c 128,-1,42
 72 78 72 78 56 114.5 c 128,-1,43
 40 151 40 151 40 194 c 0,0,1
75 194 m 256,44,45
 75 159 75 159 88 128.5 c 128,-1,46
 101 98 101 98 123.5 75.5 c 128,-1,47
 146 53 146 53 176.5 40 c 128,-1,48
 207 27 207 27 242 27 c 256,49,50
 277 27 277 27 307.5 40 c 128,-1,51
 338 53 338 53 361 75.5 c 128,-1,52
 384 98 384 98 397 128.5 c 128,-1,53
 410 159 410 159 410 194 c 256,54,55
 410 229 410 229 397 259.5 c 128,-1,56
 384 290 384 290 361 313 c 128,-1,57
 338 336 338 336 307.5 349 c 128,-1,58
 277 362 277 362 242 362 c 256,59,60
 207 362 207 362 176.5 349 c 128,-1,61
 146 336 146 336 123.5 313 c 128,-1,62
 101 290 101 290 88 259.5 c 128,-1,63
 75 229 75 229 75 194 c 256,44,45
EndSplineSet
Validated: 1
EndChar

StartChar: Thorn
Encoding: 222 222 156
Width: 521
Flags: W
LayerCount: 3
Fore
SplineSet
111 0 m 1,0,-1
 111 703 l 1,1,-1
 153 703 l 1,2,-1
 153 551 l 1,3,-1
 268 551 l 2,4,5
 305 551 305 551 343.5 540 c 128,-1,6
 382 529 382 529 413.5 505.5 c 128,-1,7
 445 482 445 482 465 444.5 c 128,-1,8
 485 407 485 407 485 354 c 0,9,10
 485 315 485 315 472.5 278 c 128,-1,11
 460 241 460 241 433 211.5 c 128,-1,12
 406 182 406 182 363.5 164.5 c 128,-1,13
 321 147 321 147 262 147 c 2,14,-1
 153 147 l 1,15,-1
 153 0 l 1,16,-1
 111 0 l 1,0,-1
153 187 m 1,17,-1
 263 187 l 2,18,19
 316 187 316 187 351 204 c 128,-1,20
 386 221 386 221 406.5 246.5 c 128,-1,21
 427 272 427 272 435 301.5 c 128,-1,22
 443 331 443 331 443 355 c 0,23,24
 443 388 443 388 430.5 416.5 c 128,-1,25
 418 445 418 445 394.5 466.5 c 128,-1,26
 371 488 371 488 338 500 c 128,-1,27
 305 512 305 512 264 512 c 2,28,-1
 153 512 l 1,29,-1
 153 187 l 1,17,-1
EndSplineSet
Validated: 1
EndChar

StartChar: Acircumflex
Encoding: 194 194 157
Width: 640
Flags: W
LayerCount: 3
Fore
SplineSet
620 0 m 1,0,1
 599 49 599 49 574.5 109 c 128,-1,2
 550 169 550 169 523.5 235 c 128,-1,3
 497 301 497 301 470 369.5 c 128,-1,4
 443 438 443 438 416.5 504 c 128,-1,5
 390 570 390 570 365.5 630.5 c 128,-1,6
 341 691 341 691 321 740 c 1,7,8
 300 691 300 691 275.5 630.5 c 128,-1,9
 251 570 251 570 224.5 504 c 128,-1,10
 198 438 198 438 171 369.5 c 128,-1,11
 144 301 144 301 117.5 235 c 128,-1,12
 91 169 91 169 66.5 109 c 128,-1,13
 42 49 42 49 21 0 c 1,14,-1
 63 0 l 1,15,16
 89 63 89 63 118 136 c 128,-1,17
 147 209 147 209 177 287 c 1,18,-1
 463 287 l 1,19,20
 493 209 493 209 522.5 136 c 128,-1,21
 552 63 552 63 578 0 c 1,22,-1
 620 0 l 1,0,1
311 623 m 0,23,24
 313 628 313 628 316 636 c 128,-1,25
 319 644 319 644 321 652 c 1,26,-1
 330 623 l 1,27,28
 357 557 357 557 387.5 480.5 c 128,-1,29
 418 404 418 404 449 323 c 1,30,-1
 191 323 l 1,31,32
 223 404 223 404 253 480.5 c 128,-1,33
 283 557 283 557 311 623 c 0,23,24
354 937 m 1,34,-1
 474 755 l 1,35,-1
 445 755 l 1,36,-1
 354 887 l 1,37,-1
 263 755 l 1,38,-1
 233 755 l 1,39,40
 264 800 264 800 294 845.5 c 128,-1,41
 324 891 324 891 354 937 c 1,34,-1
EndSplineSet
Validated: 9
EndChar

StartChar: Ecircumflex
Encoding: 202 202 158
Width: 611
Flags: W
LayerCount: 3
Fore
SplineSet
111 0 m 1,0,-1
 111 707 l 1,1,-1
 544 707 l 1,2,-1
 544 669 l 1,3,-1
 153 669 l 1,4,-1
 153 375 l 1,5,-1
 504 375 l 1,6,-1
 504 337 l 1,7,-1
 153 337 l 1,8,-1
 153 39 l 1,9,-1
 558 39 l 1,10,-1
 558 0 l 1,11,-1
 111 0 l 1,0,-1
333 937 m 1,12,-1
 453 755 l 1,13,-1
 424 755 l 1,14,-1
 333 887 l 1,15,-1
 242 755 l 1,16,-1
 212 755 l 1,17,18
 243 800 243 800 273 845.5 c 128,-1,19
 303 891 303 891 333 937 c 1,12,-1
EndSplineSet
Validated: 1
EndChar

StartChar: Icircumflex
Encoding: 206 206 159
Width: 263
Flags: W
LayerCount: 3
Fore
SplineSet
111 707 m 1,0,-1
 152 707 l 1,1,-1
 152 0 l 1,2,-1
 111 0 l 1,3,-1
 111 707 l 1,0,-1
133 937 m 1,4,-1
 253 755 l 1,5,-1
 224 755 l 1,6,-1
 133 887 l 1,7,-1
 42 755 l 1,8,-1
 12 755 l 1,9,10
 43 800 43 800 73 845.5 c 128,-1,11
 103 891 103 891 133 937 c 1,4,-1
EndSplineSet
Validated: 1
EndChar

StartChar: Ocircumflex
Encoding: 212 212 160
Width: 831
Flags: W
LayerCount: 3
Fore
SplineSet
54 353 m 256,0,1
 54 428 54 428 82.5 493.5 c 128,-1,2
 111 559 111 559 159.5 608.5 c 128,-1,3
 208 658 208 658 273.5 686.5 c 128,-1,4
 339 715 339 715 414 715 c 256,5,6
 489 715 489 715 555 686.5 c 128,-1,7
 621 658 621 658 670.5 608.5 c 128,-1,8
 720 559 720 559 748.5 493.5 c 128,-1,9
 777 428 777 428 777 353 c 256,10,11
 777 278 777 278 748.5 212.5 c 128,-1,12
 720 147 720 147 670.5 98 c 128,-1,13
 621 49 621 49 555 20.5 c 128,-1,14
 489 -8 489 -8 414 -8 c 256,15,16
 339 -8 339 -8 273.5 20.5 c 128,-1,17
 208 49 208 49 159.5 98 c 128,-1,18
 111 147 111 147 82.5 212.5 c 128,-1,19
 54 278 54 278 54 353 c 256,0,1
95 352 m 0,20,21
 95 286 95 286 120 227.5 c 128,-1,22
 145 169 145 169 188.5 125.5 c 128,-1,23
 232 82 232 82 289.5 56.5 c 128,-1,24
 347 31 347 31 413 31 c 256,25,26
 479 31 479 31 538 56.5 c 128,-1,27
 597 82 597 82 641 125.5 c 128,-1,28
 685 169 685 169 710.5 227.5 c 128,-1,29
 736 286 736 286 736 353 c 0,30,31
 736 419 736 419 710.5 478 c 128,-1,32
 685 537 685 537 641.5 580.5 c 128,-1,33
 598 624 598 624 539.5 649.5 c 128,-1,34
 481 675 481 675 415 675 c 256,35,36
 349 675 349 675 290.5 649.5 c 128,-1,37
 232 624 232 624 188.5 580 c 128,-1,38
 145 536 145 536 120 477.5 c 128,-1,39
 95 419 95 419 95 352 c 0,20,21
408 937 m 1,40,-1
 528 755 l 1,41,-1
 499 755 l 1,42,-1
 408 887 l 1,43,-1
 317 755 l 1,44,-1
 287 755 l 1,45,46
 318 800 318 800 348 845.5 c 128,-1,47
 378 891 378 891 408 937 c 1,40,-1
EndSplineSet
Validated: 1
EndChar

StartChar: Ucircumflex
Encoding: 219 219 161
Width: 684
Flags: W
LayerCount: 3
Fore
SplineSet
342 -8 m 256,0,1
 291 -8 291 -8 247 8 c 128,-1,2
 203 24 203 24 171 55 c 128,-1,3
 139 86 139 86 120.5 131.5 c 128,-1,4
 102 177 102 177 102 235 c 2,5,-1
 102 707 l 1,6,-1
 144 707 l 1,7,-1
 144 238 l 2,8,9
 144 190 144 190 159 151.5 c 128,-1,10
 174 113 174 113 200 86 c 128,-1,11
 226 59 226 59 262.5 45 c 128,-1,12
 299 31 299 31 342 31 c 0,13,14
 384 31 384 31 420.5 45 c 128,-1,15
 457 59 457 59 483.5 86 c 128,-1,16
 510 113 510 113 525 151.5 c 128,-1,17
 540 190 540 190 540 238 c 2,18,-1
 540 707 l 1,19,-1
 582 707 l 1,20,-1
 582 235 l 2,21,22
 582 177 582 177 563.5 131.5 c 128,-1,23
 545 86 545 86 512.5 55 c 128,-1,24
 480 24 480 24 436.5 8 c 128,-1,25
 393 -8 393 -8 342 -8 c 256,0,1
350 943 m 1,26,-1
 470 761 l 1,27,-1
 441 761 l 1,28,-1
 350 893 l 1,29,-1
 259 761 l 1,30,-1
 229 761 l 1,31,32
 260 806 260 806 290 851.5 c 128,-1,33
 320 897 320 897 350 943 c 1,26,-1
EndSplineSet
Validated: 1
EndChar

StartChar: plusminus
Encoding: 177 177 162
Width: 541
Flags: W
LayerCount: 3
Fore
SplineSet
252 212 m 1,0,-1
 252 375 l 1,1,-1
 89 375 l 1,2,-1
 89 411 l 1,3,-1
 252 411 l 1,4,-1
 252 573 l 1,5,-1
 288 573 l 1,6,-1
 288 411 l 1,7,-1
 451 411 l 1,8,-1
 451 375 l 1,9,-1
 288 375 l 1,10,-1
 288 212 l 1,11,-1
 252 212 l 1,0,-1
451 121 m 1,12,-1
 89 121 l 1,13,-1
 89 157 l 1,14,-1
 451 157 l 1,15,-1
 451 121 l 1,12,-1
EndSplineSet
Validated: 1
EndChar

StartChar: dollar
Encoding: 36 36 163
Width: 535
Flags: W
LayerCount: 3
Fore
SplineSet
456 672 m 1,0,-1
 441 639 l 1,1,2
 410 652 410 652 366.5 662.5 c 128,-1,3
 323 673 323 673 281 673 c 2,4,-1
 278 673 l 1,5,-1
 278 406 l 1,6,7
 316 392 316 392 354 375.5 c 128,-1,8
 392 359 392 359 422 335.5 c 128,-1,9
 452 312 452 312 471 277.5 c 128,-1,10
 490 243 490 243 490 193 c 0,11,12
 490 149 490 149 474.5 113 c 128,-1,13
 459 77 459 77 431 51.5 c 128,-1,14
 403 26 403 26 364 11 c 128,-1,15
 325 -4 325 -4 278 -7 c 1,16,-1
 278 -68 l 1,17,-1
 250 -68 l 1,18,-1
 250 -8 l 1,19,20
 209 -7 209 -7 175 1.5 c 128,-1,21
 141 10 141 10 114.5 21 c 128,-1,22
 88 32 88 32 69.5 43 c 128,-1,23
 51 54 51 54 41 60 c 1,24,-1
 61 97 l 1,25,26
 77 86 77 86 98 75 c 128,-1,27
 119 64 119 64 144 54.5 c 128,-1,28
 169 45 169 45 196 39 c 128,-1,29
 223 33 223 33 250 32 c 1,30,-1
 250 374 l 1,31,32
 216 386 216 386 184.5 400 c 128,-1,33
 153 414 153 414 128.5 432.5 c 128,-1,34
 104 451 104 451 89 477 c 128,-1,35
 74 503 74 503 74 539 c 0,36,37
 74 572 74 572 86.5 601 c 128,-1,38
 99 630 99 630 122 653 c 128,-1,39
 145 676 145 676 177.5 690.5 c 128,-1,40
 210 705 210 705 250 709 c 1,41,-1
 250 772 l 1,42,-1
 278 772 l 1,43,-1
 278 711 l 1,44,45
 300 711 300 711 325.5 707 c 128,-1,46
 351 703 351 703 375 697.5 c 128,-1,47
 399 692 399 692 420.5 685 c 128,-1,48
 442 678 442 678 456 672 c 1,0,-1
449 193 m 0,49,50
 449 230 449 230 434.5 257 c 128,-1,51
 420 284 420 284 396.5 303.5 c 128,-1,52
 373 323 373 323 342 337.5 c 128,-1,53
 311 352 311 352 278 364 c 1,54,-1
 278 33 l 1,55,56
 308 36 308 36 338.5 46.5 c 128,-1,57
 369 57 369 57 393.5 77 c 128,-1,58
 418 97 418 97 433.5 125.5 c 128,-1,59
 449 154 449 154 449 193 c 0,49,50
115 544 m 0,60,61
 115 518 115 518 125.5 498.5 c 128,-1,62
 136 479 136 479 154.5 464 c 128,-1,63
 173 449 173 449 197.5 437.5 c 128,-1,64
 222 426 222 426 250 416 c 1,65,-1
 250 671 l 1,66,67
 187 663 187 663 151 627 c 128,-1,68
 115 591 115 591 115 544 c 0,60,61
EndSplineSet
Validated: 1
EndChar

StartChar: cent
Encoding: 162 162 164
Width: 423
Flags: W
LayerCount: 3
Fore
SplineSet
351 63 m 1,0,1
 357 57 357 57 362.5 50.5 c 128,-1,2
 368 44 368 44 373 37 c 1,3,4
 347 17 347 17 315.5 5.5 c 128,-1,5
 284 -6 284 -6 248 -7 c 1,6,-1
 248 -68 l 1,7,-1
 220 -68 l 1,8,-1
 220 -5 l 1,9,10
 182 -1 182 -1 150 16.5 c 128,-1,11
 118 34 118 34 94.5 60.5 c 128,-1,12
 71 87 71 87 57.5 121 c 128,-1,13
 44 155 44 155 44 194 c 256,14,15
 44 233 44 233 57.5 267 c 128,-1,16
 71 301 71 301 94.5 328 c 128,-1,17
 118 355 118 355 150 372 c 128,-1,18
 182 389 182 389 220 394 c 1,19,-1
 220 452 l 1,20,-1
 248 452 l 1,21,-1
 248 396 l 1,22,23
 284 395 284 395 316 383.5 c 128,-1,24
 348 372 348 372 374 352 c 1,25,26
 369 345 369 345 363 339 c 128,-1,27
 357 333 357 333 351 325 c 1,28,29
 330 342 330 342 303.5 351.5 c 128,-1,30
 277 361 277 361 248 362 c 1,31,-1
 248 27 l 1,32,33
 277 27 277 27 303.5 36.5 c 128,-1,34
 330 46 330 46 351 63 c 1,0,1
78 194 m 256,35,36
 78 162 78 162 88.5 134 c 128,-1,37
 99 106 99 106 118 84 c 128,-1,38
 137 62 137 62 163 47 c 128,-1,39
 189 32 189 32 220 28 c 1,40,-1
 220 360 l 1,41,42
 189 355 189 355 163 340.5 c 128,-1,43
 137 326 137 326 118 304 c 128,-1,44
 99 282 99 282 88.5 254 c 128,-1,45
 78 226 78 226 78 194 c 256,35,36
EndSplineSet
Validated: 1
EndChar

StartChar: bullet
Encoding: 8226 8226 165
Width: 361
Flags: W
LayerCount: 3
Fore
SplineSet
95 301 m 0,0,1
 95 337 95 337 120 362 c 128,-1,2
 145 387 145 387 180 387 c 0,3,4
 216 387 216 387 241 362 c 128,-1,5
 266 337 266 337 266 301 c 0,6,7
 266 266 266 266 241 241 c 128,-1,8
 216 216 216 216 180 216 c 0,9,10
 145 216 145 216 120 241 c 128,-1,11
 95 266 95 266 95 301 c 0,0,1
EndSplineSet
Validated: 1
EndChar

StartChar: quotedblleft
Encoding: 8220 8220 166
Width: 286
Flags: W
LayerCount: 3
Fore
SplineSet
228 592 m 1,0,1
 223 587 223 587 219.5 582 c 128,-1,2
 216 577 216 577 211 572 c 1,3,4
 182 599 182 599 169.5 636 c 128,-1,5
 157 673 157 673 165 714 c 1,6,-1
 195 707 l 1,7,8
 188 672 188 672 197.5 642 c 128,-1,9
 207 612 207 612 228 592 c 1,0,1
124 592 m 1,10,11
 114 582 114 582 107 572 c 1,12,13
 78 599 78 599 65.5 636 c 128,-1,14
 53 673 53 673 61 714 c 1,15,-1
 91 707 l 1,16,17
 84 672 84 672 93.5 642 c 128,-1,18
 103 612 103 612 124 592 c 1,10,11
EndSplineSet
Validated: 33
EndChar

StartChar: quotedblright
Encoding: 8221 8221 167
Width: 286
Flags: W
LayerCount: 3
Fore
SplineSet
179 572 m 1,0,1
 174 577 174 577 170.5 582 c 128,-1,2
 167 587 167 587 162 592 c 1,3,4
 183 612 183 612 192.5 642 c 128,-1,5
 202 672 202 672 195 707 c 1,6,-1
 225 714 l 1,7,8
 233 673 233 673 220.5 636 c 128,-1,9
 208 599 208 599 179 572 c 1,0,1
75 572 m 1,10,-1
 58 592 l 1,11,12
 79 612 79 612 88.5 642 c 128,-1,13
 98 672 98 672 91 707 c 1,14,-1
 120 714 l 1,15,16
 128 673 128 673 116 636 c 128,-1,17
 104 599 104 599 75 572 c 1,10,-1
EndSplineSet
Validated: 33
EndChar

StartChar: quoteleft
Encoding: 8216 8216 168
Width: 182
Flags: W
LayerCount: 3
Fore
SplineSet
124 592 m 1,0,1
 119 587 119 587 115.5 582 c 128,-1,2
 112 577 112 577 107 572 c 1,3,4
 78 599 78 599 65.5 636 c 128,-1,5
 53 673 53 673 61 714 c 1,6,-1
 91 707 l 1,7,8
 84 672 84 672 93.5 642 c 128,-1,9
 103 612 103 612 124 592 c 1,0,1
EndSplineSet
Validated: 33
EndChar

StartChar: quotedblbase
Encoding: 8222 8222 169
Width: 304
Flags: W
LayerCount: 3
Fore
SplineSet
72 -49 m 1,0,-1
 55 -29 l 1,1,2
 76 -9 76 -9 85.5 20.5 c 128,-1,3
 95 50 95 50 88 85 c 1,4,-1
 118 92 l 1,5,6
 126 52 126 52 113.5 15 c 128,-1,7
 101 -22 101 -22 72 -49 c 1,0,-1
176 -49 m 1,8,9
 172 -44 172 -44 168 -39 c 128,-1,10
 164 -34 164 -34 159 -29 c 1,11,12
 180 -9 180 -9 189.5 20.5 c 128,-1,13
 199 50 199 50 192 85 c 1,14,-1
 222 92 l 1,15,16
 230 52 230 52 217.5 15 c 128,-1,17
 205 -22 205 -22 176 -49 c 1,8,9
EndSplineSet
Validated: 33
EndChar

StartChar: quotesinglbase
Encoding: 8218 8218 170
Width: 200
Flags: W
LayerCount: 3
Fore
SplineSet
72 -49 m 1,0,-1
 55 -29 l 1,1,2
 76 -9 76 -9 85.5 20.5 c 128,-1,3
 95 50 95 50 88 85 c 1,4,-1
 118 92 l 1,5,6
 126 52 126 52 113.5 15 c 128,-1,7
 101 -22 101 -22 72 -49 c 1,0,-1
EndSplineSet
Validated: 33
EndChar

StartChar: guilsinglright
Encoding: 8250 8250 171
Width: 284
Flags: W
LayerCount: 3
Fore
SplineSet
64 111 m 1,0,1
 93 140 93 140 125 175.5 c 128,-1,2
 157 211 157 211 186 240 c 1,3,4
 157 269 157 269 125 304 c 128,-1,5
 93 339 93 339 64 368 c 1,6,-1
 64 410 l 1,7,8
 81 393 81 393 103.5 370.5 c 128,-1,9
 126 348 126 348 150 324.5 c 128,-1,10
 174 301 174 301 196.5 278.5 c 128,-1,11
 219 256 219 256 236 240 c 1,12,-1
 64 69 l 1,13,-1
 64 111 l 1,0,1
EndSplineSet
Validated: 1
EndChar

StartChar: guillemotleft
Encoding: 171 171 172
Width: 456
Flags: W
LayerCount: 3
Fore
SplineSet
392 69 m 1,0,-1
 220 240 l 1,1,2
 237 256 237 256 259.5 278.5 c 128,-1,3
 282 301 282 301 306 324.5 c 128,-1,4
 330 348 330 348 352.5 370.5 c 128,-1,5
 375 393 375 393 392 410 c 1,6,-1
 392 368 l 1,7,8
 363 339 363 339 330.5 304 c 128,-1,9
 298 269 298 269 270 240 c 1,10,11
 298 211 298 211 330.5 175.5 c 128,-1,12
 363 140 363 140 392 111 c 1,13,-1
 392 69 l 1,0,-1
220 69 m 1,14,-1
 48 240 l 1,15,16
 65 256 65 256 87.5 278.5 c 128,-1,17
 110 301 110 301 134 324.5 c 128,-1,18
 158 348 158 348 180.5 370.5 c 128,-1,19
 203 393 203 393 220 410 c 1,20,-1
 220 368 l 1,21,22
 191 339 191 339 159 304 c 128,-1,23
 127 269 127 269 98 240 c 1,24,25
 127 211 127 211 159 175.5 c 128,-1,26
 191 140 191 140 220 111 c 1,27,-1
 220 69 l 1,14,-1
EndSplineSet
Validated: 1
EndChar

StartChar: guillemotright
Encoding: 187 187 173
Width: 456
Flags: W
LayerCount: 3
Fore
SplineSet
64 111 m 1,0,1
 93 140 93 140 125.5 175.5 c 128,-1,2
 158 211 158 211 186 240 c 1,3,4
 158 269 158 269 125.5 304 c 128,-1,5
 93 339 93 339 64 368 c 1,6,-1
 64 410 l 1,7,8
 81 393 81 393 103.5 370.5 c 128,-1,9
 126 348 126 348 150 324.5 c 128,-1,10
 174 301 174 301 196.5 278.5 c 128,-1,11
 219 256 219 256 236 240 c 1,12,-1
 64 69 l 1,13,-1
 64 111 l 1,0,1
236 111 m 1,14,15
 265 140 265 140 297 175.5 c 128,-1,16
 329 211 329 211 358 240 c 1,17,18
 329 269 329 269 297 304 c 128,-1,19
 265 339 265 339 236 368 c 1,20,-1
 236 410 l 1,21,22
 253 393 253 393 275.5 370.5 c 128,-1,23
 298 348 298 348 322 324.5 c 128,-1,24
 346 301 346 301 368.5 278.5 c 128,-1,25
 391 256 391 256 408 240 c 1,26,-1
 236 69 l 1,27,-1
 236 111 l 1,14,15
EndSplineSet
Validated: 1
EndChar

StartChar: yen
Encoding: 165 165 174
Width: 632
Flags: W
LayerCount: 3
Fore
SplineSet
337 255 m 1,0,-1
 337 127 l 1,1,-1
 486 127 l 1,2,-1
 486 100 l 1,3,-1
 337 100 l 1,4,-1
 337 0 l 1,5,-1
 295 0 l 1,6,-1
 295 100 l 1,7,-1
 153 100 l 1,8,-1
 153 127 l 1,9,-1
 295 127 l 1,10,-1
 295 255 l 1,11,12
 291 258 291 258 290 263 c 1,13,-1
 153 263 l 1,14,-1
 153 290 l 1,15,-1
 274 290 l 1,16,17
 247 335 247 335 214.5 391 c 128,-1,18
 182 447 182 447 149 504 c 128,-1,19
 116 561 116 561 85.5 614 c 128,-1,20
 55 667 55 667 31 707 c 1,21,-1
 78 707 l 1,22,23
 102 667 102 667 130.5 619 c 128,-1,24
 159 571 159 571 188.5 520 c 128,-1,25
 218 469 218 469 247.5 417.5 c 128,-1,26
 277 366 277 366 304 319 c 1,27,-1
 317 291 l 1,28,-1
 328 319 l 1,29,30
 355 366 355 366 385 417.5 c 128,-1,31
 415 469 415 469 444 520 c 128,-1,32
 473 571 473 571 501 619 c 128,-1,33
 529 667 529 667 553 707 c 1,34,-1
 600 707 l 1,35,-1
 357 290 l 1,36,-1
 486 290 l 1,37,-1
 486 263 l 1,38,-1
 341 263 l 1,39,-1
 337 255 l 1,0,-1
EndSplineSet
Validated: 1
EndChar

StartChar: copyright
Encoding: 169 169 175
Width: 654
Flags: W
LayerCount: 3
Fore
SplineSet
327 117 m 256,0,1
 273 117 273 117 226 136 c 128,-1,2
 179 155 179 155 144.5 189 c 128,-1,3
 110 223 110 223 90 270 c 128,-1,4
 70 317 70 317 70 372 c 256,5,6
 70 427 70 427 90 474 c 128,-1,7
 110 521 110 521 144.5 555.5 c 128,-1,8
 179 590 179 590 226 609 c 128,-1,9
 273 628 273 628 327 628 c 256,10,11
 381 628 381 628 428 609 c 128,-1,12
 475 590 475 590 509.5 555.5 c 128,-1,13
 544 521 544 521 564 474 c 128,-1,14
 584 427 584 427 584 372 c 256,15,16
 584 317 584 317 564 270 c 128,-1,17
 544 223 544 223 509.5 189 c 128,-1,18
 475 155 475 155 428 136 c 128,-1,19
 381 117 381 117 327 117 c 256,0,1
326 135 m 256,20,21
 375 135 375 135 418.5 153 c 128,-1,22
 462 171 462 171 494.5 202.5 c 128,-1,23
 527 234 527 234 545.5 277.5 c 128,-1,24
 564 321 564 321 564 371 c 0,25,26
 564 423 564 423 545.5 466.5 c 128,-1,27
 527 510 527 510 494.5 542 c 128,-1,28
 462 574 462 574 418.5 592 c 128,-1,29
 375 610 375 610 326 610 c 256,30,31
 277 610 277 610 234 592 c 128,-1,32
 191 574 191 574 159 542 c 128,-1,33
 127 510 127 510 108.5 466.5 c 128,-1,34
 90 423 90 423 90 371 c 0,35,36
 90 321 90 321 108.5 277.5 c 128,-1,37
 127 234 127 234 159 202.5 c 128,-1,38
 191 171 191 171 234 153 c 128,-1,39
 277 135 277 135 326 135 c 256,20,21
422 235 m 1,40,41
 406 225 406 225 383.5 218 c 128,-1,42
 361 211 361 211 333 211 c 0,43,44
 297 211 297 211 267 224 c 128,-1,45
 237 237 237 237 216 259.5 c 128,-1,46
 195 282 195 282 183.5 311 c 128,-1,47
 172 340 172 340 172 373 c 0,48,49
 172 408 172 408 185 438.5 c 128,-1,50
 198 469 198 469 220.5 491.5 c 128,-1,51
 243 514 243 514 272.5 526.5 c 128,-1,52
 302 539 302 539 336 539 c 0,53,54
 360 539 360 539 382 533 c 128,-1,55
 404 527 404 527 420 516 c 1,56,-1
 411 501 l 1,57,58
 395 511 395 511 375.5 516 c 128,-1,59
 356 521 356 521 336 521 c 0,60,61
 306 521 306 521 279.5 509.5 c 128,-1,62
 253 498 253 498 233.5 478 c 128,-1,63
 214 458 214 458 202.5 431 c 128,-1,64
 191 404 191 404 191 374 c 0,65,66
 191 345 191 345 201 319 c 128,-1,67
 211 293 211 293 229.5 273 c 128,-1,68
 248 253 248 253 274.5 241.5 c 128,-1,69
 301 230 301 230 333 230 c 0,70,71
 358 230 358 230 378.5 237 c 128,-1,72
 399 244 399 244 413 252 c 1,73,-1
 422 235 l 1,40,41
EndSplineSet
Validated: 1
EndChar

StartChar: registered
Encoding: 174 174 176
Width: 654
Flags: W
LayerCount: 3
Fore
SplineSet
327 117 m 256,0,1
 273 117 273 117 226 136 c 128,-1,2
 179 155 179 155 144.5 189 c 128,-1,3
 110 223 110 223 90 270 c 128,-1,4
 70 317 70 317 70 372 c 256,5,6
 70 427 70 427 90 474 c 128,-1,7
 110 521 110 521 144.5 555.5 c 128,-1,8
 179 590 179 590 226 609 c 128,-1,9
 273 628 273 628 327 628 c 256,10,11
 381 628 381 628 428 609 c 128,-1,12
 475 590 475 590 509.5 555.5 c 128,-1,13
 544 521 544 521 564 474 c 128,-1,14
 584 427 584 427 584 372 c 256,15,16
 584 317 584 317 564 270 c 128,-1,17
 544 223 544 223 509.5 189 c 128,-1,18
 475 155 475 155 428 136 c 128,-1,19
 381 117 381 117 327 117 c 256,0,1
326 135 m 256,20,21
 375 135 375 135 418.5 153 c 128,-1,22
 462 171 462 171 494.5 202.5 c 128,-1,23
 527 234 527 234 545.5 277.5 c 128,-1,24
 564 321 564 321 564 371 c 0,25,26
 564 423 564 423 545.5 466.5 c 128,-1,27
 527 510 527 510 494.5 542 c 128,-1,28
 462 574 462 574 418.5 592 c 128,-1,29
 375 610 375 610 326 610 c 256,30,31
 277 610 277 610 234 592 c 128,-1,32
 191 574 191 574 159 542 c 128,-1,33
 127 510 127 510 108.5 466.5 c 128,-1,34
 90 423 90 423 90 371 c 0,35,36
 90 321 90 321 108.5 277.5 c 128,-1,37
 127 234 127 234 159 202.5 c 128,-1,38
 191 171 191 171 234 153 c 128,-1,39
 277 135 277 135 326 135 c 256,20,21
252 210 m 1,40,-1
 252 544 l 1,41,-1
 326 544 l 2,42,43
 343 544 343 544 361 539 c 128,-1,44
 379 534 379 534 394 522.5 c 128,-1,45
 409 511 409 511 418.5 493.5 c 128,-1,46
 428 476 428 476 428 451 c 0,47,48
 428 423 428 423 414 398 c 128,-1,49
 400 373 400 373 370 361 c 1,50,51
 375 353 375 353 389 330.5 c 128,-1,52
 403 308 403 308 418 282.5 c 128,-1,53
 433 257 433 257 446.5 236 c 128,-1,54
 460 215 460 215 463 210 c 1,55,-1
 439 210 l 1,56,57
 436 214 436 214 425 233 c 128,-1,58
 414 252 414 252 400 275 c 128,-1,59
 386 298 386 298 372 320.5 c 128,-1,60
 358 343 358 343 351 355 c 1,61,62
 344 354 344 354 337.5 353.5 c 128,-1,63
 331 353 331 353 323 353 c 2,64,-1
 271 353 l 1,65,-1
 271 210 l 1,66,-1
 252 210 l 1,40,-1
271 372 m 1,67,-1
 323 372 l 2,68,69
 348 372 348 372 364.5 380.5 c 128,-1,70
 381 389 381 389 390.5 401 c 128,-1,71
 400 413 400 413 404 427 c 128,-1,72
 408 441 408 441 408 453 c 0,73,74
 408 483 408 483 385 504.5 c 128,-1,75
 362 526 362 526 324 526 c 2,76,-1
 271 526 l 1,77,-1
 271 372 l 1,67,-1
EndSplineSet
Validated: 1
EndChar

StartChar: divide
Encoding: 247 247 177
Width: 512
Flags: W
LayerCount: 3
Fore
SplineSet
437 210 m 1,0,-1
 75 210 l 1,1,-1
 75 245 l 1,2,-1
 437 245 l 1,3,-1
 437 210 l 1,0,-1
229 359 m 0,4,5
 229 372 229 372 238 380.5 c 128,-1,6
 247 389 247 389 259 389 c 0,7,8
 270 389 270 389 279.5 380.5 c 128,-1,9
 289 372 289 372 289 359 c 0,10,11
 289 345 289 345 279.5 336.5 c 128,-1,12
 270 328 270 328 259 328 c 0,13,14
 247 328 247 328 238 336.5 c 128,-1,15
 229 345 229 345 229 359 c 0,4,5
229 96 m 0,16,17
 229 109 229 109 238 117.5 c 128,-1,18
 247 126 247 126 259 126 c 0,19,20
 270 126 270 126 279.5 117.5 c 128,-1,21
 289 109 289 109 289 96 c 0,22,23
 289 82 289 82 279.5 73.5 c 128,-1,24
 270 65 270 65 259 65 c 0,25,26
 247 65 247 65 238 73.5 c 128,-1,27
 229 82 229 82 229 96 c 0,16,17
EndSplineSet
Validated: 1
EndChar

StartChar: onehalf
Encoding: 189 189 178
Width: 829
Flags: W
LayerCount: 3
Fore
SplineSet
561 25 m 1,0,-1
 790 25 l 1,1,-1
 790 0 l 1,2,-1
 498 0 l 1,3,4
 543 44 543 44 585.5 86.5 c 128,-1,5
 628 129 628 129 661 169 c 128,-1,6
 694 209 694 209 714 246.5 c 128,-1,7
 734 284 734 284 734 318 c 0,8,9
 734 353 734 353 723.5 377 c 128,-1,10
 713 401 713 401 697.5 415.5 c 128,-1,11
 682 430 682 430 663.5 436 c 128,-1,12
 645 442 645 442 629 442 c 0,13,14
 596 442 596 442 575 430.5 c 128,-1,15
 554 419 554 419 542 402 c 128,-1,16
 530 385 530 385 525.5 365.5 c 128,-1,17
 521 346 521 346 521 330 c 0,18,19
 521 304 521 304 528 285 c 128,-1,20
 535 266 535 266 549 251 c 1,21,-1
 533 236 l 1,22,23
 515 253 515 253 505 277 c 128,-1,24
 495 301 495 301 495 330 c 0,25,26
 495 358 495 358 503.5 383.5 c 128,-1,27
 512 409 512 409 529 427.5 c 128,-1,28
 546 446 546 446 571 457 c 128,-1,29
 596 468 596 468 629 468 c 0,30,31
 658 468 658 468 682 457 c 128,-1,32
 706 446 706 446 723 427 c 128,-1,33
 740 408 740 408 749.5 382 c 128,-1,34
 759 356 759 356 759 326 c 0,35,36
 759 287 759 287 741 248.5 c 128,-1,37
 723 210 723 210 694.5 172.5 c 128,-1,38
 666 135 666 135 630.5 98 c 128,-1,39
 595 61 595 61 561 25 c 1,0,-1
204 -19 m 1,40,-1
 483 738 l 1,41,-1
 520 738 l 1,42,-1
 240 -19 l 1,43,-1
 204 -19 l 1,40,-1
38 672 m 1,44,-1
 38 697 l 1,45,-1
 135 697 l 1,46,-1
 135 234 l 1,47,-1
 108 234 l 1,48,-1
 108 672 l 1,49,-1
 38 672 l 1,44,-1
EndSplineSet
Validated: 1
EndChar

StartChar: onequarter
Encoding: 188 188 179
Width: 789
Flags: W
LayerCount: 3
Fore
SplineSet
400 133 m 1,0,1
 469 223 469 223 539 313 c 128,-1,2
 609 403 609 403 678 492 c 1,3,-1
 678 160 l 1,4,-1
 750 160 l 1,5,-1
 750 133 l 1,6,-1
 678 133 l 1,7,-1
 678 0 l 1,8,-1
 650 0 l 1,9,-1
 650 133 l 1,10,-1
 400 133 l 1,0,1
190 -19 m 1,11,-1
 469 738 l 1,12,-1
 506 738 l 1,13,-1
 226 -19 l 1,14,-1
 190 -19 l 1,11,-1
650 417 m 1,15,-1
 454 160 l 1,16,-1
 650 160 l 1,17,-1
 650 417 l 1,15,-1
38 672 m 1,18,-1
 38 697 l 1,19,-1
 135 697 l 1,20,-1
 135 234 l 1,21,-1
 108 234 l 1,22,-1
 108 672 l 1,23,-1
 38 672 l 1,18,-1
EndSplineSet
Validated: 1
EndChar

StartChar: ordfeminine
Encoding: 170 170 180
Width: 424
Flags: W
LayerCount: 3
Fore
SplineSet
54 445 m 256,0,1
 54 475 54 475 65.5 502 c 128,-1,2
 77 529 77 529 96.5 549 c 128,-1,3
 116 569 116 569 142.5 580.5 c 128,-1,4
 169 592 169 592 199 592 c 0,5,6
 243 592 243 592 275.5 569 c 128,-1,7
 308 546 308 546 321 514 c 1,8,9
 321 532 321 532 322 550 c 128,-1,10
 323 568 323 568 324 585 c 1,11,-1
 346 585 l 1,12,-1
 346 306 l 1,13,-1
 321 306 l 1,14,-1
 321 377 l 1,15,16
 309 346 309 346 276.5 323.5 c 128,-1,17
 244 301 244 301 199 301 c 0,18,19
 168 301 168 301 141.5 312.5 c 128,-1,20
 115 324 115 324 95.5 343.5 c 128,-1,21
 76 363 76 363 65 389 c 128,-1,22
 54 415 54 415 54 445 c 256,0,1
78 446 m 256,23,24
 78 421 78 421 87.5 399 c 128,-1,25
 97 377 97 377 113.5 360.5 c 128,-1,26
 130 344 130 344 152 334.5 c 128,-1,27
 174 325 174 325 200 325 c 0,28,29
 225 325 225 325 247 334.5 c 128,-1,30
 269 344 269 344 285.5 360.5 c 128,-1,31
 302 377 302 377 311.5 399 c 128,-1,32
 321 421 321 421 321 446 c 256,33,34
 321 471 321 471 311.5 493.5 c 128,-1,35
 302 516 302 516 285.5 532 c 128,-1,36
 269 548 269 548 247 557.5 c 128,-1,37
 225 567 225 567 200 567 c 0,38,39
 174 567 174 567 152 557.5 c 128,-1,40
 130 548 130 548 113.5 532 c 128,-1,41
 97 516 97 516 87.5 493.5 c 128,-1,42
 78 471 78 471 78 446 c 256,23,24
EndSplineSet
Validated: 1
EndChar

StartChar: sterling
Encoding: 163 163 181
Width: 575
Flags: W
LayerCount: 3
Fore
SplineSet
153 35 m 1,0,-1
 377 35 l 2,1,2
 439 35 439 35 463 46 c 128,-1,3
 487 57 487 57 487 88 c 2,4,-1
 487 141 l 1,5,-1
 523 141 l 1,6,-1
 523 86 l 2,7,8
 523 69 523 69 521 53.5 c 128,-1,9
 519 38 519 38 507.5 26 c 128,-1,10
 496 14 496 14 472 7 c 128,-1,11
 448 0 448 0 405 0 c 2,12,-1
 43 0 l 1,13,-1
 43 35 l 1,14,-1
 87 35 l 2,15,16
 104 35 104 35 114.5 41 c 128,-1,17
 125 47 125 47 130.5 62.5 c 128,-1,18
 136 78 136 78 137.5 104 c 128,-1,19
 139 130 139 130 139 170 c 2,20,-1
 139 300 l 1,21,-1
 74 300 l 1,22,-1
 74 336 l 1,23,-1
 139 336 l 1,24,-1
 139 512 l 2,25,26
 139 583 139 583 187.5 619 c 128,-1,27
 236 655 236 655 314 655 c 0,28,29
 382 655 382 655 420 629.5 c 128,-1,30
 458 604 458 604 479 562 c 1,31,32
 472 557 472 557 465.5 553.5 c 128,-1,33
 459 550 459 550 452 546 c 1,34,35
 441 564 441 564 430 577.5 c 128,-1,36
 419 591 419 591 403.5 600.5 c 128,-1,37
 388 610 388 610 366.5 614.5 c 128,-1,38
 345 619 345 619 315 619 c 0,39,40
 276 619 276 619 249.5 610.5 c 128,-1,41
 223 602 223 602 206.5 587 c 128,-1,42
 190 572 190 572 183 551.5 c 128,-1,43
 176 531 176 531 176 508 c 2,44,-1
 176 336 l 1,45,-1
 302 336 l 1,46,-1
 302 300 l 1,47,-1
 176 300 l 1,48,-1
 176 127 l 2,49,50
 176 98 176 98 172 73.5 c 128,-1,51
 168 49 168 49 153 35 c 1,0,-1
EndSplineSet
Validated: 1
EndChar

StartChar: onesuperior
Encoding: 185 185 182
Width: 186
Flags: W
LayerCount: 3
Fore
SplineSet
47 685 m 1,0,-1
 47 701 l 1,1,-1
 109 701 l 1,2,-1
 109 401 l 1,3,-1
 92 401 l 1,4,-1
 92 685 l 1,5,-1
 47 685 l 1,0,-1
EndSplineSet
Validated: 1
EndChar

StartChar: threequarters
Encoding: 190 190 183
Width: 987
Flags: W
LayerCount: 3
Fore
SplineSet
597 133 m 1,0,1
 666 223 666 223 736.5 313 c 128,-1,2
 807 403 807 403 876 492 c 1,3,-1
 876 160 l 1,4,-1
 948 160 l 1,5,-1
 948 133 l 1,6,-1
 876 133 l 1,7,-1
 876 0 l 1,8,-1
 848 0 l 1,9,-1
 848 133 l 1,10,-1
 597 133 l 1,0,1
118 477 m 1,11,12
 154 529 154 529 192 580 c 128,-1,13
 230 631 230 631 267 683 c 1,14,-1
 64 683 l 1,15,-1
 64 710 l 1,16,-1
 317 710 l 1,17,18
 282 662 282 662 246 614 c 128,-1,19
 210 566 210 566 175 518 c 1,20,21
 207 516 207 516 235 503.5 c 128,-1,22
 263 491 263 491 284 470.5 c 128,-1,23
 305 450 305 450 317 421.5 c 128,-1,24
 329 393 329 393 329 360 c 256,25,26
 329 327 329 327 316 298 c 128,-1,27
 303 269 303 269 281.5 247 c 128,-1,28
 260 225 260 225 230.5 212.5 c 128,-1,29
 201 200 201 200 168 200 c 0,30,31
 132 200 132 200 102 214.5 c 128,-1,32
 72 229 72 229 49 252 c 1,33,-1
 70 273 l 1,34,35
 87 253 87 253 112 240 c 128,-1,36
 137 227 137 227 166 227 c 0,37,38
 194 227 194 227 218.5 238 c 128,-1,39
 243 249 243 249 261.5 267 c 128,-1,40
 280 285 280 285 290.5 309 c 128,-1,41
 301 333 301 333 301 360 c 0,42,43
 301 388 301 388 290.5 412.5 c 128,-1,44
 280 437 280 437 261.5 455 c 128,-1,45
 243 473 243 473 218.5 483 c 128,-1,46
 194 493 194 493 166 493 c 0,47,48
 140 493 140 493 118 477 c 1,11,12
359 -19 m 1,49,-1
 638 739 l 1,50,-1
 675 739 l 1,51,52
 604 548 604 548 535 360 c 128,-1,53
 466 172 466 172 395 -19 c 1,54,-1
 359 -19 l 1,49,-1
848 417 m 1,55,-1
 651 160 l 1,56,-1
 848 160 l 1,57,-1
 848 417 l 1,55,-1
EndSplineSet
Validated: 1
EndChar

StartChar: twosuperior
Encoding: 178 178 184
Width: 343
Flags: W
LayerCount: 3
Fore
SplineSet
117 392 m 1,0,-1
 278 392 l 1,1,-1
 278 375 l 1,2,-1
 73 375 l 1,3,4
 105 406 105 406 134.5 435.5 c 128,-1,5
 164 465 164 465 187 493.5 c 128,-1,6
 210 522 210 522 224 548 c 128,-1,7
 238 574 238 574 238 597 c 0,8,9
 238 622 238 622 231 638.5 c 128,-1,10
 224 655 224 655 213 665 c 128,-1,11
 202 675 202 675 189 679.5 c 128,-1,12
 176 684 176 684 164 684 c 0,13,14
 141 684 141 684 126.5 676 c 128,-1,15
 112 668 112 668 104 656 c 128,-1,16
 96 644 96 644 92.5 630 c 128,-1,17
 89 616 89 616 89 605 c 0,18,19
 89 572 89 572 108 550 c 1,20,-1
 97 539 l 1,21,22
 71 565 71 565 71 605 c 0,23,24
 71 646 71 646 95 673.5 c 128,-1,25
 119 701 119 701 164 701 c 0,26,27
 206 701 206 701 231 673 c 128,-1,28
 256 645 256 645 256 603 c 0,29,30
 256 576 256 576 243.5 549 c 128,-1,31
 231 522 231 522 210.5 495.5 c 128,-1,32
 190 469 190 469 165.5 443 c 128,-1,33
 141 417 141 417 117 392 c 1,0,-1
EndSplineSet
Validated: 1
EndChar

StartChar: paragraph
Encoding: 182 182 185
Width: 522
Flags: W
LayerCount: 3
Fore
SplineSet
239 0 m 1,0,-1
 203 0 l 1,1,-1
 203 425 l 1,2,3
 168 425 168 425 138.5 437.5 c 128,-1,4
 109 450 109 450 86.5 472 c 128,-1,5
 64 494 64 494 51.5 524 c 128,-1,6
 39 554 39 554 39 588 c 256,7,8
 39 622 39 622 51.5 652.5 c 128,-1,9
 64 683 64 683 86.5 705 c 128,-1,10
 109 727 109 727 138.5 740 c 128,-1,11
 168 753 168 753 203 753 c 2,12,-1
 403 753 l 1,13,-1
 403 0 l 1,14,-1
 367 0 l 1,15,-1
 367 718 l 1,16,-1
 239 718 l 1,17,-1
 239 0 l 1,0,-1
EndSplineSet
Validated: 1
EndChar

StartChar: logicalnot
Encoding: 172 172 186
Width: 530
Flags: W
LayerCount: 3
Fore
SplineSet
418 149 m 1,0,-1
 418 215 l 1,1,-1
 93 215 l 1,2,-1
 93 244 l 1,3,-1
 455 244 l 1,4,-1
 455 149 l 1,5,-1
 418 149 l 1,0,-1
EndSplineSet
Validated: 1
EndChar

StartChar: threesuperior
Encoding: 179 179 187
Width: 297
Flags: W
LayerCount: 3
Fore
SplineSet
105 553 m 1,0,1
 128 586 128 586 152.5 618.5 c 128,-1,2
 177 651 177 651 200 684 c 1,3,-1
 71 684 l 1,4,-1
 71 702 l 1,5,-1
 233 702 l 1,6,7
 210 671 210 671 187 640.5 c 128,-1,8
 164 610 164 610 142 579 c 1,9,10
 184 577 184 577 212 549 c 128,-1,11
 240 521 240 521 240 478 c 0,12,13
 240 457 240 457 232 438.5 c 128,-1,14
 224 420 224 420 210 406 c 128,-1,15
 196 392 196 392 177 384 c 128,-1,16
 158 376 158 376 137 376 c 0,17,18
 114 376 114 376 95 385 c 128,-1,19
 76 394 76 394 61 410 c 1,20,-1
 75 423 l 1,21,22
 86 410 86 410 101.5 401.5 c 128,-1,23
 117 393 117 393 136 393 c 0,24,25
 154 393 154 393 169.5 400 c 128,-1,26
 185 407 185 407 197 418.5 c 128,-1,27
 209 430 209 430 216 445.5 c 128,-1,28
 223 461 223 461 223 478 c 0,29,30
 223 496 223 496 216 511.5 c 128,-1,31
 209 527 209 527 197 538.5 c 128,-1,32
 185 550 185 550 169.5 556.5 c 128,-1,33
 154 563 154 563 136 563 c 0,34,35
 120 563 120 563 105 553 c 1,0,1
EndSplineSet
Validated: 1
EndChar

StartChar: brokenbar
Encoding: 166 166 188
Width: 232
Flags: W
LayerCount: 3
Fore
SplineSet
134 -234 m 1,0,-1
 98 -234 l 1,1,-1
 98 117 l 1,2,-1
 134 117 l 1,3,-1
 134 -234 l 1,0,-1
134 351 m 1,4,-1
 98 351 l 1,5,-1
 98 703 l 1,6,-1
 134 703 l 1,7,-1
 134 351 l 1,4,-1
EndSplineSet
Validated: 1
EndChar

StartChar: ampersand
Encoding: 38 38 189
Width: 641
Flags: W
LayerCount: 3
Fore
SplineSet
595 0 m 1,0,-1
 553 0 l 1,1,2
 544 11 544 11 533 25 c 0,3,4
 523 37 523 37 510.5 52.5 c 128,-1,5
 498 68 498 68 483 88 c 1,6,7
 454 46 454 46 399 19.5 c 128,-1,8
 344 -7 344 -7 277 -7 c 0,9,10
 227 -7 227 -7 185 8.5 c 128,-1,11
 143 24 143 24 112.5 51 c 128,-1,12
 82 78 82 78 65 114 c 128,-1,13
 48 150 48 150 48 192 c 0,14,15
 48 232 48 232 64 266.5 c 128,-1,16
 80 301 80 301 107 328 c 128,-1,17
 134 355 134 355 169.5 372 c 128,-1,18
 205 389 205 389 245 395 c 1,19,20
 215 434 215 434 195 461 c 128,-1,21
 175 488 175 488 171 496 c 0,22,23
 158 520 158 520 148.5 544 c 128,-1,24
 139 568 139 568 139 600 c 0,25,26
 139 634 139 634 152 662 c 128,-1,27
 165 690 165 690 186.5 709.5 c 128,-1,28
 208 729 208 729 237 740 c 128,-1,29
 266 751 266 751 299 751 c 0,30,31
 341 751 341 751 376.5 738 c 128,-1,32
 412 725 412 725 436 709 c 0,33,34
 435 707 435 707 427.5 696.5 c 128,-1,35
 420 686 420 686 418 684 c 0,36,37
 394 698 394 698 367 707.5 c 128,-1,38
 340 717 340 717 311 718 c 0,39,40
 284 719 284 719 259.5 711 c 128,-1,41
 235 703 235 703 216.5 687.5 c 128,-1,42
 198 672 198 672 187 650 c 128,-1,43
 176 628 176 628 176 600 c 0,44,45
 176 582 176 582 180 565.5 c 128,-1,46
 184 549 184 549 189 537 c 128,-1,47
 194 525 194 525 198.5 517.5 c 128,-1,48
 203 510 203 510 203 510 c 1,49,-1
 478 152 l 1,50,-1
 570 397 l 1,51,-1
 608 397 l 1,52,-1
 502 120 l 1,53,-1
 595 0 l 1,0,-1
270 362 m 1,54,55
 237 361 237 361 204 348.5 c 128,-1,56
 171 336 171 336 144.5 314 c 128,-1,57
 118 292 118 292 101.5 261 c 128,-1,58
 85 230 85 230 85 192 c 256,59,60
 85 154 85 154 101 123.5 c 128,-1,61
 117 93 117 93 143.5 71.5 c 128,-1,62
 170 50 170 50 205 38.5 c 128,-1,63
 240 27 240 27 279 27 c 0,64,65
 308 27 308 27 335.5 34 c 128,-1,66
 363 41 363 41 387 53 c 128,-1,67
 411 65 411 65 430.5 81 c 128,-1,68
 450 97 450 97 462 115 c 1,69,70
 418 171 418 171 366.5 237 c 128,-1,71
 315 303 315 303 270 362 c 1,54,55
EndSplineSet
Validated: 33
EndChar

StartChar: germandbls
Encoding: 223 223 190
Width: 534
Flags: W
LayerCount: 3
Fore
SplineSet
182 18 m 1,0,-1
 197 49 l 1,1,2
 215 38 215 38 236.5 32 c 128,-1,3
 258 26 258 26 281 26 c 0,4,5
 317 26 317 26 349 40 c 128,-1,6
 381 54 381 54 404.5 78 c 128,-1,7
 428 102 428 102 442 133.5 c 128,-1,8
 456 165 456 165 456 200 c 256,9,10
 456 235 456 235 442.5 266 c 128,-1,11
 429 297 429 297 405 320 c 128,-1,12
 381 343 381 343 349.5 356.5 c 128,-1,13
 318 370 318 370 282 370 c 1,14,-1
 282 406 l 1,15,16
 305 406 305 406 325.5 413.5 c 128,-1,17
 346 421 346 421 361 434.5 c 128,-1,18
 376 448 376 448 385 467.5 c 128,-1,19
 394 487 394 487 394 511 c 0,20,21
 394 533 394 533 386.5 553.5 c 128,-1,22
 379 574 379 574 363.5 590 c 128,-1,23
 348 606 348 606 325 615.5 c 128,-1,24
 302 625 302 625 271 625 c 0,25,26
 197 625 197 625 161 571.5 c 128,-1,27
 125 518 125 518 125 428 c 2,28,-1
 125 0 l 1,29,-1
 89 0 l 1,30,-1
 89 360 l 1,31,-1
 24 360 l 1,32,-1
 24 395 l 1,33,-1
 89 395 l 1,34,-1
 89 427 l 2,35,36
 89 538 89 538 136.5 598 c 128,-1,37
 184 658 184 658 263 660 c 0,38,39
 309 660 309 660 341 647.5 c 128,-1,40
 373 635 373 635 392.5 614.5 c 128,-1,41
 412 594 412 594 421 568.5 c 128,-1,42
 430 543 430 543 430 516 c 0,43,44
 430 470 430 470 407.5 438 c 128,-1,45
 385 406 385 406 347 391 c 1,46,47
 376 384 376 384 402.5 366.5 c 128,-1,48
 429 349 429 349 449 324 c 128,-1,49
 469 299 469 299 480.5 267 c 128,-1,50
 492 235 492 235 492 199 c 0,51,52
 492 156 492 156 475.5 118.5 c 128,-1,53
 459 81 459 81 430.5 53 c 128,-1,54
 402 25 402 25 363.5 8.5 c 128,-1,55
 325 -8 325 -8 282 -8 c 0,56,57
 226 -8 226 -8 182 18 c 1,0,-1
EndSplineSet
Validated: 1
EndChar

StartChar: currency
Encoding: 164 164 191
Width: 454
Flags: W
LayerCount: 3
Fore
SplineSet
89 361 m 0,0,1
 89 385 89 385 97 406.5 c 128,-1,2
 105 428 105 428 119 446 c 1,3,-1
 84 481 l 1,4,-1
 104 501 l 1,5,-1
 139 466 l 1,6,7
 157 481 157 481 179 490 c 128,-1,8
 201 499 201 499 227 499 c 256,9,10
 253 499 253 499 275.5 490 c 128,-1,11
 298 481 298 481 315 465 c 1,12,-1
 350 500 l 1,13,-1
 370 481 l 1,14,-1
 335 446 l 1,15,16
 365 410 365 410 365 361 c 0,17,18
 365 335 365 335 356 313 c 128,-1,19
 347 291 347 291 333 273 c 1,20,-1
 370 235 l 1,21,-1
 350 215 l 1,22,-1
 312 253 l 1,23,24
 276 223 276 223 227 223 c 0,25,26
 203 223 203 223 181 230.5 c 128,-1,27
 159 238 159 238 142 252 c 1,28,-1
 104 214 l 1,29,-1
 84 234 l 1,30,-1
 122 272 l 1,31,32
 89 310 89 310 89 361 c 0,0,1
117 361 m 256,33,34
 117 338 117 338 125.5 318 c 128,-1,35
 134 298 134 298 149 283 c 128,-1,36
 164 268 164 268 184 259 c 128,-1,37
 204 250 204 250 227 250 c 256,38,39
 250 250 250 250 270 259 c 128,-1,40
 290 268 290 268 305 283 c 128,-1,41
 320 298 320 298 328.5 318 c 128,-1,42
 337 338 337 338 337 361 c 256,43,44
 337 384 337 384 328.5 404 c 128,-1,45
 320 424 320 424 305 439 c 128,-1,46
 290 454 290 454 270 463 c 128,-1,47
 250 472 250 472 227 472 c 256,48,49
 204 472 204 472 184 463 c 128,-1,50
 164 454 164 454 149 439 c 128,-1,51
 134 424 134 424 125.5 404 c 128,-1,52
 117 384 117 384 117 361 c 256,33,34
EndSplineSet
Validated: 1
EndChar

StartChar: section
Encoding: 167 167 192
Width: 365
Flags: W
LayerCount: 3
Fore
SplineSet
163 153 m 0,0,1
 130 207 130 207 112 239.5 c 128,-1,2
 94 272 94 272 78 298 c 0,3,4
 66 319 66 319 62.5 343 c 128,-1,5
 59 367 59 367 64 389.5 c 128,-1,6
 69 412 69 412 82 432 c 128,-1,7
 95 452 95 452 115 465 c 0,8,9
 138 479 138 479 164.5 480.5 c 128,-1,10
 191 482 191 482 215 472 c 1,11,12
 200 496 200 496 186.5 520 c 128,-1,13
 173 544 173 544 159 569 c 0,14,15
 143 596 143 596 136 616 c 128,-1,16
 129 636 129 636 129 651 c 128,-1,17
 129 666 129 666 134 676.5 c 128,-1,18
 139 687 139 687 148 695 c 0,19,20
 160 710 160 710 182 721.5 c 128,-1,21
 204 733 204 733 221 743 c 1,22,-1
 239 713 l 1,23,24
 227 705 227 705 215.5 699 c 128,-1,25
 204 693 204 693 192 686 c 0,26,27
 166 671 166 671 168 646.5 c 128,-1,28
 170 622 170 622 199 573 c 2,29,-1
 287 422 l 2,30,31
 300 401 300 401 303 377.5 c 128,-1,32
 306 354 306 354 301 331.5 c 128,-1,33
 296 309 296 309 282.5 289.5 c 128,-1,34
 269 270 269 270 249 257 c 0,35,36
 226 243 226 243 199.5 241 c 128,-1,37
 173 239 173 239 149 249 c 1,38,-1
 206 151 l 2,39,40
 222 124 222 124 229 104 c 128,-1,41
 236 84 236 84 236 69 c 128,-1,42
 236 54 236 54 231 43.5 c 128,-1,43
 226 33 226 33 217 25 c 0,44,45
 205 9 205 9 183.5 -2.5 c 128,-1,46
 162 -14 162 -14 145 -23 c 1,47,-1
 126 8 l 1,48,-1
 173 35 l 2,49,50
 199 50 199 50 196.5 75.5 c 128,-1,51
 194 101 194 101 163 153 c 0,0,1
105 328 m 0,52,53
 114 301 114 301 138.5 286.5 c 128,-1,54
 163 272 163 272 191 274 c 0,55,56
 209 275 209 275 224.5 283.5 c 128,-1,57
 240 292 240 292 250.5 305.5 c 128,-1,58
 261 319 261 319 266 335.5 c 128,-1,59
 271 352 271 352 269 369 c 0,60,61
 265 408 265 408 236 430 c 128,-1,62
 207 452 207 452 173 450 c 0,63,64
 149 448 149 448 132 436 c 128,-1,65
 115 424 115 424 106 406.5 c 128,-1,66
 97 389 97 389 96.5 368 c 128,-1,67
 96 347 96 347 105 328 c 0,52,53
EndSplineSet
Validated: 33
EndChar

StartChar: periodcentered
Encoding: 183 183 193
Width: 193
Flags: W
LayerCount: 3
Fore
SplineSet
67 281 m 256,0,1
 67 294 67 294 76 303 c 128,-1,2
 85 312 85 312 97 312 c 256,3,4
 109 312 109 312 118 303 c 128,-1,5
 127 294 127 294 127 281 c 256,6,7
 127 268 127 268 118 259.5 c 128,-1,8
 109 251 109 251 97 251 c 256,9,10
 85 251 85 251 76 259.5 c 128,-1,11
 67 268 67 268 67 281 c 256,0,1
EndSplineSet
Validated: 1
EndChar

StartChar: ordmasculine
Encoding: 186 186 194
Width: 401
Flags: W
LayerCount: 3
Fore
SplineSet
54 446 m 0,0,1
 54 476 54 476 65.5 503 c 128,-1,2
 77 530 77 530 96.5 549.5 c 128,-1,3
 116 569 116 569 143 580.5 c 128,-1,4
 170 592 170 592 200 592 c 0,5,6
 231 592 231 592 257.5 580.5 c 128,-1,7
 284 569 284 569 304 549.5 c 128,-1,8
 324 530 324 530 335.5 503 c 128,-1,9
 347 476 347 476 347 446 c 256,10,11
 347 416 347 416 335.5 389.5 c 128,-1,12
 324 363 324 363 304 343.5 c 128,-1,13
 284 324 284 324 257 312.5 c 128,-1,14
 230 301 230 301 199 301 c 0,15,16
 169 301 169 301 142.5 312 c 128,-1,17
 116 323 116 323 96.5 342.5 c 128,-1,18
 77 362 77 362 65.5 388.5 c 128,-1,19
 54 415 54 415 54 446 c 0,0,1
79 446 m 256,20,21
 79 421 79 421 88.5 399 c 128,-1,22
 98 377 98 377 114 360.5 c 128,-1,23
 130 344 130 344 152 334.5 c 128,-1,24
 174 325 174 325 199 325 c 256,25,26
 224 325 224 325 246.5 334.5 c 128,-1,27
 269 344 269 344 285.5 360.5 c 128,-1,28
 302 377 302 377 311.5 399 c 128,-1,29
 321 421 321 421 321 446 c 256,30,31
 321 471 321 471 311.5 493 c 128,-1,32
 302 515 302 515 285.5 531.5 c 128,-1,33
 269 548 269 548 246.5 557.5 c 128,-1,34
 224 567 224 567 199 567 c 256,35,36
 174 567 174 567 152 557.5 c 128,-1,37
 130 548 130 548 114 531.5 c 128,-1,38
 98 515 98 515 88.5 493 c 128,-1,39
 79 471 79 471 79 446 c 256,20,21
EndSplineSet
Validated: 1
EndChar

StartChar: macron
Encoding: 175 175 195
Width: 401
Flags: W
LayerCount: 3
Fore
SplineSet
85 489 m 1,0,-1
 85 516 l 1,1,-1
 316 516 l 1,2,-1
 316 489 l 1,3,-1
 85 489 l 1,0,-1
EndSplineSet
Validated: 1
EndChar

StartChar: mu
Encoding: 181 181 196
Width: 515
Flags: W
LayerCount: 3
Fore
SplineSet
414 -3 m 1,0,-1
 386 -3 l 1,1,-1
 383 101 l 1,2,3
 362 52 362 52 318 22 c 128,-1,4
 274 -8 274 -8 216 -8 c 0,5,6
 160 -8 160 -8 127 25 c 1,7,-1
 127 -201 l 1,8,-1
 94 -201 l 1,9,-1
 94 93 l 2,10,11
 93 98 93 98 93 108 c 2,12,-1
 93 387 l 1,13,-1
 127 387 l 1,14,-1
 127 114 l 2,15,16
 129 79 129 79 152.5 54 c 128,-1,17
 176 29 176 29 220 26 c 0,18,19
 253 26 253 26 281.5 37 c 128,-1,20
 310 48 310 48 332 67 c 128,-1,21
 354 86 354 86 366.5 112.5 c 128,-1,22
 379 139 379 139 379 171 c 2,23,-1
 379 387 l 1,24,-1
 414 387 l 1,25,-1
 414 -3 l 1,0,-1
EndSplineSet
Validated: 1
EndChar

StartChar: multiply
Encoding: 215 215 197
Width: 428
Flags: W
LayerCount: 3
Fore
SplineSet
328 0 m 1,0,-1
 213 114 l 1,1,-1
 100 0 l 1,2,-1
 71 30 l 1,3,-1
 184 144 l 1,4,-1
 71 257 l 1,5,-1
 100 287 l 1,6,-1
 214 174 l 1,7,-1
 328 287 l 1,8,9
 336 280 336 280 343 272.5 c 128,-1,10
 350 265 350 265 357 258 c 1,11,-1
 244 144 l 1,12,13
 273 115 273 115 301 87 c 128,-1,14
 329 59 329 59 358 30 c 1,15,-1
 328 0 l 1,0,-1
EndSplineSet
Validated: 1
EndChar

StartChar: O
Encoding: 79 79 198
Width: 831
Flags: W
LayerCount: 3
Fore
SplineSet
54 353 m 256,0,1
 54 428 54 428 82.5 493.5 c 128,-1,2
 111 559 111 559 159.5 608.5 c 128,-1,3
 208 658 208 658 273.5 686.5 c 128,-1,4
 339 715 339 715 414 715 c 256,5,6
 489 715 489 715 555 686.5 c 128,-1,7
 621 658 621 658 670.5 608.5 c 128,-1,8
 720 559 720 559 748.5 493.5 c 128,-1,9
 777 428 777 428 777 353 c 256,10,11
 777 278 777 278 748.5 212.5 c 128,-1,12
 720 147 720 147 670.5 98 c 128,-1,13
 621 49 621 49 555 20.5 c 128,-1,14
 489 -8 489 -8 414 -8 c 256,15,16
 339 -8 339 -8 273.5 20.5 c 128,-1,17
 208 49 208 49 159.5 98 c 128,-1,18
 111 147 111 147 82.5 212.5 c 128,-1,19
 54 278 54 278 54 353 c 256,0,1
95 352 m 0,20,21
 95 286 95 286 120 227.5 c 128,-1,22
 145 169 145 169 188.5 125.5 c 128,-1,23
 232 82 232 82 289.5 56.5 c 128,-1,24
 347 31 347 31 413 31 c 256,25,26
 479 31 479 31 538 56.5 c 128,-1,27
 597 82 597 82 641 125.5 c 128,-1,28
 685 169 685 169 710.5 227.5 c 128,-1,29
 736 286 736 286 736 353 c 0,30,31
 736 419 736 419 710.5 478 c 128,-1,32
 685 537 685 537 641.5 580.5 c 128,-1,33
 598 624 598 624 539.5 649.5 c 128,-1,34
 481 675 481 675 415 675 c 256,35,36
 349 675 349 675 290.5 649.5 c 128,-1,37
 232 624 232 624 188.5 580 c 128,-1,38
 145 536 145 536 120 477.5 c 128,-1,39
 95 419 95 419 95 352 c 0,20,21
EndSplineSet
Validated: 1
EndChar

StartChar: g
Encoding: 103 103 199
Width: 516
Flags: W
LayerCount: 3
Fore
SplineSet
40 194 m 256,0,1
 40 236 40 236 55.5 273 c 128,-1,2
 71 310 71 310 98 337.5 c 128,-1,3
 125 365 125 365 161.5 380.5 c 128,-1,4
 198 396 198 396 240 396 c 0,5,6
 272 396 272 396 299.5 387 c 128,-1,7
 327 378 327 378 349 363 c 128,-1,8
 371 348 371 348 387 328.5 c 128,-1,9
 403 309 403 309 411 288 c 1,10,11
 411 313 411 313 412.5 338 c 128,-1,12
 414 363 414 363 415 387 c 1,13,-1
 446 387 l 1,14,-1
 446 0 l 2,15,16
 446 -38 446 -38 435 -71.5 c 128,-1,17
 424 -105 424 -105 400 -130.5 c 128,-1,18
 376 -156 376 -156 337.5 -171 c 128,-1,19
 299 -186 299 -186 243 -186 c 0,20,21
 197 -186 197 -186 155.5 -169 c 128,-1,22
 114 -152 114 -152 66 -106 c 1,23,-1
 88 -82 l 1,24,25
 110 -104 110 -104 130.5 -117.5 c 128,-1,26
 151 -131 151 -131 170 -138.5 c 128,-1,27
 189 -146 189 -146 206.5 -149 c 128,-1,28
 224 -152 224 -152 242 -152 c 0,29,30
 289 -152 289 -152 321 -140.5 c 128,-1,31
 353 -129 353 -129 372.5 -108 c 128,-1,32
 392 -87 392 -87 401 -58.5 c 128,-1,33
 410 -30 410 -30 411 5 c 2,34,-1
 411 48 l 2,35,36
 411 50 411 50 411.5 58 c 128,-1,37
 412 66 412 66 412 75 c 128,-1,38
 412 84 412 84 412.5 92 c 128,-1,39
 413 100 413 100 413 102 c 1,40,41
 393 56 393 56 348 24.5 c 128,-1,42
 303 -7 303 -7 240 -7 c 0,43,44
 198 -7 198 -7 161.5 8.5 c 128,-1,45
 125 24 125 24 98 51.5 c 128,-1,46
 71 79 71 79 55.5 115.5 c 128,-1,47
 40 152 40 152 40 194 c 256,0,1
75 194 m 256,48,49
 75 159 75 159 88 128.5 c 128,-1,50
 101 98 101 98 123.5 75.5 c 128,-1,51
 146 53 146 53 177 40 c 128,-1,52
 208 27 208 27 243 27 c 256,53,54
 278 27 278 27 309 40 c 128,-1,55
 340 53 340 53 362.5 75.5 c 128,-1,56
 385 98 385 98 398 128.5 c 128,-1,57
 411 159 411 159 411 194 c 256,58,59
 411 229 411 229 398 260 c 128,-1,60
 385 291 385 291 362.5 313.5 c 128,-1,61
 340 336 340 336 309 349 c 128,-1,62
 278 362 278 362 243 362 c 256,63,64
 208 362 208 362 177 349 c 128,-1,65
 146 336 146 336 123.5 313.5 c 128,-1,66
 101 291 101 291 88 260 c 128,-1,67
 75 229 75 229 75 194 c 256,48,49
EndSplineSet
Validated: 1
EndChar

StartChar: d
Encoding: 100 100 200
Width: 516
Flags: W
LayerCount: 3
Fore
SplineSet
40 194 m 0,0,1
 40 237 40 237 55.5 274 c 128,-1,2
 71 311 71 311 98.5 338 c 128,-1,3
 126 365 126 365 162.5 380.5 c 128,-1,4
 199 396 199 396 241 396 c 0,5,6
 272 396 272 396 299 387.5 c 128,-1,7
 326 379 326 379 347.5 364 c 128,-1,8
 369 349 369 349 385.5 329.5 c 128,-1,9
 402 310 402 310 411 288 c 1,10,-1
 411 758 l 1,11,-1
 446 758 l 1,12,-1
 446 0 l 1,13,-1
 411 0 l 1,14,-1
 411 47 l 2,15,16
 411 61 411 61 412 74 c 128,-1,17
 413 87 413 87 413 100 c 1,18,19
 392 55 392 55 347 24 c 128,-1,20
 302 -7 302 -7 240 -7 c 0,21,22
 197 -7 197 -7 160.5 9 c 128,-1,23
 124 25 124 25 97 52 c 128,-1,24
 70 79 70 79 55 115.5 c 128,-1,25
 40 152 40 152 40 194 c 0,0,1
75 194 m 256,26,27
 75 159 75 159 88 128.5 c 128,-1,28
 101 98 101 98 123.5 75.5 c 128,-1,29
 146 53 146 53 177 40 c 128,-1,30
 208 27 208 27 243 27 c 256,31,32
 278 27 278 27 309 40 c 128,-1,33
 340 53 340 53 362.5 75.5 c 128,-1,34
 385 98 385 98 398 128.5 c 128,-1,35
 411 159 411 159 411 194 c 256,36,37
 411 229 411 229 398 260 c 128,-1,38
 385 291 385 291 362.5 313.5 c 128,-1,39
 340 336 340 336 309 349 c 128,-1,40
 278 362 278 362 243 362 c 256,41,42
 208 362 208 362 177 349 c 128,-1,43
 146 336 146 336 123.5 313.5 c 128,-1,44
 101 291 101 291 88 260 c 128,-1,45
 75 229 75 229 75 194 c 256,26,27
EndSplineSet
Validated: 1
EndChar

